<svg width="76" height="76" viewBox="0 0 76 76" fill="none" xmlns="http://www.w3.org/2000/svg">
<g clip-path="url(#clip0_3013_1231)">
<path fill-rule="evenodd" clip-rule="evenodd" d="M39.5792 8.30444H40.195C40.6983 8.30444 41.1102 8.71591 41.1102 9.21941V66.7812C41.1102 67.2846 40.6983 67.6961 40.195 67.6961H39.5792C39.076 67.6961 38.6641 67.2846 38.6641 66.7812V9.21941C38.6641 8.71591 39.076 8.30444 39.5792 8.30444Z" fill="#FFF8F1"/>
<path d="M21.2931 48.5552L21.2951 65.2354C21.2951 68.2663 16.7539 68.2663 16.7539 65.2354L16.752 48.6705H10.6542L17.1733 26.0519H16.1612L12.3691 38.8119C11.4664 41.5948 7.64551 40.4515 8.51965 37.4713L12.7301 23.6089C13.1813 22.0282 15.1806 19.2257 18.6412 19.2257H25.2664C28.6963 19.2257 30.7045 22.0516 31.2235 23.6089L35.4357 37.458C36.2781 40.4365 32.4871 41.67 31.5846 38.7667L27.7937 26.0519H26.6979L33.2694 48.6705H27.1619V65.2578C27.1619 68.2663 22.6396 68.2513 22.6396 65.2578V48.5552H21.2931ZM22.0052 18.0024C24.6649 18.0024 26.8213 15.8464 26.8213 13.1864C26.8213 10.5267 24.6649 8.37061 22.0052 8.37061C19.3458 8.37061 17.1893 10.5267 17.1893 13.1864C17.1893 15.8464 19.3458 18.0024 22.0052 18.0024Z" fill="#FFF8F1"/>
<path d="M50.8725 19.2837C47.3925 19.2837 44.5938 22.122 44.5938 25.6621V40.7503C44.5938 43.6837 48.8867 43.6837 48.8867 40.7503V26.9536H49.9032V64.731C49.9032 68.653 55.6198 68.5375 55.6198 64.731V42.8017H56.6044V64.731C56.6044 68.5375 62.3527 68.653 62.3527 64.731V26.9536H63.3453V40.7503C63.3453 43.7064 67.6157 43.7063 67.6081 40.7503V25.7522C67.6081 22.4879 65.0731 19.2906 61.2523 19.2906L50.8725 19.2837ZM56.1314 18.1992C58.8452 18.1992 61.0455 15.9987 61.0455 13.2848C61.0455 10.5707 58.8452 8.37061 56.1314 8.37061C53.4173 8.37061 51.2172 10.5707 51.2172 13.2848C51.2172 15.9987 53.4173 18.1992 56.1314 18.1992Z" fill="#FFF8F1"/>
</g>
<defs>
<clipPath id="clip0_3013_1231">
<rect width="76" height="76" fill="white"/>
</clipPath>
</defs>
</svg>
