<svg width="5044" height="5807" viewBox="0 0 5044 5807" fill="none" xmlns="http://www.w3.org/2000/svg">
<path d="M5 2599.7L280.43 2636.76L267.92 2778.34" stroke="#1D1D1B" stroke-width="10" stroke-linecap="round" stroke-linejoin="round"/>
<path d="M438.61 2819.07L448.95 2667.61L543.95 2683.56L554.5 2825.47C557.32 2863.36 565.49 2900.65 578.76 2936.25L773.38 3458.05C791.02 3505.33 823.83 3545.44 866.69 3572.09L1550.61 4002.49L1611.59 3907.76L1009.33 3533.88C982.43 3517.41 965.86 3488.29 965.44 3456.75L953.67 2158.44C953.47 2136.08 960.26 2114.22 973.09 2095.91L1059.81 1972.14L957.38 1895.24L671.77 2297.34C654.22 2322.05 639.04 2348.37 626.44 2375.95L597.2 2439.96L180.68 2377.44" stroke="#1D1D1B" stroke-width="10" stroke-linecap="round" stroke-linejoin="round"/>
<path d="M4876.96 3165.86L2049.73 727.57C2006.24 690.06 1939.82 698.59 1907.21 745.86L956.172 2124.54L965.852 3456.87C966.082 3488.34 982.442 3517.48 1009.18 3534.07L3518.45 5090.58C3555.93 5113.83 3605.04 5103.73 3630.31 5067.58L4889.47 3265.74C4911.53 3234.17 4906.13 3191.03 4876.96 3165.88V3165.86Z" fill="#FDEADF" stroke="#1D1D1B" stroke-width="10" stroke-miterlimit="10"/>
<path d="M1666.2 1095.24L1794.32 1205.74L1733.15 1276.67L1791 1326.56L1852.17 1255.63L2046.75 1423.44L2376.76 1040.79L3734.88 2212.07L3670.25 2287.01L3647.9 2267.73L3579.87 2346.61L3624.57 2385.16L3554.27 2466.67L3417.54 2348.75L3335.9 2443.41L3338.25 2475.24L3290.63 2530.46L3295.6 2597.8L3346.22 2641.45L3146.09 2873.5L3110.59 2876.12L3118.1 2977.74L3000.57 2986.42L3009.34 3105.18L3048.52 3102.29L2945.91 3221.27L2999.16 3267.19L3109.15 3139.66L3337.91 3336.95L3357.19 3314.6L4119.73 3972.24L4158.28 3927.54L4152.65 3984.58L4202.32 4123.7L3577.02 5024.19L2440.27 4316.64L2392.05 4388.75L3515.52 5088.24C3555.07 5112.87 3606.98 5102.21 3633.63 5063.99L4887.3 3266.34C4909.88 3233.73 4904.22 3189.33 4874.18 3163.43L2050.88 728.56C2006.4 690.2 1938.45 698.98 1905.19 747.4L1666.2 1095.24Z" fill="#A8A8A8" stroke="#1D1D1B" stroke-width="10" stroke-linecap="round" stroke-linejoin="round"/>
<path d="M3179.53 2293.53C3243.26 2293.53 3294.93 2241.86 3294.93 2178.13C3294.93 2114.4 3243.26 2062.73 3179.53 2062.73C3115.8 2062.73 3064.13 2114.4 3064.13 2178.13C3064.13 2241.86 3115.8 2293.53 3179.53 2293.53Z" fill="#A8A8A8" stroke="#1D1D1B" stroke-width="10" stroke-linecap="round" stroke-linejoin="round"/>
<path d="M3179.53 2312.57C3253.78 2312.57 3313.97 2252.38 3313.97 2178.13C3313.97 2103.88 3253.78 2043.69 3179.53 2043.69C3105.28 2043.69 3045.09 2103.88 3045.09 2178.13C3045.09 2252.38 3105.28 2312.57 3179.53 2312.57Z" fill="#A8A8A8" stroke="#1D1D1B" stroke-width="10" stroke-linecap="round" stroke-linejoin="round"/>
<path d="M1819.78 2162.19L1665.85 2029.43L1862.41 1801.52L1849.25 1790.16L1896.55 1735.32L2083.3 1896.38L2063.58 1919.24L2114.65 1963.29L2304.06 2126.64L2519.76 2116.15L2527.65 2222.92L2471.77 2227.05L2474.79 2311.9L2227.96 2329.86L2223.96 2274.12L2125.32 2273.52L2067.54 2223.69L2043.57 2251.48L2091.43 2292.75L2004.82 2393.18L1898.09 2395.89L1896.88 2379.58L1745.9 2249.37L1819.78 2162.19Z" fill="#A8A8A8" stroke="#1D1D1B" stroke-width="10" stroke-linecap="round" stroke-linejoin="round"/>
<path d="M1750.88 3244.36L1748.76 3289.85L1802.5 3336.2L1751.74 3395.06L1891.21 3515.35L1839.9 3574.85L1978.28 3656.26L1995.28 3636.56L2264.12 3813.86L2508.61 3482.16L2558.66 3322.28L2521.65 3259.12L2483.42 3226.15L2362.75 3366.08L2419.5 3415.03L2348.16 3497.75L2189.24 3389.7L2198.38 3367.46L2168.86 3342L2150.48 3238.01L2099.94 3194.42L2099.62 3139.15L2040.08 3141.07L2044.04 3194.7L2014.43 3196.54L1996.41 3237.47L1750.88 3244.36Z" fill="#A8A8A8" stroke="#1D1D1B" stroke-width="10" stroke-linecap="round" stroke-linejoin="round"/>
<path d="M1705.83 1768.15L1646.35 1716.84L1572.76 1802.16L1632.24 1853.46L1705.83 1768.15Z" fill="#D61116" stroke="#1D1D1B" stroke-width="10" stroke-linecap="round" stroke-linejoin="round"/>
<path d="M3281.96 3288.74L3218.75 3362.03L3000.8 3712.05L2922.98 3835.81L2875.65 3904.39L2557.25 4389.49L3576.99 5024.21L4202.29 4123.72L4152.62 3984.6L4158.25 3927.56L4119.7 3972.26L3357.16 3314.61L3337.88 3336.97L3281.96 3288.74Z" fill="#D61116" stroke="#1D1D1B" stroke-width="10" stroke-linecap="round" stroke-linejoin="round"/>
<path d="M1408.99 1468.09L1648.71 1635.23L1802.18 1422.04L1979.05 1561.6L2001.05 1536.09L1971.54 1510.64L2046.75 1423.44L1852.17 1255.63L1791 1326.56L1733.15 1276.67L1794.32 1205.73L1666.2 1095.24L1408.99 1468.09Z" fill="#FBDFE8" stroke="#1D1D1B" stroke-width="10" stroke-linecap="round" stroke-linejoin="round"/>
<path d="M2305.21 1815.83L2437.55 1916.47L2928.28 1907.55L3078.03 1733.91L3200.81 1839.81L3513.13 2109.16L3516.51 2155.67L3671.29 2289.16L3735.11 2215.17L2690.3 1314.09L2492.72 1543.19L2305.21 1815.83Z" fill="#FBDFE8" stroke="#1D1D1B" stroke-width="10" stroke-linecap="round" stroke-linejoin="round"/>
<path d="M3175.65 2434.07L3008.43 2446.41L3022.53 2637.52L3189.75 2625.18L3175.65 2434.07Z" fill="#FBDFE8" stroke="#1D1D1B" stroke-width="10" stroke-linecap="round" stroke-linejoin="round"/>
<path d="M2223.96 2274.12L2235.33 2428.11L2087.1 2434.66L2080.06 2354L2120.34 2307.29L2102.3 2291.74L2114.23 2277.9L2098.91 2264.68L2106.07 2256.38L2125.59 2273.21L2223.96 2274.12Z" fill="#FBDFE8" stroke="#1D1D1B" stroke-width="10" stroke-linecap="round" stroke-linejoin="round"/>
<path d="M1633.54 2167.74L1769.06 2284.61L1779.55 2448.46L1656.97 2453.12L1633.54 2167.74Z" fill="#FBDFE8" stroke="#1D1D1B" stroke-width="10" stroke-linecap="round" stroke-linejoin="round"/>
<path d="M1419.88 2232.74L1305.35 2394.22L1415.53 2489.25L1455.38 2443.04L1483.18 2440.99L1484.99 2465.48L1565.66 2459.52L1555.11 2316.77L1517.24 2315.74L1518.44 2332.02L1482.14 2334.7L1478.33 2283.15L1419.88 2232.74Z" fill="#FBDFE8" stroke="#1D1D1B" stroke-width="10" stroke-linecap="round" stroke-linejoin="round"/>
<path d="M2376.8 2585.84L2303.05 2587.27L2304.87 2680.78L2378.61 2679.35L2376.8 2585.84Z" fill="#FBDFE8" stroke="#1D1D1B" stroke-width="10" stroke-linecap="round" stroke-linejoin="round"/>
<path d="M2197.85 2901.14L2098.34 2903.07L2100.15 2996.58L2199.66 2994.65L2197.85 2901.14Z" fill="#FBDFE8" stroke="#1D1D1B" stroke-width="10" stroke-linecap="round" stroke-linejoin="round"/>
<path d="M2098.33 2903.07L1998.82 2904.99L2000.63 2998.51L2100.14 2996.58L2098.33 2903.07Z" fill="#FBDFE8" stroke="#1D1D1B" stroke-width="10" stroke-linecap="round" stroke-linejoin="round"/>
<path d="M1729.85 3128.38L1596.29 3130.97L1598.17 3228.25L1731.74 3225.66L1729.85 3128.38Z" fill="#FBDFE8" stroke="#1D1D1B" stroke-width="10" stroke-linecap="round" stroke-linejoin="round"/>
<path d="M3048.5 3102.3L2678.48 3122.51L2696.12 3349.77L2816.45 3210.25L2869.27 3255.8L2857.81 3269.09L2884.68 3292.26L3048.5 3102.3Z" fill="#FBDFE8" stroke="#1D1D1B" stroke-width="10" stroke-linecap="round" stroke-linejoin="round"/>
<path d="M3027.98 3233.76L2999.14 3267.2L2798.37 3586.88L3000.8 3712.05L3218.75 3362.03L3027.98 3233.76Z" fill="#FBDFE8" stroke="#1D1D1B" stroke-width="10" stroke-linecap="round" stroke-linejoin="round"/>
<path d="M2384.42 3123.34L2247.44 3128.98L2251.65 3305.12L2198.38 3367.46L2189.24 3389.7L2348.16 3497.75L2419.5 3415.03L2362.75 3366.08L2446.17 3269.36L2389.32 3220.33L2384.42 3123.34Z" fill="#FBDFE8" stroke="#1D1D1B" stroke-width="10" stroke-linecap="round" stroke-linejoin="round"/>
<path d="M2247.44 3128.98L2099.62 3139.15L2099.94 3194.42L2150.48 3238.01L2168.86 3342L2198.38 3367.46L2251.65 3305.12L2247.44 3128.98Z" fill="#FBDFE8" stroke="#1D1D1B" stroke-width="10" stroke-linecap="round" stroke-linejoin="round"/>
<path d="M1855.14 3125.93L2038.63 3124.41L2044.04 3194.7L2014.43 3196.54L1996.41 3237.47L1857.39 3242.3L1855.14 3125.93Z" fill="#FBDFE8" stroke="#1D1D1B" stroke-width="10" stroke-linecap="round" stroke-linejoin="round"/>
<path d="M1596.12 3131.04L1461.82 3129.59L1458.81 3355.27L1508.86 3390.93L1491.97 3410.52L1529.55 3435.44L1628.44 3320.77L1751.74 3395.06L1802.5 3336.2L1748.76 3289.85L1750.88 3244.36L1731.63 3245.78L1730.16 3225.84L1598 3228.32L1596.12 3131.04Z" fill="#FBDFE8" stroke="#1D1D1B" stroke-width="10" stroke-linecap="round" stroke-linejoin="round"/>
<path d="M1712.8 3371.6L1620.79 3489.13L1742.51 3572.43L1785.23 3522.89L1851.92 3560.91L1891.21 3515.35L1751.74 3395.06L1712.8 3371.6Z" fill="#FBDFE8" stroke="#1D1D1B" stroke-width="10" stroke-linecap="round" stroke-linejoin="round"/>
<path d="M1628.44 3320.77L1712.8 3371.6L1620.79 3489.13L1535.19 3428.89L1628.44 3320.77Z" fill="#FBDFE8" stroke="#1D1D1B" stroke-width="10" stroke-linecap="round" stroke-linejoin="round"/>
<path d="M1045.81 3088.23L1261.93 3098.6L1316.47 3160.72L1319.94 3239.8L1047.89 3244.37L1045.81 3088.23Z" fill="#FBDFE8" stroke="#1D1D1B" stroke-width="10" stroke-linecap="round" stroke-linejoin="round"/>
<path d="M1319.94 3239.8L1321.43 3377.39L1198.41 3374.18L1151.1 3429.04L1049.18 3374.1L1047.89 3244.37L1319.94 3239.8Z" fill="#FBDFE8" stroke="#1D1D1B" stroke-width="10" stroke-linecap="round" stroke-linejoin="round"/>
<path d="M1321.43 3377.39L1325.91 3445.71L1446.57 3537.42L1324.25 3729.24L1114.89 3599.64L1213.9 3484.84L1151.1 3429.04L1198.41 3374.18L1321.43 3377.39Z" fill="#FBDFE8" stroke="#1D1D1B" stroke-width="10" stroke-linecap="round" stroke-linejoin="round"/>
<path d="M1408.99 1468.09L1613.2 1610.82L1557.01 1684.14L1356.58 1544.07L1408.99 1468.09Z" fill="#A7CFF0" stroke="#1D1D1B" stroke-width="10" stroke-linecap="round" stroke-linejoin="round"/>
<path d="M1557.01 1684.14L1508.55 1746.62L1313.84 1606.03L1356.58 1544.07L1557.01 1684.14Z" fill="#A7CFF0" stroke="#1D1D1B" stroke-width="10" stroke-linecap="round" stroke-linejoin="round"/>
<path d="M1508.55 1746.62L1453.36 1816.33L1262.07 1681.08L1313.84 1606.03L1508.55 1746.62Z" fill="#A7CFF0" stroke="#1D1D1B" stroke-width="10" stroke-linecap="round" stroke-linejoin="round"/>
<path d="M1262.07 1681.08L1453.36 1816.33L1461.9 1806.42L1506.97 1839.9L1422.49 1957.29L1186.37 1790.81L1262.07 1681.08Z" fill="#A7CFF0" stroke="#1D1D1B" stroke-width="10" stroke-linecap="round" stroke-linejoin="round"/>
<path d="M1422.49 1957.29L1347.27 2063.94L1112.42 1898.02L1186.37 1790.81L1422.49 1957.29Z" fill="#A7CFF0" stroke="#1D1D1B" stroke-width="10" stroke-linecap="round" stroke-linejoin="round"/>
<path d="M1347.27 2063.94L1136.02 2370.42L1022.54 2372.45L1019.62 2160.93L1031.32 2147.36L974.852 2098.65L1112.42 1898.02L1347.27 2063.94Z" fill="#A7CFF0" stroke="#1D1D1B" stroke-width="10" stroke-linecap="round" stroke-linejoin="round"/>
<path d="M1843.56 1608.75L1754.65 1726.59L1799.24 1765.04L1808.85 1753.9L1849.95 1789.34L1866.77 1769.84L1847.96 1753.61L1915.79 1665.11L1843.56 1608.75Z" fill="#A7CFF0" stroke="#1D1D1B" stroke-width="10" stroke-linecap="round" stroke-linejoin="round"/>
<path d="M1915.79 1665.11L1988.34 1721.28L1946.6 1778.42L1934.42 1767.92L1904.32 1802.82L1866.77 1769.84L1847.96 1753.61L1915.79 1665.11Z" fill="#A7CFF0" stroke="#1D1D1B" stroke-width="10" stroke-linecap="round" stroke-linejoin="round"/>
<path d="M1988.34 1721.28L2063.89 1779.12L2014.18 1836.76L1946.57 1778.45L1988.34 1721.28Z" fill="#A7CFF0" stroke="#1D1D1B" stroke-width="10" stroke-linecap="round" stroke-linejoin="round"/>
<path d="M2063.89 1779.12L2136.35 1834.86L2063.58 1919.24L2017.31 1879.33L2037.03 1856.47L2014.18 1836.76L2063.89 1779.12Z" fill="#A7CFF0" stroke="#1D1D1B" stroke-width="10" stroke-linecap="round" stroke-linejoin="round"/>
<path d="M2194.98 1860.52L2044.51 2053.02L2088.28 2090.78L2126.09 2046.93L2160.14 2076.3L2269.86 1918.82L2194.98 1860.52Z" fill="#A7CFF0" stroke="#1D1D1B" stroke-width="10" stroke-linecap="round" stroke-linejoin="round"/>
<path d="M2269.86 1918.82L2352.04 1982.28L2290.89 2053.19L2277.2 2041.39L2253.44 2068.94L2269.7 2082.95L2273.04 2128.21L2226.99 2131.61L2160.14 2076.3L2269.86 1918.82Z" fill="#A7CFF0" stroke="#1D1D1B" stroke-width="10" stroke-linecap="round" stroke-linejoin="round"/>
<path d="M2352.04 1982.28L2427.2 2038.46L2433.23 2120.11L2273.04 2128.21L2269.7 2082.95L2253.44 2068.94L2277.2 2041.39L2290.89 2053.19L2352.04 1982.28Z" fill="#A7CFF0" stroke="#1D1D1B" stroke-width="10" stroke-linecap="round" stroke-linejoin="round"/>
<path d="M2427.2 2038.46L2532.35 2030.69L2538.6 2115.28L2433.23 2120.11L2427.2 2038.46Z" fill="#A7CFF0" stroke="#1D1D1B" stroke-width="10" stroke-linecap="round" stroke-linejoin="round"/>
<path d="M2132.55 1323.95L1971.54 1510.64L2001.05 1536.09L1979.05 1561.6L2081.62 1641.97L2238.27 1415.13L2132.55 1323.95Z" fill="#A7CFF0" stroke="#1D1D1B" stroke-width="10" stroke-linecap="round" stroke-linejoin="round"/>
<path d="M2238.27 1415.13L2327.85 1492.38L2173.6 1713.64L2081.62 1641.97L2238.27 1415.13Z" fill="#A7CFF0" stroke="#1D1D1B" stroke-width="10" stroke-linecap="round" stroke-linejoin="round"/>
<path d="M2173.6 1713.64L2305.21 1815.83L2492.49 1540.09L2690.07 1311L2376.76 1040.79L2132.55 1323.95L2327.85 1492.38L2173.6 1713.64Z" fill="#A7CFF0" stroke="#1D1D1B" stroke-width="10" stroke-linecap="round" stroke-linejoin="round"/>
<path d="M3078.59 1734.66L2928.83 1908.28L3051.6 2014.18L3201.36 1840.56L3078.59 1734.66Z" fill="#A7CFF0" stroke="#1D1D1B" stroke-width="10" stroke-linecap="round" stroke-linejoin="round"/>
<path d="M2878.55 2020.91L2728.81 2024.72L2686.47 2025.81L2683.61 1913.71L2875.69 1908.81L2878.55 2020.91Z" fill="#A7CFF0" stroke="#1D1D1B" stroke-width="10" stroke-linecap="round" stroke-linejoin="round"/>
<path d="M2732.48 2168.48L2667.39 2170.15H2667.22L2663.55 2026.39L2686.47 2025.81L2728.81 2024.72L2731.14 2116.13L2732.48 2168.48Z" fill="#A7CFF0" stroke="#1D1D1B" stroke-width="10" stroke-linecap="round" stroke-linejoin="round"/>
<path d="M2910.19 2316.04L2671.27 2322.13L2667.39 2170.15L2732.48 2168.48L2731.14 2116.13L2904.97 2111.7L2910.19 2316.04Z" fill="#A7CFF0" stroke="#1D1D1B" stroke-width="10" stroke-linecap="round" stroke-linejoin="round"/>
<path d="M3624.56 2385.17L3442.09 2227.79L3290.87 2403.13L3336.62 2442.59L3417.02 2349.35L3553.76 2467.27L3624.56 2385.17Z" fill="#A7CFF0" stroke="#1D1D1B" stroke-width="10" stroke-linecap="round" stroke-linejoin="round"/>
<path d="M2815.86 2652.56L3190 2624.93L3175.88 2433.82L3207.09 2431.51L3288.5 2501.72L3295.6 2597.81L3346.21 2641.46L3146.09 2873.51L3110.58 2876.14L3118.09 2977.75L2841.39 2998.19L2815.86 2652.56Z" fill="#A7CFF0" stroke="#1D1D1B" stroke-width="10" stroke-linecap="round" stroke-linejoin="round"/>
<path d="M3109.12 3139.67L3027.98 3233.76L3218.75 3362.03L3281.96 3288.74L3109.12 3139.67Z" fill="#A7CFF0" stroke="#1D1D1B" stroke-width="10" stroke-linecap="round" stroke-linejoin="round"/>
<path d="M2482.14 2405.44L2541.44 2403.26L2534.81 2222.39L2471.6 2224.71L2482.14 2405.44Z" fill="#A7CFF0" stroke="#1D1D1B" stroke-width="10" stroke-linecap="round" stroke-linejoin="round"/>
<path d="M1799.24 1765.04L1655 1932.28L1709.27 1979.08L1757.65 1922.99L1939.15 2079.52L1959.95 2055.39L1976.3 2069.5L2013.54 2026.32L1815.69 1855.69L1862.41 1801.52L1808.14 1754.71L1799.24 1765.04Z" fill="#A7CFF0" stroke="#1D1D1B" stroke-width="10" stroke-linecap="round" stroke-linejoin="round"/>
<path d="M1655 1932.28L1627.53 1908.59L1599.32 1941.3L1613.05 1953.14L1550.88 2042.12L1660.41 2136.58L1633.54 2167.74L1769.06 2284.61L1772.29 2337.55L1847.99 2336.39L1935.31 2235.14L1903.38 2207.6L1933.6 2172.55L1949.96 2186.66L2018.53 2107.15L1976.3 2069.5L1959.95 2055.39L1939.15 2079.52L1899.47 2125.52L1871.9 2101.75L1819.78 2162.19L1797.8 2143.24L1823.78 2113.12L1774.88 2070.95L1792.33 2050.71L1655 1932.28Z" fill="#A7CFF0" stroke="#1D1D1B" stroke-width="10" stroke-linecap="round" stroke-linejoin="round"/>
<path d="M1660.41 2136.58L1584.38 2224.74L1475.41 2145.93L1550.88 2042.12L1660.41 2136.58Z" fill="#A7CFF0" stroke="#1D1D1B" stroke-width="10" stroke-linecap="round" stroke-linejoin="round"/>
<path d="M1633.54 2167.74L1646.92 2317.07L1517.24 2315.74L1518.44 2332.02L1482.14 2334.7L1478.33 2283.15L1419.88 2232.74L1449.91 2189.08L1440.52 2180.98L1466.31 2140.18L1584.38 2224.74L1633.54 2167.74Z" fill="#A7CFF0" stroke="#1D1D1B" stroke-width="10" stroke-linecap="round" stroke-linejoin="round"/>
<path d="M1646.92 2317.07L1656.97 2453.12L1565.68 2459.87L1555.11 2316.77L1646.92 2317.07Z" fill="#A7CFF0" stroke="#1D1D1B" stroke-width="10" stroke-linecap="round" stroke-linejoin="round"/>
<path d="M1772.29 2337.55L1779.77 2448.21L1902.37 2439.15L1896.31 2379.62L1847.99 2336.39L1772.29 2337.55Z" fill="#A7CFF0" stroke="#1D1D1B" stroke-width="10" stroke-linecap="round" stroke-linejoin="round"/>
<path d="M1862.33 2988.3L1860.52 2895.14L1751.83 2897.24L1753.64 2990.41L1862.33 2988.3Z" fill="#A7CFF0" stroke="#1D1D1B" stroke-width="10" stroke-linecap="round" stroke-linejoin="round"/>
<path d="M1857.47 3242.47L1855.22 3126.1L1729.38 3128.54L1731.64 3244.9L1857.47 3242.47Z" fill="#A7CFF0" stroke="#1D1D1B" stroke-width="10" stroke-linecap="round" stroke-linejoin="round"/>
<path d="M1865.4 2685.64L1863.6 2592.47L1754.91 2594.58L1756.71 2687.74L1865.4 2685.64Z" fill="#A7CFF0" stroke="#1D1D1B" stroke-width="10" stroke-linecap="round" stroke-linejoin="round"/>
<path d="M2086.62 2685.36L2084.81 2592.2L1976.12 2594.3L1977.93 2687.46L2086.62 2685.36Z" fill="#A7CFF0" stroke="#1D1D1B" stroke-width="10" stroke-linecap="round" stroke-linejoin="round"/>
<path d="M2195.73 2683.25L2193.92 2590.08L2085.23 2592.19L2087.04 2685.35L2195.73 2683.25Z" fill="#A7CFF0" stroke="#1D1D1B" stroke-width="10" stroke-linecap="round" stroke-linejoin="round"/>
<path d="M2304.13 2681.15L2302.32 2587.98L2193.63 2590.09L2195.44 2683.25L2304.13 2681.15Z" fill="#A7CFF0" stroke="#1D1D1B" stroke-width="10" stroke-linecap="round" stroke-linejoin="round"/>
<path d="M2310.15 2992.59L2308.35 2899.43L2199.66 2901.53L2201.46 2994.69L2310.15 2992.59Z" fill="#A7CFF0" stroke="#1D1D1B" stroke-width="10" stroke-linecap="round" stroke-linejoin="round"/>
<path d="M2385.18 2991.14L2383.37 2897.98L2308.45 2899.43L2310.26 2992.6L2385.18 2991.14Z" fill="#A7CFF0" stroke="#1D1D1B" stroke-width="10" stroke-linecap="round" stroke-linejoin="round"/>
<path d="M1982.2 2442.41L2087.1 2434.66L2080.06 2354L2120.34 2307.29L2102.3 2291.73L2114.24 2277.89L2098.92 2264.68L2105.82 2256.68L2067.56 2223.68L2043.59 2251.48L2061.52 2266.94L2025.56 2308.63L2027.39 2333.46C2027.39 2333.46 1964.84 2330.7 1975.53 2393.59L1982.21 2442.4L1982.2 2442.41Z" fill="#A7CFF0" stroke="#1D1D1B" stroke-width="10" stroke-linecap="round" stroke-linejoin="round"/>
<path d="M2384.42 3123.34L2553.42 3110.86L2566.38 3286.4L2527.99 3289.24L2471.22 3240.27L2446.15 3269.34L2389.32 3220.33L2384.42 3123.34Z" fill="#A7CFF0" stroke="#1D1D1B" stroke-width="10" stroke-linecap="round" stroke-linejoin="round"/>
<path d="M2566.38 3286.4L2571.38 3354.05L2553.6 3374.66L2559.34 3452.3L2524.01 3493.26L2440.12 3432.81L2458.89 3411.05L2475.82 3420.73L2499.46 3393.32L2538.04 3348.59L2502.92 3318.31L2527.99 3289.24L2566.38 3286.4Z" fill="#A7CFF0" stroke="#1D1D1B" stroke-width="10" stroke-linecap="round" stroke-linejoin="round"/>
<path d="M2682.37 3365.71L2681.18 3513.06L2735.33 3559.75L2814.03 3429.2L2781.32 3400.99L2762.25 3423.1L2745.12 3408.33L2732.13 3423.38L2704.62 3399.65L2725.66 3375.25L2696.12 3349.77L2682.37 3365.71Z" fill="#A7CFF0" stroke="#1D1D1B" stroke-width="10" stroke-linecap="round" stroke-linejoin="round"/>
<path d="M2659.81 3661.01L2418.4 3494.48L2271.09 3708.03L2512.49 3874.56L2659.81 3661.01Z" fill="#A7CFF0" stroke="#1D1D1B" stroke-width="10" stroke-linecap="round" stroke-linejoin="round"/>
<path d="M2425.88 3999.56L2371.68 3962.16L2383.14 3945.55L2195.99 3816.42L2270.61 3708.25L2512.01 3874.8L2437.38 3982.96L2437.35 3982.94L2425.88 3999.56Z" fill="#A7CFF0" stroke="#1D1D1B" stroke-width="10" stroke-linecap="round" stroke-linejoin="round"/>
<path d="M2793.65 3847.83L2609.08 4115.33L2540.52 4068.04L2772.51 3731.84L2841.06 3779.13L2840.98 3779.25L2922.98 3835.81L2875.65 3904.39L2793.65 3847.83Z" fill="#A7CFF0" stroke="#1D1D1B" stroke-width="10" stroke-linecap="round" stroke-linejoin="round"/>
<path d="M2270.61 3708.25L2191.73 3651.87L2314.25 3475.27L2234.43 3420.85L2064.21 3681.59L1995.28 3636.56L1953.98 3684.44L1977.92 3705.08L1996.8 3683.19L2195.99 3816.42L2270.61 3708.25Z" fill="#A7CFF0" stroke="#1D1D1B" stroke-width="10" stroke-linecap="round" stroke-linejoin="round"/>
<path d="M1785.23 3522.89L1925.86 3603.05L1826.19 3718.63L1771.22 3684.59L1822.04 3625.67L1742.51 3572.43L1785.23 3522.89Z" fill="#A7CFF0" stroke="#1D1D1B" stroke-width="10" stroke-linecap="round" stroke-linejoin="round"/>
<path d="M1460.69 3515.28L1324.25 3729.24L1435.22 3798.37L1570.1 3586.83L1460.69 3515.28Z" fill="#A7CFF0" stroke="#1D1D1B" stroke-width="10" stroke-linecap="round" stroke-linejoin="round"/>
<path d="M1561.94 3599.7L1661.85 3665.95L1642.84 3693.51L1661.69 3705.56L1632.05 3746.72L1618.26 3737.89L1543.25 3865.65L1435.22 3798.37L1561.94 3599.7Z" fill="#A7CFF0" stroke="#1D1D1B" stroke-width="10" stroke-linecap="round" stroke-linejoin="round"/>
<path d="M1653.56 3716.84L1752.24 3782.4L1653 3933.43L1543.25 3865.65L1618.26 3737.89L1632.05 3746.72L1653.56 3716.84Z" fill="#A7CFF0" stroke="#1D1D1B" stroke-width="10" stroke-linecap="round" stroke-linejoin="round"/>
<path d="M1988.07 4141.28L2120.32 3939.32L2229.39 4009.75L2151.89 4124.54L2263.96 4196.47L2209.7 4278.75L1988.07 4141.28Z" fill="#A7CFF0" stroke="#1D1D1B" stroke-width="10" stroke-linecap="round" stroke-linejoin="round"/>
<path d="M1767 4003.15L1899.25 3801.19L2008.32 3871.62L1930.82 3986.41L2042.89 4058.34L1988.63 4140.62L1767 4003.15Z" fill="#A7CFF0" stroke="#1D1D1B" stroke-width="10" stroke-linecap="round" stroke-linejoin="round"/>
<path d="M2209.7 4278.75L2343.25 4074.62L2550.73 4211.65L2469.96 4335.16L2440.24 4316.65L2392.02 4388.76L2209.7 4278.75Z" fill="#A7CFF0" stroke="#1D1D1B" stroke-width="10" stroke-linecap="round" stroke-linejoin="round"/>
<path d="M1752.24 3782.4L1863.54 3855.72L1767 4003.15L1653 3933.43L1752.24 3782.4Z" fill="#A7CFF0" stroke="#1D1D1B" stroke-width="10" stroke-linecap="round" stroke-linejoin="round"/>
<path d="M2000.87 3882.65L2110.24 3954.72L2042.89 4058.34L1930.82 3986.41L2000.87 3882.65Z" fill="#A7CFF0" stroke="#1D1D1B" stroke-width="10" stroke-linecap="round" stroke-linejoin="round"/>
<path d="M2222.98 4018.95L2332.54 4090.79L2263.8 4196.03L2151.51 4124.34L2222.98 4018.95Z" fill="#A7CFF0" stroke="#1D1D1B" stroke-width="10" stroke-linecap="round" stroke-linejoin="round"/>
<path d="M2550.73 4211.65L2636.56 4268.55L2557.25 4389.49L2469.96 4335.16L2550.73 4211.65Z" fill="#A7CFF0" stroke="#1D1D1B" stroke-width="10" stroke-linecap="round" stroke-linejoin="round"/>
<path d="M2310.26 2312.91L2227.16 2319.04L2232.5 2391.48L2315.61 2385.34L2310.26 2312.91Z" fill="#4378BC" stroke="#1D1D1B" stroke-width="10" stroke-linecap="round" stroke-linejoin="round"/>
<path d="M2393.23 2306.79L2310.12 2312.92L2315.47 2385.36L2398.57 2379.23L2393.23 2306.79Z" fill="#4378BC" stroke="#1D1D1B" stroke-width="10" stroke-linecap="round" stroke-linejoin="round"/>
<path d="M2474.82 2300.77L2393.41 2306.77L2398.75 2379.21L2480.16 2373.2L2474.82 2300.77Z" fill="#4378BC" stroke="#1D1D1B" stroke-width="10" stroke-linecap="round" stroke-linejoin="round"/>
<path d="M2047.14 2812.6C2046.62 2811.87 2046.3 2810.99 2046.28 2810.03C2046.22 2807.51 2048.2 2805.43 2050.72 2805.39L2339.51 2800.55C2342.02 2800.51 2344.11 2802.52 2344.17 2805.04C2344.23 2807.56 2342.25 2809.64 2339.73 2809.68L2050.94 2814.52C2049.38 2814.55 2047.99 2813.78 2047.14 2812.6Z" stroke="black" stroke-width="4" stroke-miterlimit="10"/>
<path d="M2044.85 2883.64C2044.33 2882.91 2044.01 2882.03 2043.99 2881.07C2043.93 2878.55 2045.91 2876.47 2048.43 2876.43L2337.22 2871.59C2339.73 2871.55 2341.82 2873.56 2341.88 2876.08C2341.94 2878.6 2339.96 2880.68 2337.44 2880.72L2048.65 2885.56C2047.09 2885.59 2045.7 2884.82 2044.85 2883.64Z" stroke="black" stroke-width="4" stroke-miterlimit="10"/>
<path d="M2339.14 2843.78L2323.06 2844.05L2310.62 2844.25L2300.11 2844.43L2288.54 2844.62L2276.41 2844.83L2264.83 2845.03L2254.23 2845.21L2243.63 2845.38L2231.4 2845.59L2220.3 2845.77L2208.5 2845.97L2195.12 2846.2L2182.76 2846.4L2169.95 2846.61L2158.68 2846.8L2147.35 2846.99L2135.7 2847.18L2125.87 2847.34L2114.62 2847.53L2103.37 2847.72L2092.23 2847.91L2081.42 2848.09L2070.57 2848.27L2050.33 2848.61C2048.77 2848.64 2047.38 2847.88 2046.53 2846.7C2046.01 2845.97 2045.69 2845.08 2045.67 2844.13C2045.61 2841.6 2047.6 2839.53 2050.1 2839.49L2070.72 2839.15L2081.55 2838.97L2092.37 2838.78L2103.5 2838.6L2114.76 2838.41L2126 2838.22L2135.83 2838.06L2147.49 2837.86L2158.82 2837.67L2170.09 2837.49L2182.91 2837.27L2195.27 2837.07L2208.65 2836.84L2220.45 2836.65L2231.56 2836.47L2243.79 2836.26L2254.39 2836.08L2264.99 2835.9L2276.58 2835.71L2288.7 2835.51L2300.27 2835.31L2310.78 2835.14L2323.21 2834.93L2338.92 2834.67C2341.43 2834.62 2343.51 2836.63 2343.58 2839.15C2343.64 2841.67 2341.65 2843.75 2339.14 2843.79V2843.78Z" stroke="black" stroke-width="4" stroke-miterlimit="10"/>
<path d="M2322.64 2871.83L2323.07 2844.05" stroke="black" stroke-width="4" stroke-miterlimit="10"/>
<path d="M2323.21 2834.91L2323.59 2809.95" stroke="black" stroke-width="4" stroke-miterlimit="10"/>
<path d="M2310.22 2870.48L2310.63 2844.25" stroke="black" stroke-width="4" stroke-miterlimit="10"/>
<path d="M2310.78 2835.12L2311.19 2808.59" stroke="black" stroke-width="4" stroke-miterlimit="10"/>
<path d="M2299.7 2871.53L2300.12 2844.43" stroke="black" stroke-width="4" stroke-miterlimit="10"/>
<path d="M2300.26 2835.3L2300.66 2809.65" stroke="black" stroke-width="4" stroke-miterlimit="10"/>
<path d="M2288.14 2871.35L2288.56 2844.62" stroke="black" stroke-width="4" stroke-miterlimit="10"/>
<path d="M2288.7 2835.5L2289.1 2809.47" stroke="black" stroke-width="4" stroke-miterlimit="10"/>
<path d="M2276 2872.2L2276.43 2844.83" stroke="black" stroke-width="4" stroke-miterlimit="10"/>
<path d="M2276.57 2835.7L2276.97 2810.31" stroke="black" stroke-width="4" stroke-miterlimit="10"/>
<path d="M2264.41 2872.8L2264.85 2845.03" stroke="black" stroke-width="4" stroke-miterlimit="10"/>
<path d="M2264.99 2835.89L2265.37 2810.91" stroke="black" stroke-width="4" stroke-miterlimit="10"/>
<path d="M2253.8 2873.92L2254.25 2845.2" stroke="black" stroke-width="4" stroke-miterlimit="10"/>
<path d="M2254.39 2836.07L2254.76 2812.03" stroke="black" stroke-width="4" stroke-miterlimit="10"/>
<path d="M2243.19 2875.05L2243.64 2845.38" stroke="black" stroke-width="4" stroke-miterlimit="10"/>
<path d="M2243.79 2836.25L2244.14 2813.16" stroke="black" stroke-width="4" stroke-miterlimit="10"/>
<path d="M2230.98 2873.95L2231.41 2845.59" stroke="black" stroke-width="4" stroke-miterlimit="10"/>
<path d="M2231.56 2836.46L2231.94 2812.07" stroke="black" stroke-width="4" stroke-miterlimit="10"/>
<path d="M2219.87 2874.21L2220.31 2845.77" stroke="black" stroke-width="4" stroke-miterlimit="10"/>
<path d="M2220.45 2836.64L2220.83 2812.32" stroke="black" stroke-width="4" stroke-miterlimit="10"/>
<path d="M2208.08 2873.7L2208.51 2845.96" stroke="black" stroke-width="4" stroke-miterlimit="10"/>
<path d="M2208.66 2836.84L2209.04 2811.81" stroke="black" stroke-width="4" stroke-miterlimit="10"/>
<path d="M2194.7 2873.82L2195.13 2846.19" stroke="black" stroke-width="4" stroke-miterlimit="10"/>
<path d="M2195.28 2837.06L2195.66 2811.94" stroke="black" stroke-width="4" stroke-miterlimit="10"/>
<path d="M2182.35 2873.65L2182.77 2846.4" stroke="black" stroke-width="4" stroke-miterlimit="10"/>
<path d="M2182.92 2837.27L2183.32 2811.77" stroke="black" stroke-width="4" stroke-miterlimit="10"/>
<path d="M2169.55 2873.26L2169.96 2846.61" stroke="black" stroke-width="4" stroke-miterlimit="10"/>
<path d="M2170.1 2837.48L2170.51 2811.38" stroke="black" stroke-width="4" stroke-miterlimit="10"/>
<path d="M2158.27 2874.14L2158.69 2846.8" stroke="black" stroke-width="4" stroke-miterlimit="10"/>
<path d="M2158.84 2837.67L2159.23 2812.24" stroke="black" stroke-width="4" stroke-miterlimit="10"/>
<path d="M2146.95 2873.63L2147.37 2846.99" stroke="black" stroke-width="4" stroke-miterlimit="10"/>
<path d="M2147.51 2837.86L2147.91 2811.75" stroke="black" stroke-width="4" stroke-miterlimit="10"/>
<path d="M2135.3 2873.78L2135.71 2847.18" stroke="black" stroke-width="4" stroke-miterlimit="10"/>
<path d="M2135.85 2838.06L2136.26 2811.89" stroke="black" stroke-width="4" stroke-miterlimit="10"/>
<path d="M2125.46 2874.35L2125.89 2847.35" stroke="black" stroke-width="4" stroke-miterlimit="10"/>
<path d="M2126.02 2838.22L2126.43 2812.45" stroke="black" stroke-width="4" stroke-miterlimit="10"/>
<path d="M2114.24 2873.68L2114.64 2847.54" stroke="black" stroke-width="4" stroke-miterlimit="10"/>
<path d="M2114.78 2838.41L2115.2 2811.8" stroke="black" stroke-width="4" stroke-miterlimit="10"/>
<path d="M2102.97 2874.63L2103.39 2847.73" stroke="black" stroke-width="4" stroke-miterlimit="10"/>
<path d="M2103.52 2838.6L2103.93 2812.76" stroke="black" stroke-width="4" stroke-miterlimit="10"/>
<path d="M2091.8 2876.47L2092.25 2847.91" stroke="black" stroke-width="4" stroke-miterlimit="10"/>
<path d="M2092.39 2838.78L2092.77 2814.59" stroke="black" stroke-width="4" stroke-miterlimit="10"/>
<path d="M2081 2875.69L2081.44 2848.09" stroke="black" stroke-width="4" stroke-miterlimit="10"/>
<path d="M2081.57 2838.97L2081.97 2813.81" stroke="black" stroke-width="4" stroke-miterlimit="10"/>
<path d="M2070.15 2876.25L2070.59 2848.27" stroke="black" stroke-width="4" stroke-miterlimit="10"/>
<path d="M2070.74 2839.15L2071.12 2814.36" stroke="black" stroke-width="4" stroke-miterlimit="10"/>
<path d="M2627.48 4124.93C2626.59 4124.93 2625.68 4124.69 2624.88 4124.15C2622.79 4122.75 2622.23 4119.93 2623.65 4117.85L2786.23 3879.12C2787.64 3877.04 2790.49 3876.5 2792.58 3877.9C2794.67 3879.3 2795.23 3882.12 2793.81 3884.2L2631.23 4122.93C2630.35 4124.22 2628.93 4124.92 2627.47 4124.93H2627.48Z" stroke="black" stroke-width="4" stroke-miterlimit="10"/>
<path d="M2684.19 4167.77C2683.3 4167.77 2682.39 4167.53 2681.59 4166.99C2679.5 4165.59 2678.94 4162.77 2680.36 4160.69L2842.94 3921.96C2844.36 3919.88 2847.2 3919.34 2849.29 3920.74C2851.38 3922.14 2851.94 3924.96 2850.52 3927.04L2687.94 4165.77C2687.06 4167.06 2685.64 4167.76 2684.18 4167.77H2684.19Z" stroke="black" stroke-width="4" stroke-miterlimit="10"/>
<path d="M2821.34 3904.35L2812.29 3917.64L2805.28 3927.92L2799.37 3936.61L2792.85 3946.17L2786.03 3956.2L2779.51 3965.77L2773.54 3974.53L2767.56 3983.29L2760.68 3993.4L2754.42 4002.57L2747.78 4012.33L2740.25 4023.39L2733.29 4033.6L2726.08 4044.19L2719.73 4053.51L2713.36 4062.87L2706.8 4072.5L2701.27 4080.62L2694.94 4089.92L2688.6 4099.22L2682.33 4108.43L2676.25 4117.37L2670.14 4126.33L2658.75 4143.06C2657.87 4144.35 2656.45 4145.05 2655 4145.06C2654.1 4145.06 2653.2 4144.81 2652.4 4144.28C2650.3 4142.87 2649.76 4140.06 2651.17 4137.98L2662.78 4120.94L2668.88 4111.99L2674.96 4103.05L2681.23 4093.85L2687.57 4084.54L2693.9 4075.25L2699.43 4067.13L2705.99 4057.49L2712.36 4048.13L2718.71 4038.82L2725.92 4028.22L2732.88 4018.01L2740.41 4006.95L2747.05 3997.2L2753.31 3988.02L2760.19 3977.91L2766.16 3969.15L2772.13 3960.39L2778.66 3950.82L2785.48 3940.8L2791.99 3931.23L2797.91 3922.54L2804.91 3912.26L2813.76 3899.27C2815.17 3897.19 2818.01 3896.65 2820.11 3898.05C2822.2 3899.46 2822.75 3902.27 2821.34 3904.36V3904.35Z" stroke="black" stroke-width="4" stroke-miterlimit="10"/>
<path d="M2834.74 3934.01L2812.29 3917.64" stroke="black" stroke-width="4" stroke-miterlimit="10"/>
<path d="M2804.9 3912.26L2784.73 3897.55" stroke="black" stroke-width="4" stroke-miterlimit="10"/>
<path d="M2826.47 3943.38L2805.28 3927.92" stroke="black" stroke-width="4" stroke-miterlimit="10"/>
<path d="M2797.91 3922.54L2776.47 3906.9" stroke="black" stroke-width="4" stroke-miterlimit="10"/>
<path d="M2821.27 3952.58L2799.37 3936.61" stroke="black" stroke-width="4" stroke-miterlimit="10"/>
<path d="M2791.99 3931.23L2771.26 3916.11" stroke="black" stroke-width="4" stroke-miterlimit="10"/>
<path d="M2814.46 3961.92L2792.85 3946.16" stroke="black" stroke-width="4" stroke-miterlimit="10"/>
<path d="M2785.48 3940.79L2764.45 3925.45" stroke="black" stroke-width="4" stroke-miterlimit="10"/>
<path d="M2808.15 3972.33L2786.03 3956.2" stroke="black" stroke-width="4" stroke-miterlimit="10"/>
<path d="M2778.65 3950.81L2758.14 3935.85" stroke="black" stroke-width="4" stroke-miterlimit="10"/>
<path d="M2801.95 3982.14L2779.51 3965.77" stroke="black" stroke-width="4" stroke-miterlimit="10"/>
<path d="M2772.13 3960.39L2751.94 3945.66" stroke="black" stroke-width="4" stroke-miterlimit="10"/>
<path d="M2796.75 3991.46L2773.55 3974.53" stroke="black" stroke-width="4" stroke-miterlimit="10"/>
<path d="M2766.16 3969.15L2746.74 3954.98" stroke="black" stroke-width="4" stroke-miterlimit="10"/>
<path d="M2791.55 4000.78L2767.57 3983.29" stroke="black" stroke-width="4" stroke-miterlimit="10"/>
<path d="M2760.2 3977.91L2741.54 3964.31" stroke="black" stroke-width="4" stroke-miterlimit="10"/>
<path d="M2783.61 4010.12L2760.69 3993.41" stroke="black" stroke-width="4" stroke-miterlimit="10"/>
<path d="M2753.32 3988.02L2733.61 3973.65" stroke="black" stroke-width="4" stroke-miterlimit="10"/>
<path d="M2777.42 4019.35L2754.44 4002.58" stroke="black" stroke-width="4" stroke-miterlimit="10"/>
<path d="M2747.06 3997.21L2727.41 3982.87" stroke="black" stroke-width="4" stroke-miterlimit="10"/>
<path d="M2770.2 4028.68L2747.79 4012.34" stroke="black" stroke-width="4" stroke-miterlimit="10"/>
<path d="M2740.42 4006.95L2720.2 3992.2" stroke="black" stroke-width="4" stroke-miterlimit="10"/>
<path d="M2762.59 4039.68L2740.26 4023.4" stroke="black" stroke-width="4" stroke-miterlimit="10"/>
<path d="M2732.89 4018.02L2712.58 4003.21" stroke="black" stroke-width="4" stroke-miterlimit="10"/>
<path d="M2755.33 4049.67L2733.3 4033.61" stroke="black" stroke-width="4" stroke-miterlimit="10"/>
<path d="M2725.93 4028.23L2705.33 4013.2" stroke="black" stroke-width="4" stroke-miterlimit="10"/>
<path d="M2747.63 4059.91L2726.09 4044.2" stroke="black" stroke-width="4" stroke-miterlimit="10"/>
<path d="M2718.71 4038.83L2697.62 4023.44" stroke="black" stroke-width="4" stroke-miterlimit="10"/>
<path d="M2741.83 4069.63L2719.74 4053.52" stroke="black" stroke-width="4" stroke-miterlimit="10"/>
<path d="M2712.37 4048.14L2691.82 4033.15" stroke="black" stroke-width="4" stroke-miterlimit="10"/>
<path d="M2734.9 4078.58L2713.37 4062.88" stroke="black" stroke-width="4" stroke-miterlimit="10"/>
<path d="M2705.99 4057.5L2684.89 4042.11" stroke="black" stroke-width="4" stroke-miterlimit="10"/>
<path d="M2728.3 4088.19L2706.81 4072.51" stroke="black" stroke-width="4" stroke-miterlimit="10"/>
<path d="M2699.43 4067.14L2678.29 4051.72" stroke="black" stroke-width="4" stroke-miterlimit="10"/>
<path d="M2723.09 4096.55L2701.27 4080.64" stroke="black" stroke-width="4" stroke-miterlimit="10"/>
<path d="M2693.9 4075.26L2673.08 4060.07" stroke="black" stroke-width="4" stroke-miterlimit="10"/>
<path d="M2716.07 4105.34L2694.95 4089.94" stroke="black" stroke-width="4" stroke-miterlimit="10"/>
<path d="M2687.57 4084.55L2666.07 4068.87" stroke="black" stroke-width="4" stroke-miterlimit="10"/>
<path d="M2710.35 4115.1L2688.61 4099.24" stroke="black" stroke-width="4" stroke-miterlimit="10"/>
<path d="M2681.23 4093.86L2660.35 4078.63" stroke="black" stroke-width="4" stroke-miterlimit="10"/>
<path d="M2705.41 4125.28L2682.34 4108.45" stroke="black" stroke-width="4" stroke-miterlimit="10"/>
<path d="M2674.96 4103.06L2655.41 4088.8" stroke="black" stroke-width="4" stroke-miterlimit="10"/>
<path d="M2698.55 4133.65L2676.25 4117.38" stroke="black" stroke-width="4" stroke-miterlimit="10"/>
<path d="M2668.88 4112.01L2648.55 4097.18" stroke="black" stroke-width="4" stroke-miterlimit="10"/>
<path d="M2692.75 4142.83L2670.14 4126.34" stroke="black" stroke-width="4" stroke-miterlimit="10"/>
<path d="M2662.78 4120.96L2642.75 4106.36" stroke="black" stroke-width="4" stroke-miterlimit="10"/>
<path d="M2351.91 2775.43L2039.83 2783.35" stroke="black" stroke-width="6" stroke-miterlimit="10" stroke-linecap="round"/>
<path d="M2351.22 2706.61L2039.14 2714.54" stroke="black" stroke-width="6" stroke-miterlimit="10" stroke-linecap="round"/>
<path d="M2347.84 2708.94L2348.55 2775.47" stroke="black" stroke-width="2" stroke-miterlimit="10" stroke-linecap="round"/>
<path d="M2338.2 2709.05L2338.91 2775.57" stroke="black" stroke-width="2" stroke-miterlimit="10" stroke-linecap="round"/>
<path d="M2328.55 2709.15L2329.26 2775.67" stroke="black" stroke-width="2" stroke-miterlimit="10" stroke-linecap="round"/>
<path d="M2318.9 2709.25L2319.61 2775.78" stroke="black" stroke-width="2" stroke-miterlimit="10" stroke-linecap="round"/>
<path d="M2309.26 2709.36L2309.97 2775.88" stroke="black" stroke-width="2" stroke-miterlimit="10" stroke-linecap="round"/>
<path d="M2299.61 2709.46L2300.32 2775.98" stroke="black" stroke-width="2" stroke-miterlimit="10" stroke-linecap="round"/>
<path d="M2289.96 2709.56L2290.67 2776.09" stroke="black" stroke-width="2" stroke-miterlimit="10" stroke-linecap="round"/>
<path d="M2280.32 2709.67L2281.03 2776.19" stroke="black" stroke-width="2" stroke-miterlimit="10" stroke-linecap="round"/>
<path d="M2270.67 2709.77L2271.38 2776.29" stroke="black" stroke-width="2" stroke-miterlimit="10" stroke-linecap="round"/>
<path d="M2261.02 2709.87L2261.73 2776.39" stroke="black" stroke-width="2" stroke-miterlimit="10" stroke-linecap="round"/>
<path d="M2251.38 2709.97L2252.09 2776.5" stroke="black" stroke-width="2" stroke-miterlimit="10" stroke-linecap="round"/>
<path d="M2241.73 2710.08L2242.44 2776.6" stroke="black" stroke-width="2" stroke-miterlimit="10" stroke-linecap="round"/>
<path d="M2232.08 2710.18L2232.8 2776.7" stroke="black" stroke-width="2" stroke-miterlimit="10" stroke-linecap="round"/>
<path d="M2222.44 2710.28L2223.15 2776.81" stroke="black" stroke-width="2" stroke-miterlimit="10" stroke-linecap="round"/>
<path d="M2159.4 2713.17L2160.11 2779.7" stroke="black" stroke-width="2" stroke-miterlimit="10" stroke-linecap="round"/>
<path d="M2149.36 2713.28L2150.07 2779.8" stroke="black" stroke-width="2" stroke-miterlimit="10" stroke-linecap="round"/>
<path d="M2139.31 2713.39L2140.03 2779.91" stroke="black" stroke-width="2" stroke-miterlimit="10" stroke-linecap="round"/>
<path d="M2129.27 2713.49L2129.98 2780.02" stroke="black" stroke-width="2" stroke-miterlimit="10" stroke-linecap="round"/>
<path d="M2119.23 2713.6L2119.94 2780.13" stroke="black" stroke-width="2" stroke-miterlimit="10" stroke-linecap="round"/>
<path d="M2109.19 2713.71L2109.9 2780.23" stroke="black" stroke-width="2" stroke-miterlimit="10" stroke-linecap="round"/>
<path d="M2099.15 2713.82L2099.86 2780.34" stroke="black" stroke-width="2" stroke-miterlimit="10" stroke-linecap="round"/>
<path d="M2089.11 2713.92L2089.82 2780.45" stroke="black" stroke-width="2" stroke-miterlimit="10" stroke-linecap="round"/>
<path d="M2079.06 2714.03L2079.77 2780.55" stroke="black" stroke-width="2" stroke-miterlimit="10" stroke-linecap="round"/>
<path d="M2069.02 2714.14L2069.73 2780.66" stroke="black" stroke-width="2" stroke-miterlimit="10" stroke-linecap="round"/>
<path d="M2058.98 2714.25L2059.69 2780.77" stroke="black" stroke-width="2" stroke-miterlimit="10" stroke-linecap="round"/>
<path d="M1022.03 1979.66C1023.86 1981.08 1024.19 1983.75 1022.79 1985.74L922.779 2127.71C921.879 2128.99 920.469 2129.7 919.049 2129.73C918.169 2129.75 917.299 2129.5 916.549 2128.99C914.569 2127.62 914.139 2124.83 915.599 2122.76L928.219 2104.86L940.779 2087.01L1015.13 1981.46L1015.59 1980.8C1017.11 1978.65 1020.04 1978.13 1022.01 1979.67L1022.03 1979.66Z" stroke="black" stroke-width="4" stroke-miterlimit="10"/>
<path d="M994.18 1957.96C996 1959.38 996.33 1962.05 994.93 1964.04L993.93 1965.46L987.08 1975.19L979.32 1986.22L972.15 1996.41L964.71 2006.96L958.16 2016.26L951.59 2025.6L944.83 2035.2L939.13 2043.3L932.6 2052.57L926.07 2061.85L919.6 2071.03L913.32 2079.93L907.02 2088.87L895.27 2105.55C894.37 2106.83 892.95 2107.54 891.54 2107.57C890.66 2107.59 889.79 2107.34 889.04 2106.83C887.05 2105.46 886.63 2102.67 888.08 2100.61L900.05 2083.62L906.35 2074.69L912.63 2065.77L919.09 2056.6L925.62 2047.32L932.14 2038.06L937.84 2029.95L944.61 2020.34L951.18 2011.01L957.71 2001.72L965.15 1991.15L972.33 1980.98L980.09 1969.95L986.94 1960.23L987.73 1959.1C989.25 1956.95 992.18 1956.43 994.15 1957.97L994.18 1957.96Z" stroke="black" stroke-width="4" stroke-miterlimit="10"/>
<path d="M1015.65 1981.82L993.93 1965.46" stroke="black" stroke-width="4" stroke-miterlimit="10"/>
<path d="M986.958 1960.22L968.398 1946.23" stroke="black" stroke-width="4" stroke-miterlimit="10"/>
<path d="M1008.25 1991.13L987.078 1975.19" stroke="black" stroke-width="4" stroke-miterlimit="10"/>
<path d="M980.11 1969.93L961.01 1955.55" stroke="black" stroke-width="4" stroke-miterlimit="10"/>
<path d="M1000.41 2002.1L979.309 1986.22" stroke="black" stroke-width="4" stroke-miterlimit="10"/>
<path d="M972.34 1980.96L953.16 1966.52" stroke="black" stroke-width="4" stroke-miterlimit="10"/>
<path d="M992.939 2012.07L972.129 1996.4" stroke="black" stroke-width="4" stroke-miterlimit="10"/>
<path d="M965.169 1991.15L945.699 1976.49" stroke="black" stroke-width="4" stroke-miterlimit="10"/>
<path d="M985.039 2022.28L964.689 2006.96" stroke="black" stroke-width="4" stroke-miterlimit="10"/>
<path d="M957.729 2001.71L937.789 1986.7" stroke="black" stroke-width="4" stroke-miterlimit="10"/>
<path d="M979.018 2031.97L958.148 2016.25" stroke="black" stroke-width="4" stroke-miterlimit="10"/>
<path d="M951.18 2011L931.77 1996.38" stroke="black" stroke-width="4" stroke-miterlimit="10"/>
<path d="M971.918 2040.9L951.578 2025.58" stroke="black" stroke-width="4" stroke-miterlimit="10"/>
<path d="M944.608 2020.33L924.668 2005.32" stroke="black" stroke-width="4" stroke-miterlimit="10"/>
<path d="M965.109 2050.48L944.809 2035.19" stroke="black" stroke-width="4" stroke-miterlimit="10"/>
<path d="M937.839 2029.94L917.869 2014.9" stroke="black" stroke-width="4" stroke-miterlimit="10"/>
<path d="M959.71 2058.81L939.1 2043.28" stroke="black" stroke-width="4" stroke-miterlimit="10"/>
<path d="M932.129 2038.04L912.459 2023.22" stroke="black" stroke-width="4" stroke-miterlimit="10"/>
<path d="M952.528 2067.59L932.578 2052.56" stroke="black" stroke-width="4" stroke-miterlimit="10"/>
<path d="M925.609 2047.31L905.289 2032.01" stroke="black" stroke-width="4" stroke-miterlimit="10"/>
<path d="M946.579 2077.3L926.039 2061.83" stroke="black" stroke-width="4" stroke-miterlimit="10"/>
<path d="M919.07 2056.59L899.34 2041.73" stroke="black" stroke-width="4" stroke-miterlimit="10"/>
<path d="M941.37 2087.43L919.57 2071.01" stroke="black" stroke-width="4" stroke-miterlimit="10"/>
<path d="M912.599 2065.76L894.129 2051.85" stroke="black" stroke-width="4" stroke-miterlimit="10"/>
<path d="M934.361 2095.79L913.301 2079.92" stroke="black" stroke-width="4" stroke-miterlimit="10"/>
<path d="M906.329 2074.68L887.119 2060.21" stroke="black" stroke-width="4" stroke-miterlimit="10"/>
<path d="M928.348 2104.95L906.988 2088.86" stroke="black" stroke-width="4" stroke-miterlimit="10"/>
<path d="M900.029 2083.61L881.109 2069.36" stroke="black" stroke-width="4" stroke-miterlimit="10"/>
<path d="M968.46 1937.92C970.28 1939.34 970.61 1942.01 969.21 1943.99L961.06 1955.57L953.28 1966.61L946.12 1976.8L938.66 1987.36L932.13 1996.63L925.56 2005.98L918.8 2015.59L913.09 2023.69L906.56 2032.96L900.02 2042.24L887.27 2060.32L869.26 2085.89C868.36 2087.17 866.94 2087.88 865.52 2087.91C864.65 2087.92 863.78 2087.68 863.03 2087.16C861.04 2085.8 860.62 2083.01 862.08 2080.95L962.04 1939.05C963.56 1936.9 966.5 1936.38 968.47 1937.92H968.46Z" stroke="black" stroke-width="4" stroke-miterlimit="10"/>
<path d="M1102.12 3695.57C1100.8 3697.47 1098.15 3697.93 1096.09 3696.64L949.17 3604.06C947.84 3603.23 947.07 3601.86 946.96 3600.44C946.9 3599.57 947.1 3598.68 947.57 3597.9C948.84 3595.85 951.6 3595.28 953.74 3596.63L972.27 3608.31L990.74 3619.94L1099.97 3688.77L1100.64 3689.2C1102.87 3690.6 1103.53 3693.51 1102.1 3695.56L1102.12 3695.57Z" stroke="black" stroke-width="4" stroke-miterlimit="10"/>
<path d="M1122.36 3666.64C1121.03 3668.53 1118.39 3669 1116.33 3667.7L1114.86 3666.77L1104.79 3660.43L1093.37 3653.25L1082.84 3646.6L1071.93 3639.71L1062.32 3633.64L1052.66 3627.56L1042.73 3621.3L1034.36 3616.01L1024.77 3609.97L1015.17 3603.92L1005.67 3597.93L996.459 3592.11L987.199 3586.28L969.939 3575.41C968.619 3574.57 967.829 3573.2 967.729 3571.79C967.669 3570.92 967.869 3570.03 968.339 3569.26C969.609 3567.21 972.369 3566.64 974.499 3567.98L992.089 3579.06L1001.33 3584.89L1010.56 3590.7L1020.05 3596.68L1029.65 3602.73L1039.23 3608.78L1047.62 3614.06L1057.56 3620.33L1067.22 3626.41L1076.83 3632.46L1087.76 3639.36L1098.29 3646.01L1109.71 3653.19L1119.77 3659.53L1120.93 3660.27C1123.16 3661.67 1123.82 3664.58 1122.39 3666.63L1122.36 3666.64Z" stroke="black" stroke-width="4" stroke-miterlimit="10"/>
<path d="M1099.64 3689.31L1114.86 3666.78" stroke="black" stroke-width="4" stroke-miterlimit="10"/>
<path d="M1119.73 3659.55L1132.74 3640.29" stroke="black" stroke-width="4" stroke-miterlimit="10"/>
<path d="M1089.95 3682.4L1104.79 3660.44" stroke="black" stroke-width="4" stroke-miterlimit="10"/>
<path d="M1109.67 3653.21L1123.06 3633.39" stroke="black" stroke-width="4" stroke-miterlimit="10"/>
<path d="M1078.59 3675.13L1093.37 3653.25" stroke="black" stroke-width="4" stroke-miterlimit="10"/>
<path d="M1098.26 3646.02L1111.69 3626.12" stroke="black" stroke-width="4" stroke-miterlimit="10"/>
<path d="M1068.26 3668.19L1082.83 3646.6" stroke="black" stroke-width="4" stroke-miterlimit="10"/>
<path d="M1087.72 3639.37L1101.36 3619.18" stroke="black" stroke-width="4" stroke-miterlimit="10"/>
<path d="M1057.65 3660.83L1071.91 3639.72" stroke="black" stroke-width="4" stroke-miterlimit="10"/>
<path d="M1076.79 3632.49L1090.75 3611.81" stroke="black" stroke-width="4" stroke-miterlimit="10"/>
<path d="M1047.67 3655.31L1062.29 3633.66" stroke="black" stroke-width="4" stroke-miterlimit="10"/>
<path d="M1067.18 3626.43L1080.78 3606.29" stroke="black" stroke-width="4" stroke-miterlimit="10"/>
<path d="M1038.38 3648.67L1052.63 3627.57" stroke="black" stroke-width="4" stroke-miterlimit="10"/>
<path d="M1057.52 3620.34L1071.48 3599.66" stroke="black" stroke-width="4" stroke-miterlimit="10"/>
<path d="M1028.47 3642.37L1042.69 3621.31" stroke="black" stroke-width="4" stroke-miterlimit="10"/>
<path d="M1047.57 3614.08L1061.57 3593.36" stroke="black" stroke-width="4" stroke-miterlimit="10"/>
<path d="M1019.87 3637.41L1034.31 3616.03" stroke="black" stroke-width="4" stroke-miterlimit="10"/>
<path d="M1039.19 3608.8L1052.97 3588.39" stroke="black" stroke-width="4" stroke-miterlimit="10"/>
<path d="M1010.73 3630.69L1024.71 3609.99" stroke="black" stroke-width="4" stroke-miterlimit="10"/>
<path d="M1029.6 3602.76L1043.83 3581.68" stroke="black" stroke-width="4" stroke-miterlimit="10"/>
<path d="M1000.72 3625.24L1015.12 3603.94" stroke="black" stroke-width="4" stroke-miterlimit="10"/>
<path d="M1019.99 3596.71L1033.82 3576.24" stroke="black" stroke-width="4" stroke-miterlimit="10"/>
<path d="M990.34 3620.56L1005.61 3597.95" stroke="black" stroke-width="4" stroke-miterlimit="10"/>
<path d="M1010.5 3590.72L1023.45 3571.56" stroke="black" stroke-width="4" stroke-miterlimit="10"/>
<path d="M981.629 3613.99L996.389 3592.14" stroke="black" stroke-width="4" stroke-miterlimit="10"/>
<path d="M1001.27 3584.91L1014.73 3564.98" stroke="black" stroke-width="4" stroke-miterlimit="10"/>
<path d="M972.18 3608.46L987.14 3586.31" stroke="black" stroke-width="4" stroke-miterlimit="10"/>
<path d="M992.029 3579.08L1005.29 3559.45" stroke="black" stroke-width="4" stroke-miterlimit="10"/>
<path d="M1141.04 3639.92C1139.71 3641.81 1137.07 3642.28 1135.01 3640.98L1123.03 3633.44L1111.61 3626.23L1101.07 3619.6L1090.14 3612.7L1080.54 3606.65L1070.88 3600.57L1060.95 3594.3L1052.57 3589.01L1042.98 3582.97L1033.37 3576.92L1014.65 3565.12L988.179 3548.45C986.859 3547.61 986.079 3546.23 985.969 3544.82C985.909 3543.95 986.109 3543.07 986.589 3542.29C987.849 3540.24 990.609 3539.67 992.749 3541.02L1139.6 3633.55C1141.83 3634.95 1142.5 3637.86 1141.06 3639.91L1141.04 3639.92Z" stroke="black" stroke-width="4" stroke-miterlimit="10"/>
<path d="M3582.4 2324.12C3580.82 2325.81 3578.13 2325.9 3576.28 2324.33L3443.82 2212.03C3442.62 2211.02 3442.05 2209.55 3442.14 2208.13C3442.2 2207.26 3442.52 2206.41 3443.1 2205.71C3444.64 2203.86 3447.46 2203.68 3449.39 2205.32L3466.1 2219.49L3482.75 2233.61L3581.22 2317.11L3581.83 2317.63C3583.84 2319.33 3584.09 2322.3 3582.38 2324.13L3582.4 2324.12Z" stroke="black" stroke-width="4" stroke-miterlimit="10"/>
<path d="M3606.5 2298.32C3604.92 2300.01 3602.24 2300.1 3600.38 2298.52L3599.06 2297.4L3589.98 2289.71L3579.69 2280.99L3570.19 2272.93L3560.35 2264.57L3551.68 2257.21L3542.97 2249.83L3534.01 2242.24L3526.46 2235.83L3517.81 2228.5L3509.16 2221.16L3500.59 2213.9L3492.29 2206.85L3483.94 2199.78L3468.38 2186.59C3467.19 2185.57 3466.6 2184.1 3466.7 2182.69C3466.76 2181.82 3467.08 2180.97 3467.66 2180.27C3469.21 2178.42 3472.02 2178.24 3473.94 2179.87L3489.8 2193.31L3498.13 2200.38L3506.45 2207.43L3515.01 2214.69L3523.66 2222.02L3532.29 2229.35L3539.85 2235.76L3548.81 2243.37L3557.52 2250.75L3566.19 2258.09L3576.04 2266.45L3585.53 2274.51L3595.82 2283.23L3604.89 2290.92L3605.94 2291.82C3607.95 2293.52 3608.2 2296.49 3606.49 2298.32H3606.5Z" stroke="black" stroke-width="4" stroke-miterlimit="10"/>
<path d="M3580.82 2317.56L3599.06 2297.4" stroke="black" stroke-width="4" stroke-miterlimit="10"/>
<path d="M3604.9 2290.93L3620.49 2273.68" stroke="black" stroke-width="4" stroke-miterlimit="10"/>
<path d="M3572.2 2309.37L3589.98 2289.7" stroke="black" stroke-width="4" stroke-miterlimit="10"/>
<path d="M3595.83 2283.23L3611.87 2265.49" stroke="black" stroke-width="4" stroke-miterlimit="10"/>
<path d="M3561.98 2300.57L3579.69 2280.98" stroke="black" stroke-width="4" stroke-miterlimit="10"/>
<path d="M3585.54 2274.51L3601.64 2256.69" stroke="black" stroke-width="4" stroke-miterlimit="10"/>
<path d="M3552.72 2292.25L3570.19 2272.92" stroke="black" stroke-width="4" stroke-miterlimit="10"/>
<path d="M3576.04 2266.45L3592.38 2248.38" stroke="black" stroke-width="4" stroke-miterlimit="10"/>
<path d="M3543.26 2283.46L3560.34 2264.57" stroke="black" stroke-width="4" stroke-miterlimit="10"/>
<path d="M3566.18 2258.09L3582.91 2239.59" stroke="black" stroke-width="4" stroke-miterlimit="10"/>
<path d="M3534.15 2276.6L3551.67 2257.22" stroke="black" stroke-width="4" stroke-miterlimit="10"/>
<path d="M3557.52 2250.75L3573.82 2232.72" stroke="black" stroke-width="4" stroke-miterlimit="10"/>
<path d="M3525.88 2268.73L3542.96 2249.84" stroke="black" stroke-width="4" stroke-miterlimit="10"/>
<path d="M3548.81 2243.37L3565.54 2224.85" stroke="black" stroke-width="4" stroke-miterlimit="10"/>
<path d="M3516.96 2261.09L3534 2242.24" stroke="black" stroke-width="4" stroke-miterlimit="10"/>
<path d="M3539.84 2235.76L3556.61 2217.22" stroke="black" stroke-width="4" stroke-miterlimit="10"/>
<path d="M3509.14 2254.97L3526.44 2235.83" stroke="black" stroke-width="4" stroke-miterlimit="10"/>
<path d="M3532.29 2229.36L3548.8 2211.09" stroke="black" stroke-width="4" stroke-miterlimit="10"/>
<path d="M3501.04 2247.03L3517.79 2228.5" stroke="black" stroke-width="4" stroke-miterlimit="10"/>
<path d="M3523.64 2222.03L3540.7 2203.16" stroke="black" stroke-width="4" stroke-miterlimit="10"/>
<path d="M3491.89 2240.24L3509.14 2221.16" stroke="black" stroke-width="4" stroke-miterlimit="10"/>
<path d="M3514.98 2214.69L3531.55 2196.37" stroke="black" stroke-width="4" stroke-miterlimit="10"/>
<path d="M3482.27 2234.14L3500.57 2213.9" stroke="black" stroke-width="4" stroke-miterlimit="10"/>
<path d="M3506.42 2207.43L3521.94 2190.27" stroke="black" stroke-width="4" stroke-miterlimit="10"/>
<path d="M3474.57 2226.41L3492.26 2206.85" stroke="black" stroke-width="4" stroke-miterlimit="10"/>
<path d="M3498.1 2200.38L3514.23 2182.54" stroke="black" stroke-width="4" stroke-miterlimit="10"/>
<path d="M3465.99 2219.61L3483.92 2199.78" stroke="black" stroke-width="4" stroke-miterlimit="10"/>
<path d="M3489.77 2193.31L3505.66 2175.74" stroke="black" stroke-width="4" stroke-miterlimit="10"/>
<path d="M3628.76 2274.49C3627.18 2276.18 3624.5 2276.27 3622.64 2274.7L3611.84 2265.55L3601.55 2256.81L3592.05 2248.76L3582.2 2240.39L3573.55 2233.05L3564.84 2225.67L3555.88 2218.07L3548.32 2211.66L3539.67 2204.33L3531.01 2196.99L3514.14 2182.67L3490.28 2162.45C3489.09 2161.44 3488.51 2159.96 3488.6 2158.55C3488.67 2157.68 3488.98 2156.84 3489.57 2156.13C3491.1 2154.27 3493.92 2154.1 3495.84 2155.74L3628.23 2267.99C3630.24 2269.69 3630.49 2272.67 3628.78 2274.49H3628.76Z" stroke="black" stroke-width="4" stroke-miterlimit="10"/>
<path d="M1070.21 2555.74C1070.34 2553.43 1072.34 2551.64 1074.78 2551.66L1248.43 2553.13C1250 2553.14 1251.38 2553.9 1252.22 2555.05C1252.73 2555.75 1253.03 2556.61 1253.04 2557.53C1253.04 2559.94 1250.99 2561.87 1248.45 2561.85L1226.55 2561.67L1226.54 2561.67L1204.71 2561.49L1204.7 2561.49L1075.6 2560.4L1075.59 2560.39L1074.8 2560.39C1072.17 2560.37 1070.07 2558.25 1070.22 2555.75L1070.21 2555.74Z" stroke="black" stroke-width="4" stroke-miterlimit="10"/>
<path d="M1068.22 2590.98C1068.35 2588.67 1070.35 2586.88 1072.79 2586.91L1074.52 2586.93L1086.43 2587.03L1099.92 2587.13L1099.93 2587.13L1112.38 2587.24L1125.29 2587.36L1125.3 2587.36L1136.66 2587.46L1148.08 2587.54L1159.82 2587.64L1159.82 2587.64L1169.72 2587.73L1181.06 2587.83L1181.07 2587.83L1192.41 2587.93L1203.65 2588.03L1214.54 2588.12L1225.47 2588.21L1245.88 2588.39C1247.44 2588.41 1248.83 2589.16 1249.66 2590.31C1250.17 2591.01 1250.47 2591.87 1250.48 2592.79C1250.48 2595.21 1248.44 2597.14 1245.91 2597.12L1225.12 2596.94L1214.2 2596.84L1203.3 2596.75L1192.07 2596.65L1180.73 2596.55L1180.72 2596.55L1169.4 2596.45L1159.48 2596.37L1159.47 2596.37L1147.73 2596.26L1136.31 2596.17L1124.96 2596.08L1124.95 2596.08L1112.03 2595.97L1099.58 2595.85L1086.09 2595.75L1074.19 2595.65L1074.18 2595.65L1072.81 2595.64C1070.18 2595.62 1068.08 2593.5 1068.23 2591L1068.22 2590.98Z" stroke="black" stroke-width="4" stroke-miterlimit="10"/>
<path d="M1075.62 2559.76L1074.52 2586.92" stroke="black" stroke-width="4" stroke-miterlimit="10"/>
<path d="M1074.17 2595.63L1073.24 2618.86" stroke="black" stroke-width="4" stroke-miterlimit="10"/>
<path d="M1087.49 2560.54L1086.42 2587.03" stroke="black" stroke-width="4" stroke-miterlimit="10"/>
<path d="M1086.07 2595.74L1085.11 2619.64" stroke="black" stroke-width="4" stroke-miterlimit="10"/>
<path d="M1100.97 2560.74L1099.91 2587.13" stroke="black" stroke-width="4" stroke-miterlimit="10"/>
<path d="M1099.56 2595.85L1098.6 2619.84" stroke="black" stroke-width="4" stroke-miterlimit="10"/>
<path d="M1113.42 2561.22L1112.37 2587.24" stroke="black" stroke-width="4" stroke-miterlimit="10"/>
<path d="M1112.02 2595.96L1111.04 2620.3" stroke="black" stroke-width="4" stroke-miterlimit="10"/>
<path d="M1126.31 2561.9L1125.29 2587.36" stroke="black" stroke-width="4" stroke-miterlimit="10"/>
<path d="M1124.94 2596.07L1123.94 2621" stroke="black" stroke-width="4" stroke-miterlimit="10"/>
<path d="M1137.7 2561.34L1136.65 2587.45" stroke="black" stroke-width="4" stroke-miterlimit="10"/>
<path d="M1136.29 2596.17L1135.32 2620.45" stroke="black" stroke-width="4" stroke-miterlimit="10"/>
<path d="M1149.08 2562.1L1148.07 2587.54" stroke="black" stroke-width="4" stroke-miterlimit="10"/>
<path d="M1147.72 2596.26L1146.72 2621.2" stroke="black" stroke-width="4" stroke-miterlimit="10"/>
<path d="M1160.84 2562.25L1159.81 2587.64" stroke="black" stroke-width="4" stroke-miterlimit="10"/>
<path d="M1159.46 2596.35L1158.46 2621.34" stroke="black" stroke-width="4" stroke-miterlimit="10"/>
<path d="M1170.76 2561.95L1169.72 2587.72" stroke="black" stroke-width="4" stroke-miterlimit="10"/>
<path d="M1169.38 2596.44L1168.38 2621.04" stroke="black" stroke-width="4" stroke-miterlimit="10"/>
<path d="M1182.06 2562.85L1181.06 2587.82" stroke="black" stroke-width="4" stroke-miterlimit="10"/>
<path d="M1180.71 2596.53L1179.69 2621.95" stroke="black" stroke-width="4" stroke-miterlimit="10"/>
<path d="M1193.44 2562.22L1192.4 2587.92" stroke="black" stroke-width="4" stroke-miterlimit="10"/>
<path d="M1192.06 2596.63L1191.06 2621.31" stroke="black" stroke-width="4" stroke-miterlimit="10"/>
<path d="M1204.73 2560.74L1203.64 2588.02" stroke="black" stroke-width="4" stroke-miterlimit="10"/>
<path d="M1203.29 2596.73L1202.35 2619.83" stroke="black" stroke-width="4" stroke-miterlimit="10"/>
<path d="M1215.6 2561.76L1214.53 2588.1" stroke="black" stroke-width="4" stroke-miterlimit="10"/>
<path d="M1214.19 2596.82L1213.22 2620.84" stroke="black" stroke-width="4" stroke-miterlimit="10"/>
<path d="M1226.54 2561.49L1225.48 2588.21" stroke="black" stroke-width="4" stroke-miterlimit="10"/>
<path d="M1225.12 2596.91L1224.17 2620.57" stroke="black" stroke-width="4" stroke-miterlimit="10"/>
<path d="M1066.38 2623.54C1066.51 2621.24 1068.51 2619.45 1070.94 2619.46L1085.1 2619.58L1098.61 2619.69L1111.05 2619.78L1123.98 2619.91L1135.33 2620.01L1135.34 2620.01L1146.75 2620.09L1146.76 2620.09L1158.5 2620.19L1168.41 2620.28L1179.74 2620.38L1191.1 2620.48L1213.22 2620.67L1244.5 2620.93C1246.06 2620.95 1247.45 2621.71 1248.29 2622.86C1248.79 2623.57 1249.08 2624.42 1249.09 2625.34C1249.1 2627.75 1247.06 2629.68 1244.52 2629.66L1070.96 2628.2C1068.32 2628.18 1066.23 2626.05 1066.38 2623.55L1066.38 2623.54Z" stroke="black" stroke-width="4" stroke-miterlimit="10"/>
<circle cx="2338.12" cy="2238.5" r="55" fill="#4378BC" stroke="#FFF8F1" stroke-width="7"/>
<path d="M2358.95 2217.32H2314.49C2313.26 2217.32 2312.27 2218.32 2312.27 2219.55V2264.01C2312.27 2265.23 2313.26 2266.23 2314.49 2266.23H2358.95C2360.18 2266.23 2361.17 2265.23 2361.17 2264.01V2219.55C2361.17 2218.32 2360.18 2217.32 2358.95 2217.32Z" stroke="#FFF8F1" stroke-width="4.446" stroke-linecap="round" stroke-linejoin="round"/>
<path d="M2352.28 2266.23V2235.11H2321.16V2266.23" stroke="#FFF8F1" stroke-width="4.446" stroke-linecap="round" stroke-linejoin="round"/>
<path d="M2336.72 2266.23V2235.11" stroke="#FFF8F1" stroke-width="4.446" stroke-linecap="round" stroke-linejoin="round"/>
<path d="M2332.27 2226.21H2341.16" stroke="#FFF8F1" stroke-width="4.446" stroke-linecap="round" stroke-linejoin="round"/>
<circle cx="803.121" cy="2665.5" r="55" fill="#25A519" stroke="white" stroke-width="7"/>
<path d="M832.32 2666.89L820.873 2680.89C820.464 2681.39 819.909 2681.67 819.331 2681.67C818.753 2681.67 818.198 2681.39 817.789 2680.89C817.38 2680.39 817.15 2679.71 817.151 2679C817.151 2678.29 817.38 2677.61 817.789 2677.11L825.514 2667.67H800.245C799.666 2667.67 799.112 2667.39 798.703 2666.89C798.294 2666.39 798.064 2665.71 798.064 2665C798.064 2664.29 798.294 2663.61 798.703 2663.11C799.112 2662.61 799.666 2662.33 800.245 2662.33H825.514L817.789 2652.89C817.38 2652.39 817.151 2651.71 817.151 2651C817.15 2650.29 817.38 2649.61 817.789 2649.11C818.198 2648.61 818.753 2648.33 819.331 2648.33C819.909 2648.33 820.464 2648.61 820.873 2649.11L832.32 2663.11C832.729 2663.61 832.958 2664.29 832.958 2665C832.958 2665.71 832.729 2666.39 832.32 2666.89ZM804.605 2691.67H784.982V2638.33H804.605C805.184 2638.33 805.738 2638.05 806.147 2637.55C806.556 2637.05 806.786 2636.37 806.786 2635.67C806.786 2634.96 806.556 2634.28 806.147 2633.78C805.738 2633.28 805.184 2633 804.605 2633H784.982C783.826 2633 782.717 2633.56 781.9 2634.56C781.082 2635.56 780.622 2636.92 780.621 2638.33V2691.67C780.622 2693.08 781.082 2694.44 781.9 2695.44C782.717 2696.44 783.826 2697 784.982 2697H804.605C805.184 2697 805.738 2696.72 806.147 2696.22C806.556 2695.72 806.786 2695.04 806.786 2694.33C806.786 2693.63 806.556 2692.95 806.147 2692.45C805.738 2691.95 805.184 2691.67 804.605 2691.67Z" fill="#FFF8F1"/>
<g clip-path="url(#clip0_1810_19268)">
<circle cx="1550.12" cy="2526.5" r="55" fill="#DDAF0C" stroke="#FFF8F1" stroke-width="7"/>
<path d="M1549.62 2510.5V2515.5" stroke="#FFF8F1" stroke-width="5" stroke-linecap="round" stroke-linejoin="round"/>
<path d="M1549.62 2540.5V2545.5" stroke="#FFF8F1" stroke-width="5" stroke-linecap="round" stroke-linejoin="round"/>
<path d="M1549.62 2558C1566.19 2558 1579.62 2544.57 1579.62 2528C1579.62 2511.43 1566.19 2498 1549.62 2498C1533.05 2498 1519.62 2511.43 1519.62 2528C1519.62 2544.57 1533.05 2558 1549.62 2558Z" stroke="#FFF8F1" stroke-width="5" stroke-linecap="round" stroke-linejoin="round"/>
<path d="M1542.12 2540.5H1553.37C1555.03 2540.5 1556.62 2539.84 1557.79 2538.67C1558.96 2537.5 1559.62 2535.91 1559.62 2534.25C1559.62 2532.59 1558.96 2531 1557.79 2529.83C1556.62 2528.66 1555.03 2528 1553.37 2528H1545.87C1544.21 2528 1542.62 2527.34 1541.45 2526.17C1540.28 2525 1539.62 2523.41 1539.62 2521.75C1539.62 2520.09 1540.28 2518.5 1541.45 2517.33C1542.62 2516.16 1544.21 2515.5 1545.87 2515.5H1557.12" stroke="#FFF8F1" stroke-width="5" stroke-linecap="round" stroke-linejoin="round"/>
</g>
<circle cx="803.121" cy="2526.5" r="55" fill="#1C18E3" stroke="white" stroke-width="7"/>
<path d="M821.05 2494H786.764C784.34 2494 782.016 2494.97 780.302 2496.68C778.588 2498.4 777.624 2500.72 777.621 2503.14V2539.71C777.624 2542.14 778.588 2544.46 780.302 2546.18C782.016 2547.89 784.34 2548.85 786.764 2548.86H790.193L786.078 2554.34C785.714 2554.83 785.558 2555.44 785.644 2556.04C785.73 2556.64 786.051 2557.18 786.536 2557.54C787.021 2557.91 787.63 2558.06 788.23 2557.98C788.83 2557.89 789.372 2557.57 789.736 2557.09L795.907 2548.86H811.907L818.079 2557.09C818.442 2557.57 818.984 2557.89 819.584 2557.98C820.184 2558.06 820.794 2557.91 821.279 2557.54C821.764 2557.18 822.084 2556.64 822.17 2556.04C822.256 2555.44 822.1 2554.83 821.736 2554.34L817.622 2548.86H821.05C823.474 2548.85 825.798 2547.89 827.512 2546.18C829.226 2544.46 830.19 2542.14 830.193 2539.71V2503.14C830.19 2500.72 829.226 2498.4 827.512 2496.68C825.798 2494.97 823.474 2494 821.05 2494ZM791.336 2539.71C790.657 2539.71 789.995 2539.51 789.431 2539.14C788.867 2538.76 788.427 2538.22 788.168 2537.6C787.908 2536.97 787.84 2536.28 787.973 2535.62C788.105 2534.95 788.432 2534.34 788.911 2533.86C789.391 2533.38 790.002 2533.06 790.667 2532.92C791.332 2532.79 792.021 2532.86 792.648 2533.12C793.274 2533.38 793.81 2533.82 794.186 2534.38C794.563 2534.95 794.764 2535.61 794.764 2536.29C794.764 2537.2 794.403 2538.07 793.76 2538.71C793.117 2539.35 792.245 2539.71 791.336 2539.71ZM801.621 2521.43H782.193V2510H801.621V2521.43ZM816.479 2539.71C815.801 2539.71 815.138 2539.51 814.574 2539.14C814.01 2538.76 813.571 2538.22 813.311 2537.6C813.052 2536.97 812.984 2536.28 813.116 2535.62C813.248 2534.95 813.575 2534.34 814.054 2533.86C814.534 2533.38 815.145 2533.06 815.81 2532.92C816.475 2532.79 817.164 2532.86 817.791 2533.12C818.417 2533.38 818.953 2533.82 819.329 2534.38C819.706 2534.95 819.907 2535.61 819.907 2536.29C819.907 2537.2 819.546 2538.07 818.903 2538.71C818.26 2539.35 817.388 2539.71 816.479 2539.71ZM825.622 2521.43H806.193V2510H825.622V2521.43Z" fill="#FFF8F1"/>
<path d="M1342.81 2797.69C1342.81 2801.58 1341.65 2805.39 1339.49 2808.63C1337.33 2811.86 1334.25 2814.39 1330.66 2815.88C1327.06 2817.37 1323.1 2817.76 1319.28 2817C1315.46 2816.24 1311.95 2814.36 1309.2 2811.61C1306.45 2808.86 1304.57 2805.35 1303.81 2801.53C1303.05 2797.71 1303.44 2793.75 1304.93 2790.15C1306.42 2786.56 1308.95 2783.48 1312.18 2781.32C1315.42 2779.15 1319.23 2778 1323.12 2778C1328.34 2778 1333.35 2780.07 1337.04 2783.77C1340.73 2787.46 1342.81 2792.47 1342.81 2797.69Z" fill="#F53026"/>
<rect x="1146.62" y="2832.19" width="354" height="112" rx="30" fill="#FF665E"/>
<path d="M1196.1 2866.36H1179.72V2877.84H1196.1V2885.67H1179.72V2897.36H1196.1V2905.19H1170.15V2858.53H1196.1V2866.36ZM1226 2882.15H1217.6C1217.62 2881.99 1217.63 2881.8 1217.63 2881.57C1217.63 2880.89 1217.4 2880.26 1216.95 2879.69C1216.15 2878.73 1215.02 2878.25 1213.56 2878.25C1212.47 2878.25 1211.59 2878.53 1210.93 2879.07C1210.29 2879.62 1209.97 2880.33 1209.97 2881.19C1209.97 2882.08 1210.28 2882.77 1210.9 2883.24C1211.56 2883.77 1212.49 2884.22 1213.7 2884.61L1216.37 2885.43C1219.92 2886.53 1222.4 2887.76 1223.82 2889.12C1225.62 2890.85 1226.52 2893.09 1226.52 2895.82C1226.52 2899.24 1225.16 2901.94 1222.45 2903.92C1220.28 2905.52 1217.44 2906.32 1213.9 2906.32C1209.16 2906.32 1205.64 2904.86 1203.34 2901.94C1202 2900.28 1201.28 2898.19 1201.19 2895.69H1209.73C1210.12 2898.4 1211.53 2899.75 1213.97 2899.75C1215.02 2899.75 1215.85 2899.48 1216.47 2898.93C1217.17 2898.29 1217.53 2897.54 1217.53 2896.68C1217.53 2895.61 1216.97 2894.72 1215.85 2894.01C1215.24 2893.6 1213.79 2893.05 1211.51 2892.37C1208.07 2891.3 1205.56 2889.98 1203.99 2888.41C1202.26 2886.7 1201.39 2884.55 1201.39 2881.98C1201.39 2878.47 1202.82 2875.77 1205.67 2873.88C1207.9 2872.42 1210.66 2871.69 1213.94 2871.69C1218.54 2871.69 1221.96 2873.18 1224.19 2876.17C1225.33 2877.72 1225.94 2879.71 1226 2882.15ZM1246.55 2880.13H1242.48V2895.65C1242.48 2896.47 1242.67 2897.02 1243.06 2897.29C1243.49 2897.59 1244.14 2897.74 1245.01 2897.74H1246.55V2905.19H1239.44C1237.36 2905.19 1235.82 2904.67 1234.82 2903.65C1233.98 2902.78 1233.56 2901.23 1233.56 2899V2880.13H1229.87V2872.65H1233.56V2863.97H1242.48V2872.65H1246.55V2880.13ZM1277.82 2876.92V2872.82H1286.74V2905.19H1277.82V2900.74C1274.88 2904.46 1271.13 2906.32 1266.58 2906.32C1261.63 2906.32 1257.65 2904.48 1254.65 2900.81C1252.16 2897.78 1250.92 2893.98 1250.92 2889.4C1250.92 2885.98 1251.71 2882.81 1253.28 2879.89C1254.6 2877.43 1256.48 2875.46 1258.92 2873.98C1261.38 2872.48 1264.15 2871.73 1267.22 2871.73C1269.75 2871.73 1272.03 2872.33 1274.06 2873.54C1275.29 2874.27 1276.54 2875.39 1277.82 2876.92ZM1269.07 2879.25C1266.27 2879.25 1264.08 2880.33 1262.51 2882.49C1261.12 2884.43 1260.42 2886.68 1260.42 2889.26C1260.42 2892.34 1261.37 2894.82 1263.26 2896.71C1264.88 2898.33 1266.79 2899.14 1269 2899.14C1271.69 2899.14 1273.91 2898.02 1275.67 2895.79C1277.19 2893.85 1277.96 2891.58 1277.96 2888.99C1277.96 2886.41 1277.27 2884.24 1275.91 2882.46C1274.24 2880.32 1271.96 2879.25 1269.07 2879.25ZM1317.81 2882.15H1309.4C1309.43 2881.99 1309.44 2881.8 1309.44 2881.57C1309.44 2880.89 1309.21 2880.26 1308.75 2879.69C1307.96 2878.73 1306.83 2878.25 1305.37 2878.25C1304.28 2878.25 1303.4 2878.53 1302.74 2879.07C1302.1 2879.62 1301.78 2880.33 1301.78 2881.19C1301.78 2882.08 1302.09 2882.77 1302.7 2883.24C1303.36 2883.77 1304.3 2884.22 1305.51 2884.61L1308.17 2885.43C1311.73 2886.53 1314.21 2887.76 1315.62 2889.12C1317.42 2890.85 1318.32 2893.09 1318.32 2895.82C1318.32 2899.24 1316.97 2901.94 1314.26 2903.92C1312.09 2905.52 1309.24 2906.32 1305.71 2906.32C1300.97 2906.32 1297.45 2904.86 1295.15 2901.94C1293.81 2900.28 1293.09 2898.19 1293 2895.69H1301.54C1301.93 2898.4 1303.34 2899.75 1305.78 2899.75C1306.83 2899.75 1307.66 2899.48 1308.27 2898.93C1308.98 2898.29 1309.33 2897.54 1309.33 2896.68C1309.33 2895.61 1308.78 2894.72 1307.66 2894.01C1307.04 2893.6 1305.6 2893.05 1303.32 2892.37C1299.88 2891.3 1297.37 2889.98 1295.8 2888.41C1294.07 2886.7 1293.2 2884.55 1293.2 2881.98C1293.2 2878.47 1294.63 2875.77 1297.47 2873.88C1299.71 2872.42 1302.46 2871.69 1305.75 2871.69C1310.35 2871.69 1313.77 2873.18 1316 2876.17C1317.14 2877.72 1317.74 2879.71 1317.81 2882.15ZM1370.72 2876.92V2872.82H1379.64V2905.19H1370.72V2900.74C1367.78 2904.46 1364.03 2906.32 1359.48 2906.32C1354.53 2906.32 1350.55 2904.48 1347.55 2900.81C1345.06 2897.78 1343.82 2893.98 1343.82 2889.4C1343.82 2885.98 1344.61 2882.81 1346.18 2879.89C1347.5 2877.43 1349.38 2875.46 1351.82 2873.98C1354.28 2872.48 1357.05 2871.73 1360.12 2871.73C1362.65 2871.73 1364.93 2872.33 1366.96 2873.54C1368.19 2874.27 1369.44 2875.39 1370.72 2876.92ZM1361.97 2879.25C1359.17 2879.25 1356.98 2880.33 1355.41 2882.49C1354.02 2884.43 1353.32 2886.68 1353.32 2889.26C1353.32 2892.34 1354.27 2894.82 1356.16 2896.71C1357.78 2898.33 1359.69 2899.14 1361.9 2899.14C1364.59 2899.14 1366.81 2898.02 1368.57 2895.79C1370.09 2893.85 1370.86 2891.58 1370.86 2888.99C1370.86 2886.41 1370.17 2884.24 1368.81 2882.46C1367.14 2880.32 1364.86 2879.25 1361.97 2879.25ZM1413.21 2876.54V2872.82H1422.13V2919.71H1413.21V2901.67C1412 2903.03 1410.78 2904.04 1409.55 2904.67C1407.43 2905.77 1404.98 2906.32 1402.2 2906.32C1397.23 2906.32 1393.23 2904.56 1390.2 2901.05C1387.61 2898.07 1386.31 2894.14 1386.31 2889.26C1386.31 2884.13 1387.79 2879.97 1390.75 2876.78C1393.87 2873.39 1397.89 2871.69 1402.82 2871.69C1405.07 2871.69 1407.09 2872.1 1408.87 2872.92C1410.39 2873.63 1411.84 2874.84 1413.21 2876.54ZM1404.56 2879.21C1401.41 2879.21 1399.04 2880.52 1397.45 2883.14C1396.36 2884.9 1395.81 2886.9 1395.81 2889.16C1395.81 2892.21 1396.71 2894.68 1398.51 2896.57C1400.13 2898.28 1402.11 2899.14 1404.46 2899.14C1407.3 2899.14 1409.61 2897.95 1411.36 2895.58C1412.64 2893.83 1413.27 2891.72 1413.27 2889.26C1413.27 2886.25 1412.45 2883.84 1410.81 2882.01C1409.15 2880.15 1407.07 2879.21 1404.56 2879.21ZM1449.85 2893.29V2872.82H1458.77V2893.29C1458.77 2896.55 1458.23 2899.02 1457.16 2900.71C1455.91 2902.62 1454.07 2904.07 1451.66 2905.05C1449.61 2905.89 1447.26 2906.32 1444.62 2906.32C1439.99 2906.32 1436.39 2905.14 1433.82 2902.79C1431.51 2900.7 1430.36 2897.53 1430.36 2893.29V2872.82H1439.29V2892.71C1439.29 2894.1 1439.62 2895.37 1440.28 2896.51C1441.17 2898.03 1442.62 2898.8 1444.65 2898.8C1446.5 2898.8 1447.92 2898.11 1448.92 2896.75C1449.54 2895.88 1449.85 2894.73 1449.85 2893.29ZM1467 2872.82H1475.93V2905.19H1467V2872.82ZM1467.35 2867.9L1473.16 2858.16H1482.11L1472.85 2867.9H1467.35Z" fill="#FFF3E9"/>
<defs>
<clipPath id="clip0_1810_19268">
<rect width="146" height="146" fill="white" transform="translate(1477.62 2453)"/>
</clipPath>
</defs>
</svg>
