<svg width="4955" height="5179" viewBox="0 0 4955 5179" fill="none" xmlns="http://www.w3.org/2000/svg">
<path d="M1477.77 776.03L1317.13 1006.9L1297.81 990.7L1204.89 1121.16L1287.54 1190.44L619.579 2152.92C619.579 2152.92 425.059 2439.46 562.219 2755.48L742.429 3191.7C765.669 3247.95 806.429 3295.2 858.649 3326.44L1828.69 3906.72L1887.04 3814.42L3252.69 4682.29C3306.69 4716.61 3378.17 4701.99 3414.36 4649.23L4560.04 2979.08C4584.05 2944.07 4577.55 2896.56 4545.02 2869.29L1891.78 645.06C1855.02 614.24 1799.69 621.94 1772.73 661.61L1542.45 1000.53L1491.58 957.89L1573.33 837.26L1477.77 776.04V776.03Z" fill="white" stroke="#1D1D1B" stroke-width="10" stroke-miterlimit="10"/>
<path d="M1542.45 1000.53L1166.25 1542.91L1774.36 660.54C1800.95 621.95 1854.98 614.61 1890.91 644.7L4542.79 2865.69C4576.73 2894.11 4583.7 2943.59 4558.93 2980.28L3412.28 4652.39C3377.25 4703.48 3308.05 4717.63 3255.77 4684.4L1887.05 3814.42L878.199 3218.74V2779.81H1115.85V2464.7H878.199V1960.59L1048.64 1708.54" fill="#FDEADF"/>
<path d="M1542.45 1000.53L1166.25 1542.91L1774.36 660.54C1800.95 621.95 1854.98 614.61 1890.91 644.7L4542.79 2865.69C4576.73 2894.11 4583.7 2943.59 4558.93 2980.28L3412.28 4652.39C3377.25 4703.48 3308.05 4717.63 3255.77 4684.4L1887.05 3814.42L878.199 3218.74V2779.81H1115.85V2464.7H878.199V1960.59L1048.64 1708.54" stroke="#1D1D1B" stroke-width="10" stroke-linecap="round" stroke-linejoin="round"/>
<path d="M2257.69 3222.79L2368 3003.19H2322.49L2289.75 2970.45L2255.33 3004.86H2137.77L2093.76 3048.87L1970.44 2972.5L1915.61 3027.34L1825.88 2972.5H1722.8L1609.02 3178.55V3233.43H1627.76L1645.84 3251.5L1675.95 3215.7L1747.56 3264.47L1733.4 3283.62L1798.35 3331.08L1839.98 3273.63L2008.99 3383.53L1954.88 3462.63L1978.19 3482.61L2037.3 3394.35L2103.91 3440.98L2257.69 3222.79Z" fill="#A8A8A8" stroke="#1D1D1B" stroke-width="10" stroke-linecap="round" stroke-linejoin="round"/>
<path d="M1716.74 1601.59L1629.04 1710.34L1648.29 1726.63L1572.65 1819.98L1701.93 1914.88L1661 1964.1L1678.7 1978.3L1732.9 1915.98L1761.11 1939.21L1817.53 1868.97L1880.2 1916.12L1737.66 2088.49L1779.92 2122.47V2151.22H1886.3V2080.61L1964.25 1963.68V1893.04L1863.43 1820.57L1926.42 1731.38L1886.66 1700.94L1911.47 1668.85L1896.26 1655.59L1881.96 1674.51L1789.65 1601.59L1762.43 1638.05L1716.74 1601.59Z" fill="#A8A8A8" stroke="#1D1D1B" stroke-width="10" stroke-linecap="round" stroke-linejoin="round"/>
<path d="M2073.87 2103.53H2356.44V1924.7H2146.95V1990.48H2073.87V2103.53Z" fill="#A8A8A8" stroke="#1D1D1B" stroke-width="10" stroke-linecap="round" stroke-linejoin="round"/>
<path d="M2772 1741L2850.19 1718.29H2785.98V1638.4L2808.2 1616.18L2725.96 1544.29L2684.69 1590.04L2660.5 1569.13L2622.6 1615.22L2586.1 1579.84L2496.79 1573.02L2532.48 1526.97L2259.36 1303.65L2398.55 1128.65L2190.56 953.05L1903.31 1300.13L1542.45 1000.53L1775.41 659.08C1801.28 621.16 1854.19 613.81 1889.42 643.22L4540.66 2857.12C4578.04 2888.34 4585.51 2942.9 4557.88 2983.01L3418.12 4646.37C3379.6 4702.58 3303.43 4718.08 3246.01 4681.4L2234.81 4035.48L2300.65 3939.25L3335.53 4618.66L3671.64 4123.42L3449.39 3984.86L3736.11 3537.63L3127.01 3019.78L2845.4 3449.15L2798.08 3417.97L2876.23 3298.57L2511.82 3057.84L2610.92 2930.78L2670.25 2972.5L2707.34 2935.41V2847.21H2557.19V2835.43H2515.16V2761.25H2694.44V2670.95H2713.79V2412.94L2550.55 2246.25L2532.48 1839.69H2682.73V1908.97L2718.5 1845.5" fill="#A8A8A8"/>
<path d="M2772 1741L2850.19 1718.29H2785.98V1638.4L2808.2 1616.18L2725.96 1544.29L2684.69 1590.04L2660.5 1569.13L2622.6 1615.22L2586.1 1579.84L2496.79 1573.02L2532.48 1526.97L2259.36 1303.65L2398.55 1128.65L2190.56 953.05L1903.31 1300.13L1542.45 1000.53L1775.41 659.08C1801.28 621.16 1854.19 613.81 1889.42 643.22L4540.66 2857.12C4578.04 2888.34 4585.51 2942.9 4557.88 2983.01L3418.12 4646.37C3379.6 4702.58 3303.43 4718.08 3246.01 4681.4L2234.81 4035.48L2300.65 3939.25L3335.53 4618.66L3671.64 4123.42L3449.39 3984.86L3736.11 3537.63L3127.01 3019.78L2845.4 3449.15L2798.08 3417.97L2876.23 3298.57L2511.82 3057.84L2610.92 2930.78L2670.25 2972.5L2707.34 2935.41V2847.21H2557.19V2835.43H2515.16V2761.25H2694.44V2670.95H2713.79V2412.94L2550.55 2246.25L2532.48 1839.69H2682.73V1908.97L2718.5 1845.5" stroke="#1D1D1B" stroke-width="10" stroke-linecap="round" stroke-linejoin="round"/>
<path d="M3049.28 1968.27C3049.28 2039.88 2991.22 2097.93 2919.61 2097.93C2848 2097.93 2789.95 2039.88 2789.95 1968.27C2789.95 1896.66 2848 1838.61 2919.61 1838.61C2991.22 1838.61 3049.28 1896.66 3049.28 1968.27Z" fill="#A8A8A8" stroke="#1D1D1B" stroke-width="10" stroke-linecap="round" stroke-linejoin="round"/>
<path d="M2919.61 1780.14C2902.77 1780.14 2886.45 1782.35 2870.93 1786.5C2818.62 1800.48 2775.28 1836.43 2751.43 1883.87C2738.67 1909.25 2731.48 1937.92 2731.48 1968.27C2731.48 2072.17 2815.71 2156.4 2919.61 2156.4C3023.51 2156.4 3107.75 2072.17 3107.75 1968.27C3107.75 1864.37 3023.52 1780.14 2919.61 1780.14ZM2919.61 2114.91C2838.63 2114.91 2772.98 2049.26 2772.98 1968.27C2772.98 1887.28 2838.63 1821.63 2919.61 1821.63C3000.59 1821.63 3066.25 1887.28 3066.25 1968.27C3066.25 2049.26 3000.6 2114.91 2919.61 2114.91Z" fill="#A8A8A8" stroke="#1D1D1B" stroke-width="10" stroke-linecap="round" stroke-linejoin="round"/>
<path d="M2919.61 2074.63C2860.96 2074.63 2813.25 2026.92 2813.25 1968.27C2813.25 1909.62 2860.96 1861.91 2919.61 1861.91C2978.26 1861.91 3025.98 1909.62 3025.98 1968.27C3025.98 2026.92 2978.26 2074.63 2919.61 2074.63ZM2919.61 1871.91C2866.48 1871.91 2823.25 1915.14 2823.25 1968.27C2823.25 2021.4 2866.48 2064.63 2919.61 2064.63C2972.74 2064.63 3015.98 2021.4 3015.98 1968.27C3015.98 1915.14 2972.75 1871.91 2919.61 1871.91Z" fill="#A8A8A8"/>
<path d="M1941.23 2151.25V2246.25H1831.78V2151.25H1941.23Z" fill="#D61116" stroke="#1D1D1B" stroke-width="10" stroke-linecap="round" stroke-linejoin="round"/>
<path d="M3127.01 3019.78L2456.75 4041.73L3335.53 4618.66L3671.64 4123.42L3449.39 3984.86L3736.11 3537.63L3127.01 3019.78Z" fill="#D61116" stroke="#1D1D1B" stroke-width="10" stroke-linecap="round" stroke-linejoin="round"/>
<path d="M2368 3003.19V2858.53H2260.66V2941.36L2289.75 2970.45L2322.49 3003.19H2368Z" fill="#FBDFE8" stroke="#1D1D1B" stroke-width="10" stroke-linecap="round" stroke-linejoin="round"/>
<path d="M2191.81 2858.53H2097.05V2972.5L2137.77 3004.86H2191.81V2858.53Z" fill="#FBDFE8" stroke="#1D1D1B" stroke-width="10" stroke-linecap="round" stroke-linejoin="round"/>
<path d="M2097.05 2858.53H2011.39V2997.86L2093.76 3048.87L2137.77 3004.86L2097.05 2972.5V2858.53Z" fill="#FBDFE8" stroke="#1D1D1B" stroke-width="10" stroke-linecap="round" stroke-linejoin="round"/>
<path d="M2011.39 2858.53H1938.68V3004.86L1970.44 2972.5L2011.39 2997.86V2858.53Z" fill="#FBDFE8" stroke="#1D1D1B" stroke-width="10" stroke-linecap="round" stroke-linejoin="round"/>
<path d="M1938.68 2858.53H1849.04V2986.66L1915.61 3027.34L1938.68 3004.86V2858.53Z" fill="#FBDFE8" stroke="#1D1D1B" stroke-width="10" stroke-linecap="round" stroke-linejoin="round"/>
<path d="M1849.04 2858.53H1704.62V2972.5H1825.88L1849.04 2986.66V2858.53Z" fill="#FBDFE8" stroke="#1D1D1B" stroke-width="10" stroke-linecap="round" stroke-linejoin="round"/>
<path d="M1704.62 2858.53H1487.44V2972.5H1704.62V2858.53Z" fill="#FBDFE8" stroke="#1D1D1B" stroke-width="10" stroke-linecap="round" stroke-linejoin="round"/>
<path d="M1417.11 2690.56V2777.82H1518.08V2690.56H1417.11Z" fill="#FBDFE8" stroke="#1D1D1B" stroke-width="10" stroke-linecap="round" stroke-linejoin="round"/>
<path d="M1417.11 2339.68V2434.86H1518.08V2339.68H1417.11Z" fill="#FBDFE8" stroke="#1D1D1B" stroke-width="10" stroke-linecap="round" stroke-linejoin="round"/>
<path d="M1572.65 2339.68V2423.55H1673.62V2339.68H1572.65Z" fill="#FBDFE8" stroke="#1D1D1B" stroke-width="10" stroke-linecap="round" stroke-linejoin="round"/>
<path d="M1673.62 2339.68V2423.55H1774.59V2339.68H1673.62Z" fill="#FBDFE8" stroke="#1D1D1B" stroke-width="10" stroke-linecap="round" stroke-linejoin="round"/>
<path d="M1288.6 2121.44V2246.25H1389.57V2121.44H1288.6Z" fill="#FBDFE8" stroke="#1D1D1B" stroke-width="10" stroke-linecap="round" stroke-linejoin="round"/>
<path d="M2039 2333.89V2434.86H2139.97V2333.89H2039Z" fill="#FBDFE8" stroke="#1D1D1B" stroke-width="10" stroke-linecap="round" stroke-linejoin="round"/>
<path d="M2039 2676.85V2777.82H2139.97V2676.85H2039Z" fill="#FBDFE8" stroke="#1D1D1B" stroke-width="10" stroke-linecap="round" stroke-linejoin="round"/>
<path d="M1246.79 2589.59V2690.56H1347.76V2589.59H1246.79Z" fill="#FBDFE8" stroke="#1D1D1B" stroke-width="10" stroke-linecap="round" stroke-linejoin="round"/>
<path d="M1246.79 2690.67V2777.93H1347.76V2690.67H1246.79Z" fill="#FBDFE8" stroke="#1D1D1B" stroke-width="10" stroke-linecap="round" stroke-linejoin="round"/>
<path d="M1270.62 2889.79H1371.59V3003.03H1270.62V2889.79H1140.89V2843.98H997.09V3003.03H1270.62V2889.79Z" fill="#FBDFE8"/>
<path d="M1270.62 2889.79H1371.59V3003.03H1270.62V2889.79ZM1270.62 2889.79H1140.89V2843.98H997.09V3003.03H1270.62V2889.79Z" stroke="#1D1D1B" stroke-width="10" stroke-linecap="round" stroke-linejoin="round"/>
<path d="M1583.44 2690.56V2777.82H1684.41V2690.56H1583.44Z" fill="#FBDFE8" stroke="#1D1D1B" stroke-width="10" stroke-linecap="round" stroke-linejoin="round"/>
<path d="M1684.41 2690.56V2777.82H1785.38V2690.56H1684.41Z" fill="#FBDFE8" stroke="#1D1D1B" stroke-width="10" stroke-linecap="round" stroke-linejoin="round"/>
<path d="M1237.94 1923.41L1330.96 1978.3L1288.69 2049.43V2246.25H1051.58V2170.48H966.4V2001.42H1182.43L1237.94 1923.41Z" fill="#FBDFE8" stroke="#1D1D1B" stroke-width="10" stroke-linecap="round" stroke-linejoin="round"/>
<path d="M1661 1964.1H1501.83V2151.22H1779.92V2122.47L1737.66 2088.49L1880.2 1916.12L1817.53 1868.97L1761.11 1939.21L1732.9 1915.98L1678.7 1978.3L1661 1964.1Z" fill="#FBDFE8" stroke="#1D1D1B" stroke-width="10" stroke-linecap="round" stroke-linejoin="round"/>
<path d="M1613.74 2151.22V2267.21H1686.57V2151.22H1613.74Z" fill="#FBDFE8" stroke="#1D1D1B" stroke-width="10" stroke-linecap="round" stroke-linejoin="round"/>
<path d="M1701.93 1914.87L1661 1964.1H1501.83L1428.34 1919.31L1223.7 1794.61C1204.96 1783.19 1199.02 1758.74 1210.44 1740L1222.11 1720.85C1233.53 1702.11 1257.98 1696.17 1276.72 1707.6L1483.8 1833.79L1522.15 1784.2L1572.65 1819.99L1701.93 1914.88V1914.87Z" fill="#FBDFE8" stroke="#1D1D1B" stroke-width="10" stroke-linecap="round" stroke-linejoin="round"/>
<path d="M1522.15 1784.19L1600.18 1685.84L1648.29 1726.63L1572.65 1819.98L1522.15 1784.19Z" fill="#FBDFE8" stroke="#1D1D1B" stroke-width="10" stroke-linecap="round" stroke-linejoin="round"/>
<path d="M2119.09 3423.66L2025.08 3559.84L2150.54 3646.46L2244.56 3510.28L2119.09 3423.66Z" fill="#FBDFE8" stroke="#1D1D1B" stroke-width="10" stroke-linecap="round" stroke-linejoin="round"/>
<path d="M1964.25 1893.04V1963.68L1886.3 2080.61V2151.25H2000.79V2246.25H2073.87V1990.48H2146.95V1924.7H2356.44V1873.55L2121.37 1710.34L2027.58 1832.14L1913.09 1749.31L1863.43 1820.57L1964.25 1893.04Z" fill="#A7CFF0" stroke="#1D1D1B" stroke-width="10" stroke-linecap="round" stroke-linejoin="round"/>
<path d="M2105.17 1731.38L1952.93 1615.23L1886.66 1700.94L1926.42 1731.38L1913.09 1749.31L2027.58 1832.14L2105.17 1731.38Z" fill="#A7CFF0" stroke="#1D1D1B" stroke-width="10" stroke-linecap="round" stroke-linejoin="round"/>
<path d="M1716.74 1601.59L1762.43 1638.05L1789.65 1601.59L1881.96 1674.51L1896.26 1655.59L1911.47 1668.85L1952.93 1615.23L1800.38 1494.38L1716.74 1601.59Z" fill="#A7CFF0" stroke="#1D1D1B" stroke-width="10" stroke-linecap="round" stroke-linejoin="round"/>
<path d="M2161.2 1519.58L2011.05 1402.91C1998.33 1393.02 1980.01 1395.32 1970.12 1408.04L1950.34 1433.5C1940.45 1446.22 1942.75 1464.54 1955.47 1474.43L2105.62 1591.1C2118.34 1600.99 2136.67 1598.69 2146.55 1585.97L2166.33 1560.51C2176.22 1547.79 2173.92 1529.47 2161.2 1519.58Z" fill="#A7CFF0" stroke="#1D1D1B" stroke-width="10" stroke-linecap="round" stroke-linejoin="round"/>
<path d="M2025.59 1267.04L2105.17 1174.4L2190.56 1248.31L2135.13 1316.78L2148.53 1328.01L2129.81 1349.16L2025.59 1267.04Z" fill="#A7CFF0" stroke="#1D1D1B" stroke-width="10" stroke-linecap="round" stroke-linejoin="round"/>
<path d="M2129.81 1349.16L2221.09 1423.36L2294.87 1332.22L2190.56 1248.31L2135.13 1316.78L2148.53 1328.01L2129.81 1349.16Z" fill="#A7CFF0" stroke="#1D1D1B" stroke-width="10" stroke-linecap="round" stroke-linejoin="round"/>
<path d="M2294.87 1332.22L2434.29 1447.23L2361.06 1541.62L2294.87 1563.87L2336.45 1512.61L2221.09 1423.36L2294.87 1332.22Z" fill="#A7CFF0" stroke="#1D1D1B" stroke-width="10" stroke-linecap="round" stroke-linejoin="round"/>
<path d="M2434.29 1447.23L2532.48 1526.98L2427.78 1662.06L2294.87 1563.87L2361.06 1541.62L2434.29 1447.23Z" fill="#A7CFF0" stroke="#1D1D1B" stroke-width="10" stroke-linecap="round" stroke-linejoin="round"/>
<path d="M2892.98 1761.08C2810.11 1771.63 2742.4 1830.73 2719.28 1908.97H2682.73V1839.69H2472.29V1710.33L2586.1 1579.84L2622.6 1615.22L2660.5 1569.13L2684.69 1590.04L2725.96 1544.29L2808.2 1616.18L2785.98 1638.4V1718.29H2850.19L2892.98 1761.08Z" fill="#A7CFF0" stroke="#1D1D1B" stroke-width="10" stroke-linecap="round" stroke-linejoin="round"/>
<path d="M2713.79 2412.94V2670.95H2694.44V2761.25H2497.71V2637.08H2576.73V2435.51H2484.81V2245.29C2484.81 2221.09 2514.18 2209.1 2531.11 2226.39L2713.79 2412.93V2412.94Z" fill="#A7CFF0" stroke="#1D1D1B" stroke-width="10" stroke-linecap="round" stroke-linejoin="round"/>
<path d="M2496.09 2835.43V2972.5L2543.37 3019.78L2610.92 2930.78L2671.86 2974.12L2707.34 2935.41V2847.21H2557.19V2835.43H2496.09Z" fill="#A7CFF0" stroke="#1D1D1B" stroke-width="10" stroke-linecap="round" stroke-linejoin="round"/>
<path d="M2496.09 2972.5V3014.24L2409.71 3132.07C2399.89 3145.95 2410.8 3153.45 2424.69 3163.26L2498.91 3215.7L2573.39 3101.05L2511.82 3057.84L2543.36 3019.78L2496.08 2972.5H2496.09Z" fill="#A7CFF0" stroke="#1D1D1B" stroke-width="10" stroke-linecap="round" stroke-linejoin="round"/>
<path d="M2573.4 3101.05L2876.23 3298.57L2798.08 3417.97L2498.92 3215.7L2573.4 3101.05Z" fill="#A7CFF0" stroke="#1D1D1B" stroke-width="10" stroke-linecap="round" stroke-linejoin="round"/>
<path d="M2462.49 3930.06L2508.91 3961.81L2456.75 4041.68L2410.33 4009.94L2401.81 4004.11L2301.89 3937.46L2496.64 3652.69C2501.6 3645.43 2511.51 3643.57 2518.77 3648.54L2598.47 3703.04C2605.73 3708 2607.59 3717.91 2602.62 3725.17L2462.49 3930.06Z" fill="#A7CFF0" stroke="#1D1D1B" stroke-width="10" stroke-linecap="round" stroke-linejoin="round"/>
<path d="M2006 3890.05L2078.47 3780.92L2310.88 3924.32L2234.81 4035.48L2006 3890.05Z" fill="#A7CFF0" stroke="#1D1D1B" stroke-width="10" stroke-linecap="round" stroke-linejoin="round"/>
<path d="M2078.47 3780.92L1904.34 3675.23L1830.28 3780.92L2006 3890.05L2078.47 3780.92Z" fill="#A7CFF0" stroke="#1D1D1B" stroke-width="10" stroke-linecap="round" stroke-linejoin="round"/>
<path d="M2331.02 3641.78L2284.54 3609.69C2276.52 3604.16 2265.53 3606.17 2260 3614.19L2227.91 3660.67C2222.37 3668.68 2224.39 3679.67 2232.4 3685.21L2278.88 3717.29C2286.9 3722.83 2297.89 3720.82 2303.42 3712.8L2335.51 3666.32C2341.05 3658.3 2339.03 3647.32 2331.02 3641.78Z" fill="#A7CFF0" stroke="#1D1D1B" stroke-width="10" stroke-linecap="round" stroke-linejoin="round"/>
<path d="M2499.78 3360.55L2453.3 3328.46C2445.29 3322.93 2434.3 3324.94 2428.77 3332.96L2396.68 3379.44C2391.14 3387.46 2393.15 3398.44 2401.17 3403.98L2447.65 3436.06C2455.67 3441.6 2466.66 3439.59 2472.19 3431.57L2504.28 3385.09C2509.81 3377.07 2507.8 3366.09 2499.78 3360.55Z" fill="#A7CFF0" stroke="#1D1D1B" stroke-width="10" stroke-linecap="round" stroke-linejoin="round"/>
<path d="M2383.15 3309.49L2257.52 3222.75L2162.37 3360.59L2288 3447.32L2383.15 3309.49Z" fill="#A7CFF0" stroke="#1D1D1B" stroke-width="10" stroke-linecap="round" stroke-linejoin="round"/>
<path d="M2287.99 3447.31L2162.36 3360.58L2118.96 3423.44L2244.59 3510.17L2287.99 3447.31Z" fill="#A7CFF0" stroke="#1D1D1B" stroke-width="10" stroke-linecap="round" stroke-linejoin="round"/>
<path d="M1542.45 1000.53L1450.87 1130.2L1616.7 1267.58L1673.41 1198.76L1601.83 1137.99L1645.46 1086.05L1542.45 1000.53Z" fill="#A7CFF0" stroke="#1D1D1B" stroke-width="10" stroke-linecap="round" stroke-linejoin="round"/>
<path d="M1616.7 1267.58L1716.74 1145.23L1903.31 1300.13L1809.21 1421.18L1616.7 1267.58Z" fill="#A7CFF0" stroke="#1D1D1B" stroke-width="10" stroke-linecap="round" stroke-linejoin="round"/>
<path d="M1627.49 1406.77L1490.91 1300.64C1478.5 1291 1460.63 1293.24 1450.99 1305.65L1421.29 1343.87C1411.65 1356.27 1413.89 1374.15 1426.3 1383.79L1562.88 1489.92C1575.28 1499.56 1593.16 1497.32 1602.8 1484.91L1632.5 1446.7C1642.14 1434.29 1639.9 1416.42 1627.49 1406.77Z" fill="#A7CFF0" stroke="#1D1D1B" stroke-width="10" stroke-linecap="round" stroke-linejoin="round"/>
<path d="M1264.26 1401.62L1174.31 1531.23L1243.24 1584.44L1270.41 1547.98L1334.95 1601.59L1403.08 1510.81L1264.26 1401.62Z" fill="#A7CFF0" stroke="#1D1D1B" stroke-width="10" stroke-linecap="round" stroke-linejoin="round"/>
<path d="M1084.95 1829.85L966.4 2001.42H1182.43L1237.94 1923.41L1084.95 1829.85Z" fill="#A7CFF0" stroke="#1D1D1B" stroke-width="10" stroke-linecap="round" stroke-linejoin="round"/>
<path d="M1330.96 1978.3L1288.69 2049.43V2121.44H1389.47V2014.78L1330.96 1978.3Z" fill="#A7CFF0" stroke="#1D1D1B" stroke-width="10" stroke-linecap="round" stroke-linejoin="round"/>
<path d="M1501.83 2151.22H1613.74V2267.21H1535.95V2238.55H1501.83V2151.22Z" fill="#A7CFF0" stroke="#1D1D1B" stroke-width="10" stroke-linecap="round" stroke-linejoin="round"/>
<path d="M1779.92 2151.22H1686.57V2267.2H1779.92V2151.22Z" fill="#A7CFF0" stroke="#1D1D1B" stroke-width="10" stroke-linecap="round" stroke-linejoin="round"/>
<path d="M1518.08 2434.86H1417.11V2535.83H1518.08V2434.86Z" fill="#A7CFF0" stroke="#1D1D1B" stroke-width="10" stroke-linecap="round" stroke-linejoin="round"/>
<path d="M1518.08 2589.59H1417.11V2690.56H1518.08V2589.59Z" fill="#A7CFF0" stroke="#1D1D1B" stroke-width="10" stroke-linecap="round" stroke-linejoin="round"/>
<path d="M2039 2676.85H1964.25V2777.82H2039V2676.85Z" fill="#A7CFF0" stroke="#1D1D1B" stroke-width="10" stroke-linecap="round" stroke-linejoin="round"/>
<path d="M2039 2333.89H1964.25V2434.86H2039V2333.89Z" fill="#A7CFF0" stroke="#1D1D1B" stroke-width="10" stroke-linecap="round" stroke-linejoin="round"/>
<path d="M1058.82 3003.03H1371.59V3145.01L1298.03 3071.45L1245.55 3123.92H1178.17L1097.92 3259.51L997.09 3200.57V3131.27H1058.82V3003.03Z" fill="#A7CFF0" stroke="#1D1D1B" stroke-width="10" stroke-linecap="round" stroke-linejoin="round"/>
<path d="M1097.92 3259.51L1211 3330.21L1245.73 3276.32L1319.98 3330.21L1378.66 3248.78L1245.55 3123.92H1178.17L1097.92 3259.51Z" fill="#A7CFF0" stroke="#1D1D1B" stroke-width="10" stroke-linecap="round" stroke-linejoin="round"/>
<path d="M1722.8 2972.5H1487.44V3073.43H1609.02L1648.1 3107.78L1722.8 2972.5Z" fill="#A7CFF0" stroke="#1D1D1B" stroke-width="10" stroke-linecap="round" stroke-linejoin="round"/>
<path d="M1609.02 3178.55H1487.44V3073.43H1609.02L1648.1 3107.78L1609.02 3178.55Z" fill="#A7CFF0" stroke="#1D1D1B" stroke-width="10" stroke-linecap="round" stroke-linejoin="round"/>
<path d="M1436.26 3387.36L1487.44 3316.84V3233.43H1609.02H1627.76L1645.84 3251.5L1498.36 3438.47L1436.26 3387.36Z" fill="#A7CFF0" stroke="#1D1D1B" stroke-width="10" stroke-linecap="round" stroke-linejoin="round"/>
<path d="M1542.45 3382.57L1771.38 3537.45L1745.5 3573.03L1823.31 3621.95L1883.3 3533.17L1810.84 3486.34L1843.19 3442.35L1613.06 3293.05L1542.45 3382.57Z" fill="#A7CFF0" stroke="#1D1D1B" stroke-width="10" stroke-linecap="round" stroke-linejoin="round"/>
<path d="M1447.32 3554.8L1501.71 3482.61L1712.88 3611.88L1664.05 3682.76L1447.32 3554.8Z" fill="#A7CFF0" stroke="#1D1D1B" stroke-width="10" stroke-linecap="round" stroke-linejoin="round"/>
<path d="M2289.75 2970.45L2260.66 2941.36V2858.53H2191.81V3004.86H2255.33L2289.75 2970.45Z" fill="#A7CFF0" stroke="#1D1D1B" stroke-width="10" stroke-linecap="round" stroke-linejoin="round"/>
<path d="M1675.95 3215.7L1613.06 3293.05L2025.16 3559.96L2103.91 3440.98L2037.3 3394.35L1983.85 3481.12L1954.88 3462.63L2008.99 3383.53L1839.98 3273.63L1800.92 3330.07L1733.4 3283.62L1747.56 3264.47L1675.95 3215.7Z" fill="#00626A" stroke="#1D1D1B" stroke-width="10" stroke-linecap="round" stroke-linejoin="round"/>
<path d="M2025.59 1267.04L1967.51 1222.56L2190.56 953.05L2398.55 1128.65L2259.36 1303.65L2105.17 1174.4L2025.59 1267.04Z" fill="#00626A" stroke="#1D1D1B" stroke-width="10" stroke-linecap="round" stroke-linejoin="round"/>
<path d="M968.739 2354.87C968.149 2354.05 967.789 2353.04 967.759 2351.95C967.689 2349.08 969.959 2346.71 972.829 2346.65L1302.11 2339.83C1304.97 2339.77 1307.35 2342.05 1307.42 2344.91C1307.49 2347.78 1305.22 2350.15 1302.35 2350.21L973.069 2357.03C971.299 2357.07 969.709 2356.21 968.739 2354.87Z" stroke="black" stroke-width="4" stroke-miterlimit="10"/>
<path d="M966.009 2435.73C965.419 2434.91 965.059 2433.9 965.029 2432.81C964.959 2429.94 967.229 2427.57 970.099 2427.51L1299.38 2420.69C1302.24 2420.63 1304.62 2422.91 1304.69 2425.77C1304.76 2428.64 1302.49 2431.01 1299.62 2431.07L970.339 2437.89C968.569 2437.93 966.979 2437.07 966.009 2435.73Z" stroke="black" stroke-width="4" stroke-miterlimit="10"/>
<path d="M1301.62 2389.03L1283.29 2389.41L1269.11 2389.7L1257.13 2389.95L1243.94 2390.21L1230.11 2390.5L1216.91 2390.78L1204.83 2391.03L1192.74 2391.27L1178.8 2391.57L1166.14 2391.82L1152.68 2392.1L1137.42 2392.42L1123.33 2392.71L1108.72 2393.01L1095.87 2393.28L1082.96 2393.55L1069.67 2393.82L1058.47 2394.05L1045.65 2394.32L1032.82 2394.58L1020.12 2394.84L1007.8 2395.1L995.428 2395.35L972.358 2395.83C970.578 2395.87 968.998 2395.01 968.028 2393.67C967.428 2392.84 967.078 2391.83 967.048 2390.75C966.988 2387.88 969.248 2385.51 972.108 2385.45L995.618 2384.96L1007.97 2384.71L1020.3 2384.45L1033 2384.19L1045.84 2383.92L1058.66 2383.65L1069.86 2383.42L1083.15 2383.14L1096.06 2382.87L1108.9 2382.61L1123.51 2382.3L1137.6 2382.01L1152.86 2381.69L1166.31 2381.42L1178.98 2381.16L1192.92 2380.86L1205 2380.61L1217.09 2380.36L1230.3 2380.09L1244.12 2379.8L1257.31 2379.52L1269.3 2379.27L1283.47 2378.97L1301.39 2378.6C1304.26 2378.53 1306.62 2380.81 1306.7 2383.68C1306.76 2386.55 1304.5 2388.92 1301.63 2388.99L1301.62 2389.03Z" stroke="black" stroke-width="4" stroke-miterlimit="10"/>
<path d="M1282.76 2421.03L1283.29 2389.41" stroke="black" stroke-width="4" stroke-miterlimit="10"/>
<path d="M1283.47 2379.01L1283.95 2350.59" stroke="black" stroke-width="4" stroke-miterlimit="10"/>
<path d="M1268.6 2419.54L1269.11 2389.69" stroke="black" stroke-width="4" stroke-miterlimit="10"/>
<path d="M1269.29 2379.3L1269.81 2349.11" stroke="black" stroke-width="4" stroke-miterlimit="10"/>
<path d="M1256.61 2420.79L1257.13 2389.95" stroke="black" stroke-width="4" stroke-miterlimit="10"/>
<path d="M1257.31 2379.55L1257.8 2350.35" stroke="black" stroke-width="4" stroke-miterlimit="10"/>
<path d="M1243.43 2420.64L1243.95 2390.21" stroke="black" stroke-width="4" stroke-miterlimit="10"/>
<path d="M1244.12 2379.83L1244.62 2350.2" stroke="black" stroke-width="4" stroke-miterlimit="10"/>
<path d="M1229.59 2421.66L1230.11 2390.5" stroke="black" stroke-width="4" stroke-miterlimit="10"/>
<path d="M1230.29 2380.11L1230.78 2351.21" stroke="black" stroke-width="4" stroke-miterlimit="10"/>
<path d="M1216.37 2422.39L1216.91 2390.78" stroke="black" stroke-width="4" stroke-miterlimit="10"/>
<path d="M1217.08 2380.38L1217.57 2351.95" stroke="black" stroke-width="4" stroke-miterlimit="10"/>
<path d="M1204.27 2423.72L1204.83 2391.03" stroke="black" stroke-width="4" stroke-miterlimit="10"/>
<path d="M1205 2380.63L1205.46 2353.28" stroke="black" stroke-width="4" stroke-miterlimit="10"/>
<path d="M1192.16 2425.05L1192.73 2391.28" stroke="black" stroke-width="4" stroke-miterlimit="10"/>
<path d="M1192.91 2380.88L1193.35 2354.61" stroke="black" stroke-width="4" stroke-miterlimit="10"/>
<path d="M1178.25 2423.85L1178.79 2391.57" stroke="black" stroke-width="4" stroke-miterlimit="10"/>
<path d="M1178.97 2381.18L1179.44 2353.42" stroke="black" stroke-width="4" stroke-miterlimit="10"/>
<path d="M1165.58 2424.2L1166.13 2391.83" stroke="black" stroke-width="4" stroke-miterlimit="10"/>
<path d="M1166.3 2381.44L1166.78 2353.76" stroke="black" stroke-width="4" stroke-miterlimit="10"/>
<path d="M1152.14 2423.67L1152.68 2392.11" stroke="black" stroke-width="4" stroke-miterlimit="10"/>
<path d="M1152.85 2381.71L1153.34 2353.23" stroke="black" stroke-width="4" stroke-miterlimit="10"/>
<path d="M1136.89 2423.88L1137.42 2392.43" stroke="black" stroke-width="4" stroke-miterlimit="10"/>
<path d="M1137.6 2382.03L1138.08 2353.44" stroke="black" stroke-width="4" stroke-miterlimit="10"/>
<path d="M1122.81 2423.73L1123.33 2392.71" stroke="black" stroke-width="4" stroke-miterlimit="10"/>
<path d="M1123.51 2382.32L1124 2353.3" stroke="black" stroke-width="4" stroke-miterlimit="10"/>
<path d="M1108.21 2423.35L1108.72 2393.01" stroke="black" stroke-width="4" stroke-miterlimit="10"/>
<path d="M1108.89 2382.63L1109.4 2352.91" stroke="black" stroke-width="4" stroke-miterlimit="10"/>
<path d="M1095.34 2424.4L1095.87 2393.28" stroke="black" stroke-width="4" stroke-miterlimit="10"/>
<path d="M1096.05 2382.89L1096.54 2353.95" stroke="black" stroke-width="4" stroke-miterlimit="10"/>
<path d="M1082.44 2423.87L1082.96 2393.55" stroke="black" stroke-width="4" stroke-miterlimit="10"/>
<path d="M1083.14 2383.16L1083.63 2353.44" stroke="black" stroke-width="4" stroke-miterlimit="10"/>
<path d="M1069.16 2424.09L1069.67 2393.82" stroke="black" stroke-width="4" stroke-miterlimit="10"/>
<path d="M1069.84 2383.44L1070.35 2353.65" stroke="black" stroke-width="4" stroke-miterlimit="10"/>
<path d="M1057.94 2424.78L1058.47 2394.05" stroke="black" stroke-width="4" stroke-miterlimit="10"/>
<path d="M1058.64 2383.67L1059.14 2354.34" stroke="black" stroke-width="4" stroke-miterlimit="10"/>
<path d="M1045.14 2424.08L1045.64 2394.32" stroke="black" stroke-width="4" stroke-miterlimit="10"/>
<path d="M1045.82 2383.93L1046.34 2353.65" stroke="black" stroke-width="4" stroke-miterlimit="10"/>
<path d="M1032.29 2425.21L1032.81 2394.59" stroke="black" stroke-width="4" stroke-miterlimit="10"/>
<path d="M1032.98 2384.2L1033.48 2354.78" stroke="black" stroke-width="4" stroke-miterlimit="10"/>
<path d="M1019.56 2427.35L1020.11 2394.85" stroke="black" stroke-width="4" stroke-miterlimit="10"/>
<path d="M1020.29 2384.46L1020.76 2356.92" stroke="black" stroke-width="4" stroke-miterlimit="10"/>
<path d="M1007.25 2426.51L1007.79 2395.11" stroke="black" stroke-width="4" stroke-miterlimit="10"/>
<path d="M1007.96 2384.72L1008.44 2356.08" stroke="black" stroke-width="4" stroke-miterlimit="10"/>
<path d="M994.879 2427.2L995.419 2395.36" stroke="black" stroke-width="4" stroke-miterlimit="10"/>
<path d="M995.598 2384.97L996.078 2356.76" stroke="black" stroke-width="4" stroke-miterlimit="10"/>
<path d="M1883.9 2571.54C1883.31 2570.72 1882.95 2569.71 1882.92 2568.62C1882.85 2565.75 1885.12 2563.38 1887.99 2563.32L2217.27 2556.5C2220.13 2556.44 2222.51 2558.72 2222.58 2561.58C2222.65 2564.45 2220.38 2566.82 2217.51 2566.88L1888.23 2573.7C1886.46 2573.74 1884.87 2572.88 1883.9 2571.54Z" stroke="black" stroke-width="4" stroke-miterlimit="10"/>
<path d="M1881.18 2652.39C1880.59 2651.57 1880.23 2650.56 1880.2 2649.47C1880.13 2646.6 1882.4 2644.23 1885.27 2644.17L2214.55 2637.35C2217.41 2637.29 2219.79 2639.57 2219.86 2642.43C2219.93 2645.3 2217.66 2647.67 2214.79 2647.73L1885.51 2654.55C1883.74 2654.59 1882.15 2653.73 1881.18 2652.39Z" stroke="black" stroke-width="4" stroke-miterlimit="10"/>
<path d="M2216.79 2605.69L2198.46 2606.07L2184.28 2606.36L2172.3 2606.61L2159.11 2606.87L2145.28 2607.16L2132.08 2607.44L2120 2607.69L2107.91 2607.93L2093.97 2608.23L2081.31 2608.48L2067.85 2608.76L2052.59 2609.08L2038.5 2609.37L2023.89 2609.67L2011.04 2609.94L1998.13 2610.21L1984.84 2610.48L1973.64 2610.71L1960.82 2610.98L1947.99 2611.24L1935.29 2611.5L1922.97 2611.76L1910.6 2612.01L1887.53 2612.49C1885.75 2612.53 1884.17 2611.67 1883.2 2610.33C1882.6 2609.5 1882.25 2608.49 1882.22 2607.41C1882.16 2604.54 1884.42 2602.17 1887.28 2602.11L1910.79 2601.62L1923.14 2601.37L1935.47 2601.11L1948.17 2600.85L1961.01 2600.58L1973.83 2600.31L1985.03 2600.08L1998.32 2599.8L2011.23 2599.53L2024.07 2599.27L2038.68 2598.96L2052.77 2598.67L2068.03 2598.35L2081.48 2598.08L2094.15 2597.82L2108.09 2597.52L2120.17 2597.27L2132.26 2597.02L2145.47 2596.75L2159.29 2596.46L2172.48 2596.18L2184.47 2595.93L2198.64 2595.63L2216.56 2595.26C2219.43 2595.19 2221.79 2597.47 2221.87 2600.34C2221.93 2603.21 2219.67 2605.58 2216.8 2605.65L2216.79 2605.69Z" stroke="black" stroke-width="4" stroke-miterlimit="10"/>
<path d="M2197.93 2637.7L2198.46 2606.07" stroke="black" stroke-width="4" stroke-miterlimit="10"/>
<path d="M2198.63 2595.67L2199.11 2567.26" stroke="black" stroke-width="4" stroke-miterlimit="10"/>
<path d="M2183.77 2636.21L2184.28 2606.36" stroke="black" stroke-width="4" stroke-miterlimit="10"/>
<path d="M2184.46 2595.97L2184.97 2565.77" stroke="black" stroke-width="4" stroke-miterlimit="10"/>
<path d="M2171.78 2637.46L2172.3 2606.62" stroke="black" stroke-width="4" stroke-miterlimit="10"/>
<path d="M2172.47 2596.22L2172.97 2567.02" stroke="black" stroke-width="4" stroke-miterlimit="10"/>
<path d="M2158.6 2637.31L2159.11 2606.88" stroke="black" stroke-width="4" stroke-miterlimit="10"/>
<path d="M2159.28 2596.49L2159.79 2566.87" stroke="black" stroke-width="4" stroke-miterlimit="10"/>
<path d="M2144.75 2638.33L2145.28 2607.17" stroke="black" stroke-width="4" stroke-miterlimit="10"/>
<path d="M2145.46 2596.78L2145.95 2567.88" stroke="black" stroke-width="4" stroke-miterlimit="10"/>
<path d="M2131.54 2639.06L2132.08 2607.45" stroke="black" stroke-width="4" stroke-miterlimit="10"/>
<path d="M2132.25 2597.05L2132.73 2568.62" stroke="black" stroke-width="4" stroke-miterlimit="10"/>
<path d="M2119.43 2640.39L2119.99 2607.7" stroke="black" stroke-width="4" stroke-miterlimit="10"/>
<path d="M2120.16 2597.3L2120.63 2569.94" stroke="black" stroke-width="4" stroke-miterlimit="10"/>
<path d="M2107.33 2641.72L2107.9 2607.94" stroke="black" stroke-width="4" stroke-miterlimit="10"/>
<path d="M2108.08 2597.55L2108.52 2571.28" stroke="black" stroke-width="4" stroke-miterlimit="10"/>
<path d="M2093.41 2640.52L2093.96 2608.24" stroke="black" stroke-width="4" stroke-miterlimit="10"/>
<path d="M2094.14 2597.85L2094.61 2570.09" stroke="black" stroke-width="4" stroke-miterlimit="10"/>
<path d="M2080.75 2640.87L2081.3 2608.49" stroke="black" stroke-width="4" stroke-miterlimit="10"/>
<path d="M2081.47 2598.11L2081.94 2570.43" stroke="black" stroke-width="4" stroke-miterlimit="10"/>
<path d="M2067.31 2640.34L2067.84 2608.77" stroke="black" stroke-width="4" stroke-miterlimit="10"/>
<path d="M2068.02 2598.38L2068.5 2569.9" stroke="black" stroke-width="4" stroke-miterlimit="10"/>
<path d="M2052.06 2640.54L2052.59 2609.09" stroke="black" stroke-width="4" stroke-miterlimit="10"/>
<path d="M2052.77 2598.7L2053.24 2570.11" stroke="black" stroke-width="4" stroke-miterlimit="10"/>
<path d="M2037.98 2640.4L2038.5 2609.38" stroke="black" stroke-width="4" stroke-miterlimit="10"/>
<path d="M2038.67 2598.99L2039.17 2569.97" stroke="black" stroke-width="4" stroke-miterlimit="10"/>
<path d="M2023.38 2640.02L2023.89 2609.68" stroke="black" stroke-width="4" stroke-miterlimit="10"/>
<path d="M2024.06 2599.29L2024.56 2569.58" stroke="black" stroke-width="4" stroke-miterlimit="10"/>
<path d="M2010.51 2641.06L2011.04 2609.95" stroke="black" stroke-width="4" stroke-miterlimit="10"/>
<path d="M2011.22 2599.55L2011.7 2570.62" stroke="black" stroke-width="4" stroke-miterlimit="10"/>
<path d="M1997.61 2640.54L1998.12 2610.22" stroke="black" stroke-width="4" stroke-miterlimit="10"/>
<path d="M1998.3 2599.83L1998.8 2570.1" stroke="black" stroke-width="4" stroke-miterlimit="10"/>
<path d="M1984.33 2640.76L1984.84 2610.49" stroke="black" stroke-width="4" stroke-miterlimit="10"/>
<path d="M1985.01 2600.1L1985.52 2570.32" stroke="black" stroke-width="4" stroke-miterlimit="10"/>
<path d="M1973.11 2641.45L1973.63 2610.72" stroke="black" stroke-width="4" stroke-miterlimit="10"/>
<path d="M1973.8 2600.33L1974.3 2571.01" stroke="black" stroke-width="4" stroke-miterlimit="10"/>
<path d="M1960.31 2640.74L1960.81 2610.99" stroke="black" stroke-width="4" stroke-miterlimit="10"/>
<path d="M1960.99 2600.6L1961.5 2570.31" stroke="black" stroke-width="4" stroke-miterlimit="10"/>
<path d="M1947.46 2641.88L1947.98 2611.26" stroke="black" stroke-width="4" stroke-miterlimit="10"/>
<path d="M1948.15 2600.87L1948.65 2571.45" stroke="black" stroke-width="4" stroke-miterlimit="10"/>
<path d="M1934.72 2644.02L1935.28 2611.52" stroke="black" stroke-width="4" stroke-miterlimit="10"/>
<path d="M1935.45 2601.13L1935.93 2573.58" stroke="black" stroke-width="4" stroke-miterlimit="10"/>
<path d="M1922.41 2643.18L1922.95 2611.77" stroke="black" stroke-width="4" stroke-miterlimit="10"/>
<path d="M1923.12 2601.39L1923.61 2572.75" stroke="black" stroke-width="4" stroke-miterlimit="10"/>
<path d="M1910.04 2643.87L1910.58 2612.02" stroke="black" stroke-width="4" stroke-miterlimit="10"/>
<path d="M1910.77 2601.64L1911.25 2573.43" stroke="black" stroke-width="4" stroke-miterlimit="10"/>
<path d="M2281.19 2560.73C2280.71 2560.04 2280.42 2559.21 2280.41 2558.3C2280.39 2555.92 2282.32 2553.96 2284.71 2553.91L2559.42 2549.18C2561.81 2549.14 2563.76 2551.04 2563.78 2553.42C2563.8 2555.8 2561.87 2557.76 2559.48 2557.81L2284.77 2562.54C2283.29 2562.57 2281.98 2561.85 2281.19 2560.73Z" stroke="black" stroke-width="4" stroke-miterlimit="10"/>
<path d="M2277.83 2627.87C2277.35 2627.18 2277.06 2626.35 2277.05 2625.44C2277.03 2623.06 2278.96 2621.1 2281.35 2621.05L2556.06 2616.33C2558.45 2616.29 2560.4 2618.19 2560.42 2620.57C2560.44 2622.95 2558.51 2624.91 2556.12 2624.96L2281.41 2629.68C2279.93 2629.71 2278.62 2628.99 2277.83 2627.87Z" stroke="black" stroke-width="4" stroke-miterlimit="10"/>
<path d="M2558.36 2590.05L2543.07 2590.31L2531.24 2590.51L2521.24 2590.69L2510.24 2590.87L2498.7 2591.07L2487.68 2591.26L2477.6 2591.43L2467.51 2591.6L2455.88 2591.81L2445.32 2591.99L2434.09 2592.18L2421.36 2592.4L2409.6 2592.6L2397.41 2592.81L2386.69 2592.99L2375.92 2593.18L2364.84 2593.37L2355.49 2593.53L2344.79 2593.72L2334.09 2593.9L2323.49 2594.08L2313.21 2594.26L2302.89 2594.43L2283.64 2594.76C2282.16 2594.79 2280.85 2594.07 2280.06 2592.95C2279.57 2592.26 2279.29 2591.42 2279.28 2590.52C2279.26 2588.13 2281.19 2586.18 2283.57 2586.13L2303.18 2585.79L2313.49 2585.62L2323.78 2585.44L2334.37 2585.26L2345.08 2585.07L2355.77 2584.89L2365.12 2584.73L2376.21 2584.54L2386.98 2584.35L2397.7 2584.17L2409.89 2583.96L2421.65 2583.76L2434.38 2583.54L2445.6 2583.35L2456.17 2583.17L2467.8 2582.96L2477.88 2582.79L2487.96 2582.62L2498.98 2582.44L2510.51 2582.24L2521.51 2582.05L2531.51 2581.88L2543.34 2581.67L2558.29 2581.42C2560.68 2581.37 2562.63 2583.27 2562.65 2585.65C2562.66 2588.03 2560.74 2589.99 2558.35 2590.04L2558.36 2590.05Z" stroke="black" stroke-width="4" stroke-miterlimit="10"/>
<path d="M2542.19 2616.56L2543.07 2590.31" stroke="black" stroke-width="4" stroke-miterlimit="10"/>
<path d="M2543.35 2581.67L2544.14 2558.08" stroke="black" stroke-width="4" stroke-miterlimit="10"/>
<path d="M2530.41 2615.29L2531.24 2590.51" stroke="black" stroke-width="4" stroke-miterlimit="10"/>
<path d="M2531.53 2581.88L2532.36 2556.81" stroke="black" stroke-width="4" stroke-miterlimit="10"/>
<path d="M2520.39 2616.29L2521.24 2590.68" stroke="black" stroke-width="4" stroke-miterlimit="10"/>
<path d="M2521.53 2582.05L2522.33 2557.81" stroke="black" stroke-width="4" stroke-miterlimit="10"/>
<path d="M2509.4 2616.13L2510.24 2590.87" stroke="black" stroke-width="4" stroke-miterlimit="10"/>
<path d="M2510.52 2582.24L2511.34 2557.65" stroke="black" stroke-width="4" stroke-miterlimit="10"/>
<path d="M2497.84 2616.94L2498.7 2591.07" stroke="black" stroke-width="4" stroke-miterlimit="10"/>
<path d="M2498.99 2582.44L2499.79 2558.45" stroke="black" stroke-width="4" stroke-miterlimit="10"/>
<path d="M2486.81 2617.51L2487.68 2591.26" stroke="black" stroke-width="4" stroke-miterlimit="10"/>
<path d="M2487.97 2582.63L2488.75 2559.02" stroke="black" stroke-width="4" stroke-miterlimit="10"/>
<path d="M2476.7 2618.58L2477.6 2591.44" stroke="black" stroke-width="4" stroke-miterlimit="10"/>
<path d="M2477.89 2582.8L2478.64 2560.09" stroke="black" stroke-width="4" stroke-miterlimit="10"/>
<path d="M2466.58 2619.64L2467.51 2591.6" stroke="black" stroke-width="4" stroke-miterlimit="10"/>
<path d="M2467.8 2582.98L2468.53 2561.16" stroke="black" stroke-width="4" stroke-miterlimit="10"/>
<path d="M2454.99 2618.61L2455.88 2591.81" stroke="black" stroke-width="4" stroke-miterlimit="10"/>
<path d="M2456.17 2583.18L2456.94 2560.14" stroke="black" stroke-width="4" stroke-miterlimit="10"/>
<path d="M2444.42 2618.87L2445.32 2591.98" stroke="black" stroke-width="4" stroke-miterlimit="10"/>
<path d="M2445.6 2583.36L2446.37 2560.38" stroke="black" stroke-width="4" stroke-miterlimit="10"/>
<path d="M2433.22 2618.39L2434.09 2592.18" stroke="black" stroke-width="4" stroke-miterlimit="10"/>
<path d="M2434.38 2583.55L2435.17 2559.9" stroke="black" stroke-width="4" stroke-miterlimit="10"/>
<path d="M2420.5 2618.51L2421.37 2592.4" stroke="black" stroke-width="4" stroke-miterlimit="10"/>
<path d="M2421.66 2583.77L2422.44 2560.03" stroke="black" stroke-width="4" stroke-miterlimit="10"/>
<path d="M2408.76 2618.35L2409.61 2592.6" stroke="black" stroke-width="4" stroke-miterlimit="10"/>
<path d="M2409.9 2583.97L2410.7 2559.88" stroke="black" stroke-width="4" stroke-miterlimit="10"/>
<path d="M2396.59 2617.99L2397.43 2592.81" stroke="black" stroke-width="4" stroke-miterlimit="10"/>
<path d="M2397.71 2584.18L2398.53 2559.51" stroke="black" stroke-width="4" stroke-miterlimit="10"/>
<path d="M2385.84 2618.83L2386.7 2592.99" stroke="black" stroke-width="4" stroke-miterlimit="10"/>
<path d="M2386.99 2584.36L2387.79 2560.34" stroke="black" stroke-width="4" stroke-miterlimit="10"/>
<path d="M2375.09 2618.36L2375.93 2593.18" stroke="black" stroke-width="4" stroke-miterlimit="10"/>
<path d="M2376.22 2584.55L2377.03 2559.87" stroke="black" stroke-width="4" stroke-miterlimit="10"/>
<path d="M2364.01 2618.5L2364.85 2593.37" stroke="black" stroke-width="4" stroke-miterlimit="10"/>
<path d="M2365.13 2584.74L2365.95 2560.02" stroke="black" stroke-width="4" stroke-miterlimit="10"/>
<path d="M2354.65 2619.04L2355.5 2593.53" stroke="black" stroke-width="4" stroke-miterlimit="10"/>
<path d="M2355.78 2584.9L2356.59 2560.55" stroke="black" stroke-width="4" stroke-miterlimit="10"/>
<path d="M2343.98 2618.42L2344.8 2593.72" stroke="black" stroke-width="4" stroke-miterlimit="10"/>
<path d="M2345.09 2585.09L2345.92 2559.94" stroke="black" stroke-width="4" stroke-miterlimit="10"/>
<path d="M2333.25 2619.33L2334.09 2593.9" stroke="black" stroke-width="4" stroke-miterlimit="10"/>
<path d="M2334.38 2585.27L2335.19 2560.85" stroke="black" stroke-width="4" stroke-miterlimit="10"/>
<path d="M2322.6 2621.07L2323.5 2594.08" stroke="black" stroke-width="4" stroke-miterlimit="10"/>
<path d="M2323.79 2585.45L2324.55 2562.58" stroke="black" stroke-width="4" stroke-miterlimit="10"/>
<path d="M2312.34 2620.33L2313.22 2594.26" stroke="black" stroke-width="4" stroke-miterlimit="10"/>
<path d="M2313.5 2585.63L2314.29 2561.86" stroke="black" stroke-width="4" stroke-miterlimit="10"/>
<path d="M2302.02 2620.87L2302.9 2594.43" stroke="black" stroke-width="4" stroke-miterlimit="10"/>
<path d="M2303.19 2585.81L2303.97 2562.39" stroke="black" stroke-width="4" stroke-miterlimit="10"/>
<path d="M2501.5 3584.96C2500.66 3584.96 2499.81 3584.72 2499.06 3584.21C2497.09 3582.87 2496.58 3580.17 2497.91 3578.18L2650.77 3349.87C2652.1 3347.88 2654.77 3347.36 2656.74 3348.71C2658.71 3350.05 2659.22 3352.75 2657.89 3354.74L2505.03 3583.05C2504.21 3584.28 2502.87 3584.95 2501.5 3584.96Z" stroke="black" stroke-width="4" stroke-miterlimit="10"/>
<path d="M2554.71 3626.02C2553.87 3626.02 2553.02 3625.78 2552.27 3625.27C2550.3 3623.93 2549.79 3621.23 2551.12 3619.24L2703.98 3390.93C2705.31 3388.94 2707.98 3388.42 2709.95 3389.77C2711.92 3391.11 2712.43 3393.81 2711.1 3395.8L2558.24 3624.11C2557.42 3625.34 2556.08 3626.01 2554.71 3626.02Z" stroke="black" stroke-width="4" stroke-miterlimit="10"/>
<path d="M2683.71 3374.06L2675.2 3386.77L2668.61 3396.6L2663.05 3404.91L2656.92 3414.05L2650.5 3423.64L2644.37 3432.8L2638.76 3441.18L2633.14 3449.56L2626.67 3459.23L2620.79 3468L2614.54 3477.33L2607.46 3487.91L2600.92 3497.68L2594.14 3507.81L2588.17 3516.72L2582.18 3525.68L2576.01 3534.89L2570.81 3542.66L2564.86 3551.55L2558.9 3560.44L2553 3569.25L2547.28 3577.8L2541.53 3586.37L2530.82 3602.37C2530 3603.6 2528.66 3604.27 2527.29 3604.28C2526.45 3604.28 2525.6 3604.04 2524.85 3603.53C2522.88 3602.18 2522.37 3599.48 2523.7 3597.5L2534.61 3581.2L2540.35 3572.64L2546.07 3564.09L2551.97 3555.29L2557.93 3546.39L2563.88 3537.5L2569.08 3529.73L2575.25 3520.51L2581.24 3511.55L2587.21 3502.65L2593.99 3492.52L2600.53 3482.75L2607.61 3472.17L2613.86 3462.85L2619.74 3454.07L2626.21 3444.4L2631.82 3436.02L2637.43 3427.64L2643.57 3418.48L2649.99 3408.9L2656.11 3399.75L2661.68 3391.44L2668.26 3381.61L2676.58 3369.19C2677.91 3367.2 2680.57 3366.69 2682.54 3368.03C2684.5 3369.38 2685.02 3372.08 2683.69 3374.07L2683.71 3374.06Z" stroke="black" stroke-width="4" stroke-miterlimit="10"/>
<path d="M2696.27 3402.46L2675.2 3386.77" stroke="black" stroke-width="4" stroke-miterlimit="10"/>
<path d="M2668.27 3381.61L2649.34 3367.5" stroke="black" stroke-width="4" stroke-miterlimit="10"/>
<path d="M2688.5 3411.41L2668.61 3396.59" stroke="black" stroke-width="4" stroke-miterlimit="10"/>
<path d="M2661.69 3391.43L2641.58 3376.44" stroke="black" stroke-width="4" stroke-miterlimit="10"/>
<path d="M2683.6 3420.21L2663.06 3404.9" stroke="black" stroke-width="4" stroke-miterlimit="10"/>
<path d="M2656.13 3399.74L2636.68 3385.25" stroke="black" stroke-width="4" stroke-miterlimit="10"/>
<path d="M2677.2 3429.15L2656.93 3414.04" stroke="black" stroke-width="4" stroke-miterlimit="10"/>
<path d="M2650.01 3408.89L2630.27 3394.18" stroke="black" stroke-width="4" stroke-miterlimit="10"/>
<path d="M2671.26 3439.1L2650.51 3423.64" stroke="black" stroke-width="4" stroke-miterlimit="10"/>
<path d="M2643.59 3418.48L2624.34 3404.13" stroke="black" stroke-width="4" stroke-miterlimit="10"/>
<path d="M2665.44 3448.49L2644.38 3432.79" stroke="black" stroke-width="4" stroke-miterlimit="10"/>
<path d="M2637.45 3427.63L2618.52 3413.52" stroke="black" stroke-width="4" stroke-miterlimit="10"/>
<path d="M2660.55 3457.4L2638.77 3441.17" stroke="black" stroke-width="4" stroke-miterlimit="10"/>
<path d="M2631.85 3436.01L2613.62 3422.43" stroke="black" stroke-width="4" stroke-miterlimit="10"/>
<path d="M2655.65 3466.31L2633.16 3449.55" stroke="black" stroke-width="4" stroke-miterlimit="10"/>
<path d="M2626.24 3444.39L2608.73 3431.35" stroke="black" stroke-width="4" stroke-miterlimit="10"/>
<path d="M2648.19 3475.25L2626.69 3459.22" stroke="black" stroke-width="4" stroke-miterlimit="10"/>
<path d="M2619.77 3454.06L2601.28 3440.28" stroke="black" stroke-width="4" stroke-miterlimit="10"/>
<path d="M2642.37 3484.07L2620.81 3468" stroke="black" stroke-width="4" stroke-miterlimit="10"/>
<path d="M2613.89 3462.84L2595.45 3449.1" stroke="black" stroke-width="4" stroke-miterlimit="10"/>
<path d="M2635.59 3493L2614.56 3477.33" stroke="black" stroke-width="4" stroke-miterlimit="10"/>
<path d="M2607.64 3472.17L2588.67 3458.03" stroke="black" stroke-width="4" stroke-miterlimit="10"/>
<path d="M2628.43 3503.52L2607.48 3487.91" stroke="black" stroke-width="4" stroke-miterlimit="10"/>
<path d="M2600.56 3482.74L2581.51 3468.55" stroke="black" stroke-width="4" stroke-miterlimit="10"/>
<path d="M2621.6 3513.07L2600.94 3497.67" stroke="black" stroke-width="4" stroke-miterlimit="10"/>
<path d="M2594.02 3492.51L2574.69 3478.11" stroke="black" stroke-width="4" stroke-miterlimit="10"/>
<path d="M2614.36 3522.86L2594.15 3507.8" stroke="black" stroke-width="4" stroke-miterlimit="10"/>
<path d="M2587.23 3502.65L2567.44 3487.9" stroke="black" stroke-width="4" stroke-miterlimit="10"/>
<path d="M2608.91 3532.16L2588.19 3516.71" stroke="black" stroke-width="4" stroke-miterlimit="10"/>
<path d="M2581.27 3511.55L2561.99 3497.19" stroke="black" stroke-width="4" stroke-miterlimit="10"/>
<path d="M2602.4 3540.72L2582.2 3525.67" stroke="black" stroke-width="4" stroke-miterlimit="10"/>
<path d="M2575.28 3520.51L2555.47 3505.76" stroke="black" stroke-width="4" stroke-miterlimit="10"/>
<path d="M2596.19 3549.9L2576.03 3534.87" stroke="black" stroke-width="4" stroke-miterlimit="10"/>
<path d="M2569.11 3529.72L2549.27 3514.94" stroke="black" stroke-width="4" stroke-miterlimit="10"/>
<path d="M2591.29 3557.9L2570.82 3542.64" stroke="black" stroke-width="4" stroke-miterlimit="10"/>
<path d="M2563.9 3537.49L2544.37 3522.93" stroke="black" stroke-width="4" stroke-miterlimit="10"/>
<path d="M2584.69 3566.31L2564.88 3551.54" stroke="black" stroke-width="4" stroke-miterlimit="10"/>
<path d="M2557.95 3546.38L2537.78 3531.34" stroke="black" stroke-width="4" stroke-miterlimit="10"/>
<path d="M2579.32 3575.64L2558.92 3560.43" stroke="black" stroke-width="4" stroke-miterlimit="10"/>
<path d="M2552 3555.28L2532.4 3540.68" stroke="black" stroke-width="4" stroke-miterlimit="10"/>
<path d="M2574.67 3585.37L2553.02 3569.24" stroke="black" stroke-width="4" stroke-miterlimit="10"/>
<path d="M2546.1 3564.08L2527.76 3550.4" stroke="black" stroke-width="4" stroke-miterlimit="10"/>
<path d="M2568.22 3593.38L2547.3 3577.79" stroke="black" stroke-width="4" stroke-miterlimit="10"/>
<path d="M2540.38 3572.63L2521.3 3558.42" stroke="black" stroke-width="4" stroke-miterlimit="10"/>
<path d="M2562.76 3602.17L2541.55 3586.36" stroke="black" stroke-width="4" stroke-miterlimit="10"/>
<path d="M2534.64 3581.2L2515.85 3567.19" stroke="black" stroke-width="4" stroke-miterlimit="10"/>
<path d="M815.98 1903.51C815.14 1903.51 814.29 1903.25 813.55 1902.73C811.6 1901.36 811.13 1898.65 812.48 1896.68L968.42 1670.46C969.78 1668.49 972.45 1668.01 974.4 1669.38C976.35 1670.75 976.82 1673.46 975.47 1675.43L819.53 1901.65C818.69 1902.87 817.34 1903.52 815.97 1903.51H815.98Z" stroke="black" stroke-width="4" stroke-miterlimit="10"/>
<path d="M868.631 1945.28C867.791 1945.28 866.941 1945.02 866.201 1944.5C864.251 1943.13 863.781 1940.42 865.131 1938.45L1021.07 1712.23C1022.43 1710.26 1025.1 1709.78 1027.05 1711.15C1029 1712.52 1029.47 1715.23 1028.12 1717.2L872.181 1943.42C871.341 1944.64 869.991 1945.29 868.621 1945.28H868.631Z" stroke="black" stroke-width="4" stroke-miterlimit="10"/>
<path d="M1001.03 1695.09L992.351 1707.68L985.631 1717.42L979.961 1725.65L973.711 1734.71L967.161 1744.22L960.911 1753.29L955.191 1761.59L949.461 1769.89L942.861 1779.47L936.861 1788.16L930.491 1797.41L923.271 1807.89L916.591 1817.57L909.671 1827.6L903.581 1836.43L897.471 1845.3L891.181 1854.42L885.871 1862.12L879.801 1870.93L873.721 1879.74L867.701 1888.47L861.861 1896.94L856.001 1905.43L845.081 1921.28C844.241 1922.5 842.891 1923.15 841.531 1923.14C840.691 1923.14 839.841 1922.88 839.101 1922.36C837.151 1920.98 836.681 1918.28 838.031 1916.32L849.161 1900.17L855.011 1891.69L860.851 1883.21L866.871 1874.49L872.951 1865.67L879.021 1856.87L884.331 1849.17L890.621 1840.04L896.731 1831.17L902.821 1822.35L909.741 1812.31L916.421 1802.63L923.641 1792.15L930.011 1782.91L936.011 1774.21L942.611 1764.63L948.331 1756.33L954.051 1748.03L960.311 1738.96L966.861 1729.46L973.101 1720.4L978.781 1712.17L985.491 1702.43L993.981 1690.12C995.331 1688.15 998.011 1687.67 999.961 1689.04C1001.9 1690.42 1002.38 1693.12 1001.03 1695.09Z" stroke="black" stroke-width="4" stroke-miterlimit="10"/>
<path d="M1013.2 1723.66L992.352 1707.68" stroke="black" stroke-width="4" stroke-miterlimit="10"/>
<path d="M985.49 1702.43L966.75 1688.07" stroke="black" stroke-width="4" stroke-miterlimit="10"/>
<path d="M1005.31 1732.51L985.629 1717.42" stroke="black" stroke-width="4" stroke-miterlimit="10"/>
<path d="M978.781 1712.17L958.871 1696.9" stroke="black" stroke-width="4" stroke-miterlimit="10"/>
<path d="M1000.3 1741.24L979.961 1725.65" stroke="black" stroke-width="4" stroke-miterlimit="10"/>
<path d="M973.102 1720.4L953.852 1705.65" stroke="black" stroke-width="4" stroke-miterlimit="10"/>
<path d="M993.771 1750.09L973.711 1734.71" stroke="black" stroke-width="4" stroke-miterlimit="10"/>
<path d="M966.86 1729.46L947.33 1714.49" stroke="black" stroke-width="4" stroke-miterlimit="10"/>
<path d="M987.7 1759.96L967.16 1744.21" stroke="black" stroke-width="4" stroke-miterlimit="10"/>
<path d="M960.312 1738.96L941.262 1724.36" stroke="black" stroke-width="4" stroke-miterlimit="10"/>
<path d="M981.75 1769.27L960.91 1753.29" stroke="black" stroke-width="4" stroke-miterlimit="10"/>
<path d="M954.051 1748.03L935.311 1733.66" stroke="black" stroke-width="4" stroke-miterlimit="10"/>
<path d="M976.741 1778.11L955.191 1761.59" stroke="black" stroke-width="4" stroke-miterlimit="10"/>
<path d="M948.329 1756.34L930.289 1742.51" stroke="black" stroke-width="4" stroke-miterlimit="10"/>
<path d="M971.731 1786.96L949.461 1769.89" stroke="black" stroke-width="4" stroke-miterlimit="10"/>
<path d="M942.611 1764.64L925.281 1751.36" stroke="black" stroke-width="4" stroke-miterlimit="10"/>
<path d="M964.149 1795.79L942.859 1779.48" stroke="black" stroke-width="4" stroke-miterlimit="10"/>
<path d="M936.011 1774.22L917.711 1760.19" stroke="black" stroke-width="4" stroke-miterlimit="10"/>
<path d="M958.209 1804.53L936.859 1788.17" stroke="black" stroke-width="4" stroke-miterlimit="10"/>
<path d="M930.012 1782.92L911.762 1768.93" stroke="black" stroke-width="4" stroke-miterlimit="10"/>
<path d="M951.3 1813.37L930.49 1797.41" stroke="black" stroke-width="4" stroke-miterlimit="10"/>
<path d="M923.639 1792.16L904.859 1777.76" stroke="black" stroke-width="4" stroke-miterlimit="10"/>
<path d="M944 1823.79L923.27 1807.9" stroke="black" stroke-width="4" stroke-miterlimit="10"/>
<path d="M916.421 1802.64L897.561 1788.19" stroke="black" stroke-width="4" stroke-miterlimit="10"/>
<path d="M937.05 1833.25L916.59 1817.57" stroke="black" stroke-width="4" stroke-miterlimit="10"/>
<path d="M909.739 1812.32L890.609 1797.65" stroke="black" stroke-width="4" stroke-miterlimit="10"/>
<path d="M929.67 1842.94L909.67 1827.61" stroke="black" stroke-width="4" stroke-miterlimit="10"/>
<path d="M902.82 1822.36L883.23 1807.34" stroke="black" stroke-width="4" stroke-miterlimit="10"/>
<path d="M924.1 1852.16L903.58 1836.44" stroke="black" stroke-width="4" stroke-miterlimit="10"/>
<path d="M896.73 1831.18L877.66 1816.56" stroke="black" stroke-width="4" stroke-miterlimit="10"/>
<path d="M917.471 1860.63L897.471 1845.31" stroke="black" stroke-width="4" stroke-miterlimit="10"/>
<path d="M890.62 1840.06L871.02 1825.04" stroke="black" stroke-width="4" stroke-miterlimit="10"/>
<path d="M911.14 1869.73L891.18 1854.44" stroke="black" stroke-width="4" stroke-miterlimit="10"/>
<path d="M884.331 1849.19L864.691 1834.14" stroke="black" stroke-width="4" stroke-miterlimit="10"/>
<path d="M906.131 1877.67L885.871 1862.13" stroke="black" stroke-width="4" stroke-miterlimit="10"/>
<path d="M879.021 1856.89L859.691 1842.06" stroke="black" stroke-width="4" stroke-miterlimit="10"/>
<path d="M899.421 1885.98L879.801 1870.95" stroke="black" stroke-width="4" stroke-miterlimit="10"/>
<path d="M872.95 1865.69L852.98 1850.39" stroke="black" stroke-width="4" stroke-miterlimit="10"/>
<path d="M893.921 1895.24L873.721 1879.76" stroke="black" stroke-width="4" stroke-miterlimit="10"/>
<path d="M866.87 1874.51L847.48 1859.65" stroke="black" stroke-width="4" stroke-miterlimit="10"/>
<path d="M889.141 1904.91L867.711 1888.49" stroke="black" stroke-width="4" stroke-miterlimit="10"/>
<path d="M860.859 1883.23L842.699 1869.31" stroke="black" stroke-width="4" stroke-miterlimit="10"/>
<path d="M882.581 1912.83L861.871 1896.95" stroke="black" stroke-width="4" stroke-miterlimit="10"/>
<path d="M855.021 1891.71L836.141 1877.23" stroke="black" stroke-width="4" stroke-miterlimit="10"/>
<path d="M877.012 1921.54L856.012 1905.45" stroke="black" stroke-width="4" stroke-miterlimit="10"/>
<path d="M849.17 1900.19L830.57 1885.94" stroke="black" stroke-width="4" stroke-miterlimit="10"/>
<path d="M1115.21 1472.85C1114.37 1472.85 1113.52 1472.59 1112.78 1472.07C1110.83 1470.7 1110.36 1467.99 1111.71 1466.02L1267.65 1239.8C1269.01 1237.83 1271.68 1237.35 1273.63 1238.72C1275.58 1240.09 1276.05 1242.8 1274.7 1244.77L1118.76 1470.99C1117.92 1472.21 1116.57 1472.86 1115.2 1472.85H1115.21Z" stroke="black" stroke-width="4" stroke-miterlimit="10"/>
<path d="M1167.86 1514.63C1167.02 1514.63 1166.17 1514.37 1165.43 1513.85C1163.48 1512.48 1163.01 1509.77 1164.36 1507.8L1320.3 1281.58C1321.66 1279.61 1324.33 1279.13 1326.28 1280.5C1328.23 1281.87 1328.7 1284.58 1327.35 1286.55L1171.41 1512.77C1170.57 1513.99 1169.22 1514.64 1167.85 1514.63H1167.86Z" stroke="black" stroke-width="4" stroke-miterlimit="10"/>
<path d="M1300.26 1264.43L1291.58 1277.02L1284.86 1286.76L1279.19 1294.99L1272.94 1304.05L1266.39 1313.56L1260.14 1322.63L1254.42 1330.93L1248.69 1339.23L1242.09 1348.81L1236.09 1357.5L1229.72 1366.75L1222.5 1377.23L1215.82 1386.91L1208.9 1396.94L1202.81 1405.77L1196.7 1414.64L1190.41 1423.76L1185.1 1431.46L1179.03 1440.27L1172.95 1449.08L1166.93 1457.81L1161.09 1466.28L1155.23 1474.77L1144.31 1490.62C1143.47 1491.84 1142.12 1492.49 1140.76 1492.48C1139.92 1492.48 1139.07 1492.22 1138.33 1491.7C1136.38 1490.32 1135.91 1487.62 1137.26 1485.66L1148.39 1469.51L1154.24 1461.03L1160.08 1452.55L1166.1 1443.83L1172.18 1435.01L1178.25 1426.21L1183.56 1418.51L1189.85 1409.38L1195.96 1400.51L1202.05 1391.69L1208.97 1381.65L1215.65 1371.97L1222.87 1361.49L1229.24 1352.25L1235.24 1343.55L1241.84 1333.97L1247.56 1325.67L1253.28 1317.37L1259.54 1308.3L1266.09 1298.8L1272.33 1289.74L1278.01 1281.51L1284.72 1271.77L1293.21 1259.46C1294.56 1257.49 1297.24 1257.01 1299.19 1258.38C1301.13 1259.76 1301.61 1262.46 1300.26 1264.43Z" stroke="black" stroke-width="4" stroke-miterlimit="10"/>
<path d="M1312.43 1293.01L1291.58 1277.03" stroke="black" stroke-width="4" stroke-miterlimit="10"/>
<path d="M1284.72 1271.77L1265.98 1257.41" stroke="black" stroke-width="4" stroke-miterlimit="10"/>
<path d="M1304.54 1301.85L1284.86 1286.76" stroke="black" stroke-width="4" stroke-miterlimit="10"/>
<path d="M1278.01 1281.51L1258.1 1266.25" stroke="black" stroke-width="4" stroke-miterlimit="10"/>
<path d="M1299.52 1310.58L1279.19 1295" stroke="black" stroke-width="4" stroke-miterlimit="10"/>
<path d="M1272.33 1289.74L1253.08 1274.99" stroke="black" stroke-width="4" stroke-miterlimit="10"/>
<path d="M1293 1319.43L1272.94 1304.05" stroke="black" stroke-width="4" stroke-miterlimit="10"/>
<path d="M1266.09 1298.81L1246.55 1283.83" stroke="black" stroke-width="4" stroke-miterlimit="10"/>
<path d="M1286.93 1329.3L1266.39 1313.56" stroke="black" stroke-width="4" stroke-miterlimit="10"/>
<path d="M1259.54 1308.3L1240.49 1293.7" stroke="black" stroke-width="4" stroke-miterlimit="10"/>
<path d="M1280.98 1338.61L1260.14 1322.63" stroke="black" stroke-width="4" stroke-miterlimit="10"/>
<path d="M1253.28 1317.38L1234.54 1303.01" stroke="black" stroke-width="4" stroke-miterlimit="10"/>
<path d="M1275.97 1347.46L1254.42 1330.93" stroke="black" stroke-width="4" stroke-miterlimit="10"/>
<path d="M1247.56 1325.68L1229.52 1311.85" stroke="black" stroke-width="4" stroke-miterlimit="10"/>
<path d="M1270.96 1356.3L1248.69 1339.24" stroke="black" stroke-width="4" stroke-miterlimit="10"/>
<path d="M1241.84 1333.98L1224.51 1320.71" stroke="black" stroke-width="4" stroke-miterlimit="10"/>
<path d="M1263.37 1365.13L1242.09 1348.82" stroke="black" stroke-width="4" stroke-miterlimit="10"/>
<path d="M1235.24 1343.57L1216.94 1329.54" stroke="black" stroke-width="4" stroke-miterlimit="10"/>
<path d="M1257.43 1373.88L1236.09 1357.51" stroke="black" stroke-width="4" stroke-miterlimit="10"/>
<path d="M1229.24 1352.27L1210.99 1338.27" stroke="black" stroke-width="4" stroke-miterlimit="10"/>
<path d="M1250.53 1382.71L1229.72 1366.76" stroke="black" stroke-width="4" stroke-miterlimit="10"/>
<path d="M1222.87 1361.5L1204.09 1347.11" stroke="black" stroke-width="4" stroke-miterlimit="10"/>
<path d="M1243.23 1393.13L1222.49 1377.24" stroke="black" stroke-width="4" stroke-miterlimit="10"/>
<path d="M1215.64 1371.99L1196.79 1357.54" stroke="black" stroke-width="4" stroke-miterlimit="10"/>
<path d="M1236.27 1402.59L1215.82 1386.92" stroke="black" stroke-width="4" stroke-miterlimit="10"/>
<path d="M1208.97 1381.66L1189.84 1367" stroke="black" stroke-width="4" stroke-miterlimit="10"/>
<path d="M1228.9 1412.28L1208.9 1396.95" stroke="black" stroke-width="4" stroke-miterlimit="10"/>
<path d="M1202.05 1391.7L1182.46 1376.69" stroke="black" stroke-width="4" stroke-miterlimit="10"/>
<path d="M1223.33 1421.51L1202.81 1405.78" stroke="black" stroke-width="4" stroke-miterlimit="10"/>
<path d="M1195.96 1400.53L1176.88 1385.9" stroke="black" stroke-width="4" stroke-miterlimit="10"/>
<path d="M1216.69 1429.98L1196.7 1414.65" stroke="black" stroke-width="4" stroke-miterlimit="10"/>
<path d="M1189.85 1409.4L1170.25 1394.38" stroke="black" stroke-width="4" stroke-miterlimit="10"/>
<path d="M1210.37 1439.08L1190.41 1423.78" stroke="black" stroke-width="4" stroke-miterlimit="10"/>
<path d="M1183.56 1418.53L1163.92 1403.48" stroke="black" stroke-width="4" stroke-miterlimit="10"/>
<path d="M1205.36 1447.01L1185.1 1431.48" stroke="black" stroke-width="4" stroke-miterlimit="10"/>
<path d="M1178.25 1426.23L1158.91 1411.41" stroke="black" stroke-width="4" stroke-miterlimit="10"/>
<path d="M1198.65 1455.32L1179.03 1440.29" stroke="black" stroke-width="4" stroke-miterlimit="10"/>
<path d="M1172.18 1435.04L1152.21 1419.73" stroke="black" stroke-width="4" stroke-miterlimit="10"/>
<path d="M1193.14 1464.58L1172.95 1449.1" stroke="black" stroke-width="4" stroke-miterlimit="10"/>
<path d="M1166.1 1443.86L1146.71 1428.99" stroke="black" stroke-width="4" stroke-miterlimit="10"/>
<path d="M1188.37 1474.26L1166.94 1457.83" stroke="black" stroke-width="4" stroke-miterlimit="10"/>
<path d="M1160.09 1452.58L1141.93 1438.65" stroke="black" stroke-width="4" stroke-miterlimit="10"/>
<path d="M1181.81 1482.17L1161.1 1466.3" stroke="black" stroke-width="4" stroke-miterlimit="10"/>
<path d="M1154.25 1461.05L1135.37 1446.58" stroke="black" stroke-width="4" stroke-miterlimit="10"/>
<path d="M1176.23 1490.88L1155.24 1474.79" stroke="black" stroke-width="4" stroke-miterlimit="10"/>
<path d="M1148.4 1469.54L1129.8 1455.28" stroke="black" stroke-width="4" stroke-miterlimit="10"/>
<path d="M1763.17 3849.14C1761.81 3851.15 1759.12 3851.74 1757.04 3850.49L1608.73 3761.48C1607.39 3760.68 1606.61 3759.3 1606.51 3757.85C1606.45 3756.95 1606.66 3756.03 1607.15 3755.22C1608.45 3753.06 1611.26 3752.35 1613.42 3753.65L1632.13 3764.88L1650.77 3776.07L1761.03 3842.25L1761.71 3842.66C1763.96 3844.01 1764.61 3846.97 1763.14 3849.14H1763.17Z" stroke="black" stroke-width="4" stroke-miterlimit="10"/>
<path d="M1783.95 3818.53C1782.59 3820.53 1779.9 3821.12 1777.82 3819.88L1776.34 3818.99L1766.17 3812.89L1754.64 3805.98L1744.01 3799.59L1732.99 3792.96L1723.28 3787.13L1713.52 3781.29L1703.49 3775.27L1695.04 3770.19L1685.36 3764.38L1675.67 3758.56L1666.08 3752.8L1656.78 3747.21L1647.44 3741.61L1630.02 3731.15C1628.69 3730.34 1627.9 3728.97 1627.81 3727.52C1627.75 3726.62 1627.96 3725.7 1628.45 3724.89C1629.76 3722.72 1632.56 3722.02 1634.71 3723.32L1652.46 3733.97L1661.79 3739.57L1671.11 3745.16L1680.69 3750.91L1690.38 3756.72L1700.05 3762.53L1708.52 3767.61L1718.55 3773.64L1728.3 3779.49L1738 3785.3L1749.03 3791.93L1759.66 3798.32L1771.19 3805.23L1781.34 3811.33L1782.51 3812.04C1784.76 3813.39 1785.41 3816.35 1783.94 3818.52L1783.95 3818.53Z" stroke="black" stroke-width="4" stroke-miterlimit="10"/>
<path d="M1760.7 3842.8L1776.34 3818.98" stroke="black" stroke-width="4" stroke-miterlimit="10"/>
<path d="M1781.35 3811.34L1794.71 3790.98" stroke="black" stroke-width="4" stroke-miterlimit="10"/>
<path d="M1750.93 3836.11L1766.17 3812.88" stroke="black" stroke-width="4" stroke-miterlimit="10"/>
<path d="M1771.19 3805.24L1784.94 3784.29" stroke="black" stroke-width="4" stroke-miterlimit="10"/>
<path d="M1739.47 3829.11L1754.65 3805.97" stroke="black" stroke-width="4" stroke-miterlimit="10"/>
<path d="M1759.67 3798.33L1773.47 3777.29" stroke="black" stroke-width="4" stroke-miterlimit="10"/>
<path d="M1729.04 3822.41L1744.01 3799.58" stroke="black" stroke-width="4" stroke-miterlimit="10"/>
<path d="M1749.03 3791.94L1763.04 3770.59" stroke="black" stroke-width="4" stroke-miterlimit="10"/>
<path d="M1718.34 3815.28L1732.98 3792.96" stroke="black" stroke-width="4" stroke-miterlimit="10"/>
<path d="M1737.99 3785.32L1752.34 3763.46" stroke="black" stroke-width="4" stroke-miterlimit="10"/>
<path d="M1708.25 3810.03L1723.28 3787.14" stroke="black" stroke-width="4" stroke-miterlimit="10"/>
<path d="M1728.3 3779.49L1742.26 3758.21" stroke="black" stroke-width="4" stroke-miterlimit="10"/>
<path d="M1698.88 3803.59L1713.52 3781.29" stroke="black" stroke-width="4" stroke-miterlimit="10"/>
<path d="M1718.54 3773.64L1732.89 3751.77" stroke="black" stroke-width="4" stroke-miterlimit="10"/>
<path d="M1688.88 3797.53L1703.49 3775.26" stroke="black" stroke-width="4" stroke-miterlimit="10"/>
<path d="M1708.5 3767.62L1722.88 3745.71" stroke="black" stroke-width="4" stroke-miterlimit="10"/>
<path d="M1680.19 3792.79L1695.03 3770.18" stroke="black" stroke-width="4" stroke-miterlimit="10"/>
<path d="M1700.04 3762.54L1714.2 3740.97" stroke="black" stroke-width="4" stroke-miterlimit="10"/>
<path d="M1670.98 3786.26L1685.34 3764.37" stroke="black" stroke-width="4" stroke-miterlimit="10"/>
<path d="M1690.36 3756.73L1704.98 3734.45" stroke="black" stroke-width="4" stroke-miterlimit="10"/>
<path d="M1660.87 3781.09L1675.66 3758.56" stroke="black" stroke-width="4" stroke-miterlimit="10"/>
<path d="M1680.67 3750.92L1694.87 3729.27" stroke="black" stroke-width="4" stroke-miterlimit="10"/>
<path d="M1650.37 3776.71L1666.06 3752.8" stroke="black" stroke-width="4" stroke-miterlimit="10"/>
<path d="M1671.08 3745.16L1684.38 3724.9" stroke="black" stroke-width="4" stroke-miterlimit="10"/>
<path d="M1641.59 3770.32L1656.76 3747.21" stroke="black" stroke-width="4" stroke-miterlimit="10"/>
<path d="M1661.77 3739.57L1675.59 3718.5" stroke="black" stroke-width="4" stroke-miterlimit="10"/>
<path d="M1632.04 3765.03L1647.42 3741.6" stroke="black" stroke-width="4" stroke-miterlimit="10"/>
<path d="M1652.44 3733.97L1666.06 3713.22" stroke="black" stroke-width="4" stroke-miterlimit="10"/>
<path d="M1803.14 3790.25C1801.78 3792.25 1799.09 3792.84 1797.01 3791.6L1784.91 3784.35L1773.38 3777.42L1762.74 3771.04L1751.71 3764.4L1742.02 3758.59L1732.26 3752.74L1722.23 3746.72L1713.77 3741.64L1704.09 3735.83L1694.39 3730.01L1675.5 3718.66L1648.78 3702.63C1647.45 3701.82 1646.66 3700.44 1646.57 3698.99C1646.52 3698.1 1646.72 3697.19 1647.22 3696.36C1648.51 3694.2 1651.32 3693.49 1653.48 3694.79L1801.72 3783.76C1803.97 3785.11 1804.62 3788.07 1803.15 3790.24L1803.14 3790.25Z" stroke="black" stroke-width="4" stroke-miterlimit="10"/>
<path d="M1498.84 902.05C1500.74 903.55 1501.14 906.28 1499.74 908.26L1400.19 1049.71C1399.3 1050.99 1397.86 1051.66 1396.41 1051.66C1395.51 1051.66 1394.61 1051.38 1393.83 1050.83C1391.77 1049.38 1391.27 1046.52 1392.72 1044.46L1405.28 1026.62L1417.78 1008.83L1491.79 903.66L1492.25 903C1493.76 900.86 1496.76 900.42 1498.81 902.04L1498.84 902.05Z" stroke="black" stroke-width="4" stroke-miterlimit="10"/>
<path d="M1469.82 879.1C1471.72 880.6 1472.11 883.33 1470.72 885.31L1469.73 886.72L1462.91 896.42L1455.18 907.41L1448.04 917.56L1440.63 928.07L1434.11 937.33L1427.57 946.64L1420.84 956.2L1415.16 964.27L1408.67 973.5L1402.17 982.75L1395.73 991.9L1389.48 1000.77L1383.21 1009.68L1371.52 1026.3C1370.62 1027.57 1369.19 1028.26 1367.74 1028.24C1366.84 1028.24 1365.94 1027.96 1365.16 1027.41C1363.09 1025.95 1362.6 1023.1 1364.05 1021.05L1375.97 1004.12L1382.24 995.22L1388.49 986.34L1394.92 977.2L1401.42 967.96L1407.91 958.73L1413.59 950.65L1420.33 941.07L1426.87 931.77L1433.37 922.51L1440.78 911.98L1447.93 901.84L1455.66 890.85L1462.48 881.17L1463.27 880.04C1464.78 877.9 1467.78 877.46 1469.83 879.09L1469.82 879.1Z" stroke="black" stroke-width="4" stroke-miterlimit="10"/>
<path d="M1492.34 904.051L1469.72 886.73" stroke="black" stroke-width="4" stroke-miterlimit="10"/>
<path d="M1462.46 881.17L1443.13 866.36" stroke="black" stroke-width="4" stroke-miterlimit="10"/>
<path d="M1484.96 913.31L1462.9 896.42" stroke="black" stroke-width="4" stroke-miterlimit="10"/>
<path d="M1455.64 890.86L1435.74 875.62" stroke="black" stroke-width="4" stroke-miterlimit="10"/>
<path d="M1477.14 924.23L1455.17 907.41" stroke="black" stroke-width="4" stroke-miterlimit="10"/>
<path d="M1447.91 901.851L1427.93 886.551" stroke="black" stroke-width="4" stroke-miterlimit="10"/>
<path d="M1469.7 934.151L1448.02 917.551" stroke="black" stroke-width="4" stroke-miterlimit="10"/>
<path d="M1440.77 911.991L1420.49 896.471" stroke="black" stroke-width="4" stroke-miterlimit="10"/>
<path d="M1461.81 944.3L1440.62 928.07" stroke="black" stroke-width="4" stroke-miterlimit="10"/>
<path d="M1433.36 922.52L1412.6 906.63" stroke="black" stroke-width="4" stroke-miterlimit="10"/>
<path d="M1455.84 953.98L1434.1 937.33" stroke="black" stroke-width="4" stroke-miterlimit="10"/>
<path d="M1426.84 931.77L1406.63 916.29" stroke="black" stroke-width="4" stroke-miterlimit="10"/>
<path d="M1448.75 962.85L1427.56 946.63" stroke="black" stroke-width="4" stroke-miterlimit="10"/>
<path d="M1420.3 941.07L1399.53 925.18" stroke="black" stroke-width="4" stroke-miterlimit="10"/>
<path d="M1441.97 972.39L1420.82 956.2" stroke="black" stroke-width="4" stroke-miterlimit="10"/>
<path d="M1413.56 950.651L1392.76 934.721" stroke="black" stroke-width="4" stroke-miterlimit="10"/>
<path d="M1436.61 980.71L1415.14 964.271" stroke="black" stroke-width="4" stroke-miterlimit="10"/>
<path d="M1407.89 958.72L1387.4 943.03" stroke="black" stroke-width="4" stroke-miterlimit="10"/>
<path d="M1429.43 989.42L1408.65 973.51" stroke="black" stroke-width="4" stroke-miterlimit="10"/>
<path d="M1401.39 967.95L1380.23 951.75" stroke="black" stroke-width="4" stroke-miterlimit="10"/>
<path d="M1423.54 999.14L1402.14 982.75" stroke="black" stroke-width="4" stroke-miterlimit="10"/>
<path d="M1394.88 977.2L1374.33 961.46" stroke="black" stroke-width="4" stroke-miterlimit="10"/>
<path d="M1418.41 1009.29L1395.7 991.9" stroke="black" stroke-width="4" stroke-miterlimit="10"/>
<path d="M1388.44 986.341L1369.21 971.601" stroke="black" stroke-width="4" stroke-miterlimit="10"/>
<path d="M1411.39 1017.58L1389.46 1000.78" stroke="black" stroke-width="4" stroke-miterlimit="10"/>
<path d="M1382.2 995.23L1362.19 979.9" stroke="black" stroke-width="4" stroke-miterlimit="10"/>
<path d="M1405.43 1026.72L1383.18 1009.68" stroke="black" stroke-width="4" stroke-miterlimit="10"/>
<path d="M1375.93 1004.12L1356.22 989.03" stroke="black" stroke-width="4" stroke-miterlimit="10"/>
<path d="M1443.01 857.91C1444.91 859.41 1445.3 862.14 1443.91 864.12L1435.8 875.66L1428.06 886.66L1420.93 896.81L1413.51 907.33L1407.01 916.57L1400.47 925.88L1393.74 935.45L1388.06 943.52L1381.57 952.75L1375.06 962L1362.37 980.02L1344.44 1005.5C1343.54 1006.77 1342.1 1007.45 1340.65 1007.44C1339.76 1007.42 1338.86 1007.16 1338.08 1006.6C1336.01 1005.15 1335.52 1002.3 1336.97 1000.25L1436.47 858.87C1437.98 856.72 1440.98 856.29 1443.04 857.92L1443.01 857.91Z" stroke="black" stroke-width="4" stroke-miterlimit="10"/>
<path d="M1424.24 3650.69L1175.57 3501.45C1175.01 3501.12 1174.55 3500.67 1174.2 3500.18L947.091 3363.87C945.751 3363.06 944.971 3361.69 944.881 3360.23C944.821 3359.34 945.031 3358.42 945.521 3357.6C946.821 3355.44 949.631 3354.73 951.791 3356.03L970.501 3367.26L989.151 3378.45L1099.42 3444.63L1108.98 3450.37L1119.52 3456.69L1128.63 3462.16L1199.18 3504.5L1198.97 3504.82L1201.82 3506.53L1217.62 3516.01L1327.88 3582.18L1337.45 3587.92L1347.98 3594.24L1357.1 3599.72L1416.37 3635.28L1428.92 3642.81C1431.08 3644.11 1431.79 3646.91 1430.49 3649.08C1429.19 3651.24 1426.38 3651.95 1424.22 3650.65L1424.24 3650.69Z" stroke="black" stroke-width="4" stroke-miterlimit="10"/>
<path d="M1201.83 3506.56L1198.98 3504.85L1199.19 3504.53L1200.46 3505.29C1201.02 3505.63 1201.48 3506.07 1201.83 3506.57V3506.56Z" stroke="black" stroke-width="4" stroke-miterlimit="10"/>
<path d="M1445.49 3620.36L1431.65 3612.05L1420.94 3605.62L1411.89 3600.2L1401.94 3594.22L1391.49 3587.95L1381.51 3581.97L1372.39 3576.49L1363.26 3571L1352.73 3564.69L1343.18 3558.95L1333.02 3552.85L1321.5 3545.94L1310.87 3539.55L1299.83 3532.93L1290.13 3527.11L1280.38 3521.26L1270.35 3515.23L1261.89 3510.15L1252.2 3504.34L1242.51 3498.53L1232.92 3492.77L1223.61 3487.18L1214.28 3481.57L1202.98 3474.8L1203.19 3474.48L1195.47 3469.85L1192.48 3468.05L1183.42 3462.62L1173.47 3456.64L1163.02 3450.38L1153.05 3444.39L1143.92 3438.92L1134.8 3433.43L1124.26 3427.11L1114.71 3421.37L1104.55 3415.27L1093.02 3408.36L1082.38 3401.97L1071.36 3395.35L1061.65 3389.52L1051.9 3383.67L1041.87 3377.65L1033.41 3372.56L1023.73 3366.76L1014.03 3360.94L1004.44 3355.18L995.131 3349.59L985.791 3343.99L968.361 3333.53C967.021 3332.72 966.241 3331.35 966.151 3329.89C966.091 3329 966.301 3328.08 966.791 3327.26C968.101 3325.09 970.901 3324.39 973.061 3325.69L990.811 3336.34L1000.14 3341.94L1009.46 3347.52L1019.04 3353.28L1028.74 3359.1L1038.42 3364.91L1046.89 3369.99L1056.92 3376.01L1066.67 3381.86L1076.37 3387.68L1087.41 3394.3L1098.04 3400.69L1109.56 3407.6L1119.72 3413.71L1129.28 3419.45L1139.82 3425.77L1148.95 3431.24L1158.07 3436.72L1168.04 3442.71L1178.48 3448.98L1188.45 3454.96L1197.5 3460.39L1208.21 3466.81L1219.5 3473.6L1219.29 3473.92L1223.13 3476.22L1228.62 3479.52L1237.94 3485.1L1247.52 3490.86L1257.22 3496.68L1266.9 3502.49L1275.36 3507.56L1285.4 3513.59L1295.16 3519.43L1304.85 3525.25L1315.89 3531.87L1326.54 3538.26L1338.06 3545.18L1348.22 3551.27L1357.78 3557.02L1368.31 3563.33L1377.44 3568.8L1386.57 3574.29L1396.54 3580.28L1406.98 3586.55L1416.94 3592.52L1425.99 3597.95L1436.7 3604.37L1450.23 3612.5C1452.4 3613.79 1453.09 3616.6 1451.8 3618.77C1450.5 3620.93 1447.69 3621.63 1445.53 3620.33L1445.49 3620.36Z" stroke="black" stroke-width="4" stroke-miterlimit="10"/>
<path d="M1223.11 3476.24L1219.27 3473.94L1219.48 3473.62L1221.72 3474.96C1222.28 3475.3 1222.76 3475.74 1223.11 3476.25V3476.24Z" stroke="black" stroke-width="4" stroke-miterlimit="10"/>
<path d="M1187.91 3497.74L1202.96 3474.81" stroke="black" stroke-width="4" stroke-miterlimit="10"/>
<path d="M1221.9 3445.93V3445.92" stroke="black" stroke-width="4" stroke-miterlimit="10"/>
<path d="M1208.19 3466.83L1221.69 3446.25" stroke="black" stroke-width="4" stroke-miterlimit="10"/>
<path d="M1178.05 3490.01L1192.46 3468.05" stroke="black" stroke-width="4" stroke-miterlimit="10"/>
<path d="M1197.48 3460.41L1212.06 3438.2" stroke="black" stroke-width="4" stroke-miterlimit="10"/>
<path d="M1168.52 3485.32L1183.41 3462.63" stroke="black" stroke-width="4" stroke-miterlimit="10"/>
<path d="M1188.43 3454.97L1202.53 3433.5" stroke="black" stroke-width="4" stroke-miterlimit="10"/>
<path d="M1158.77 3479.03L1173.46 3456.64" stroke="black" stroke-width="4" stroke-miterlimit="10"/>
<path d="M1178.47 3449L1192.77 3427.21" stroke="black" stroke-width="4" stroke-miterlimit="10"/>
<path d="M1147.97 3473.3L1163.01 3450.38" stroke="black" stroke-width="4" stroke-miterlimit="10"/>
<path d="M1168.03 3442.73L1181.98 3421.48" stroke="black" stroke-width="4" stroke-miterlimit="10"/>
<path d="M1137.77 3467.65L1153.04 3444.4" stroke="black" stroke-width="4" stroke-miterlimit="10"/>
<path d="M1158.06 3436.74L1171.78 3415.83" stroke="black" stroke-width="4" stroke-miterlimit="10"/>
<path d="M1128.13 3462.96L1143.91 3438.92" stroke="black" stroke-width="4" stroke-miterlimit="10"/>
<path d="M1148.93 3431.27L1162.14 3411.14" stroke="black" stroke-width="4" stroke-miterlimit="10"/>
<path d="M1118.48 3458.28L1134.78 3433.43" stroke="black" stroke-width="4" stroke-miterlimit="10"/>
<path d="M1139.8 3425.79L1152.48 3406.46" stroke="black" stroke-width="4" stroke-miterlimit="10"/>
<path d="M1108.67 3450.87L1124.25 3427.12" stroke="black" stroke-width="4" stroke-miterlimit="10"/>
<path d="M1129.27 3419.48L1142.67 3399.06" stroke="black" stroke-width="4" stroke-miterlimit="10"/>
<path d="M1099.06 3445.19L1114.7 3421.38" stroke="black" stroke-width="4" stroke-miterlimit="10"/>
<path d="M1119.71 3413.73L1133.07 3393.37" stroke="black" stroke-width="4" stroke-miterlimit="10"/>
<path d="M1089.29 3438.5L1104.53 3415.28" stroke="black" stroke-width="4" stroke-miterlimit="10"/>
<path d="M1109.55 3407.63L1123.3 3386.68" stroke="black" stroke-width="4" stroke-miterlimit="10"/>
<path d="M1077.83 3431.5L1093.01 3408.37" stroke="black" stroke-width="4" stroke-miterlimit="10"/>
<path d="M1098.03 3400.72L1111.83 3379.68" stroke="black" stroke-width="4" stroke-miterlimit="10"/>
<path d="M1067.4 3424.8L1082.37 3401.98" stroke="black" stroke-width="4" stroke-miterlimit="10"/>
<path d="M1087.39 3394.33L1101.4 3372.99" stroke="black" stroke-width="4" stroke-miterlimit="10"/>
<path d="M1056.7 3417.67L1071.34 3395.35" stroke="black" stroke-width="4" stroke-miterlimit="10"/>
<path d="M1076.35 3387.71L1090.7 3365.85" stroke="black" stroke-width="4" stroke-miterlimit="10"/>
<path d="M1046.61 3412.42L1061.64 3389.53" stroke="black" stroke-width="4" stroke-miterlimit="10"/>
<path d="M1066.66 3381.89L1080.62 3360.6" stroke="black" stroke-width="4" stroke-miterlimit="10"/>
<path d="M1037.24 3405.99L1051.88 3383.68" stroke="black" stroke-width="4" stroke-miterlimit="10"/>
<path d="M1056.9 3376.04L1071.25 3354.17" stroke="black" stroke-width="4" stroke-miterlimit="10"/>
<path d="M1027.24 3399.92L1041.85 3377.65" stroke="black" stroke-width="4" stroke-miterlimit="10"/>
<path d="M1046.86 3370.01L1061.24 3348.1" stroke="black" stroke-width="4" stroke-miterlimit="10"/>
<path d="M1018.55 3395.18L1033.39 3372.58" stroke="black" stroke-width="4" stroke-miterlimit="10"/>
<path d="M1038.4 3364.93L1052.56 3343.36" stroke="black" stroke-width="4" stroke-miterlimit="10"/>
<path d="M1009.34 3388.66L1023.7 3366.77" stroke="black" stroke-width="4" stroke-miterlimit="10"/>
<path d="M1028.72 3359.13L1043.34 3336.85" stroke="black" stroke-width="4" stroke-miterlimit="10"/>
<path d="M999.23 3383.48L1014.01 3360.95" stroke="black" stroke-width="4" stroke-miterlimit="10"/>
<path d="M1019.02 3353.31L1033.23 3331.67" stroke="black" stroke-width="4" stroke-miterlimit="10"/>
<path d="M988.73 3379.1L1004.42 3355.19" stroke="black" stroke-width="4" stroke-miterlimit="10"/>
<path d="M1009.44 3347.55L1022.74 3327.29" stroke="black" stroke-width="4" stroke-miterlimit="10"/>
<path d="M979.951 3372.71L995.111 3349.61" stroke="black" stroke-width="4" stroke-miterlimit="10"/>
<path d="M1000.12 3341.97L1013.95 3320.9" stroke="black" stroke-width="4" stroke-miterlimit="10"/>
<path d="M970.402 3367.42L985.782 3344" stroke="black" stroke-width="4" stroke-miterlimit="10"/>
<path d="M990.801 3336.36L1004.42 3315.61" stroke="black" stroke-width="4" stroke-miterlimit="10"/>
<path d="M1464.28 3591.85L1450.38 3583.51L1439.68 3577.08L1430.63 3571.65L1420.67 3565.68L1410.23 3559.41L1400.25 3553.42L1351.75 3524.31L1340.22 3517.4L1329.59 3511.02L1318.55 3504.39L1308.85 3498.57L1299.08 3492.71L1289.05 3486.69L1280.59 3481.62L1270.91 3475.8L1261.22 3469.99L1242.31 3458.64L1221.69 3446.26L1221.9 3445.94L1214.24 3441.35L1211.21 3439.53L1202.16 3434.1L1192.19 3428.12L1181.75 3421.85L1171.78 3415.86L1123.28 3386.75L1111.74 3379.83L1101.11 3373.45L1090.07 3366.82L1080.37 3361L1070.61 3355.14L1060.58 3349.12L1052.11 3344.04L1042.43 3338.23L1032.73 3332.41L1013.84 3321.06L987.12 3305.03C985.78 3304.22 985.01 3302.84 984.92 3301.39C984.86 3300.5 985.07 3299.59 985.56 3298.76C986.85 3296.59 989.66 3295.89 991.82 3297.2L1240.49 3446.44C1241.05 3446.77 1241.51 3447.2 1241.86 3447.7L1468.98 3584.01C1471.14 3585.31 1471.84 3588.11 1470.54 3590.28C1469.25 3592.45 1466.44 3593.15 1464.27 3591.85H1464.28Z" stroke="black" stroke-width="4" stroke-miterlimit="10"/>
<path d="M1221.69 3446.25L1215.61 3442.6C1215.05 3442.27 1214.6 3441.83 1214.24 3441.33L1221.9 3445.92L1221.69 3446.24V3446.25Z" stroke="black" stroke-width="4" stroke-miterlimit="10"/>
<path d="M1202.96 3474.81L1196.82 3471.13C1196.26 3470.79 1195.8 3470.35 1195.45 3469.85L1203.17 3474.48L1202.96 3474.8V3474.81Z" stroke="black" stroke-width="4" stroke-miterlimit="10"/>
<path d="M1416.38 3635.32L1431.65 3612.06" stroke="black" stroke-width="4" stroke-miterlimit="10"/>
<path d="M1436.67 3604.41L1450.38 3583.5" stroke="black" stroke-width="4" stroke-miterlimit="10"/>
<path d="M1406.53 3627.58L1420.94 3605.63" stroke="black" stroke-width="4" stroke-miterlimit="10"/>
<path d="M1425.96 3597.98L1440.54 3575.77" stroke="black" stroke-width="4" stroke-miterlimit="10"/>
<path d="M1397 3622.89L1411.89 3600.2" stroke="black" stroke-width="4" stroke-miterlimit="10"/>
<path d="M1416.91 3592.55L1431 3571.07" stroke="black" stroke-width="4" stroke-miterlimit="10"/>
<path d="M1387.25 3616.6L1401.94 3594.22" stroke="black" stroke-width="4" stroke-miterlimit="10"/>
<path d="M1406.95 3586.57L1421.25 3564.78" stroke="black" stroke-width="4" stroke-miterlimit="10"/>
<path d="M1376.45 3610.87L1391.49 3587.95" stroke="black" stroke-width="4" stroke-miterlimit="10"/>
<path d="M1396.51 3580.31L1410.46 3559.05" stroke="black" stroke-width="4" stroke-miterlimit="10"/>
<path d="M1366.25 3605.22L1381.52 3581.97" stroke="black" stroke-width="4" stroke-miterlimit="10"/>
<path d="M1386.53 3574.32L1400.26 3553.4" stroke="black" stroke-width="4" stroke-miterlimit="10"/>
<path d="M1356.6 3600.54L1372.39 3576.49" stroke="black" stroke-width="4" stroke-miterlimit="10"/>
<path d="M1377.41 3568.84L1390.62 3548.72" stroke="black" stroke-width="4" stroke-miterlimit="10"/>
<path d="M1346.96 3595.85L1363.26 3571.01" stroke="black" stroke-width="4" stroke-miterlimit="10"/>
<path d="M1368.28 3563.36L1380.96 3544.03" stroke="black" stroke-width="4" stroke-miterlimit="10"/>
<path d="M1337.14 3588.44L1352.73 3564.69" stroke="black" stroke-width="4" stroke-miterlimit="10"/>
<path d="M1357.75 3557.05L1371.15 3536.63" stroke="black" stroke-width="4" stroke-miterlimit="10"/>
<path d="M1327.54 3582.77L1343.17 3558.95" stroke="black" stroke-width="4" stroke-miterlimit="10"/>
<path d="M1348.18 3551.31L1361.55 3530.95" stroke="black" stroke-width="4" stroke-miterlimit="10"/>
<path d="M1317.77 3576.08L1333.01 3552.85" stroke="black" stroke-width="4" stroke-miterlimit="10"/>
<path d="M1338.03 3545.21L1351.78 3524.26" stroke="black" stroke-width="4" stroke-miterlimit="10"/>
<path d="M1306.31 3569.08L1321.49 3545.94" stroke="black" stroke-width="4" stroke-miterlimit="10"/>
<path d="M1326.51 3538.3L1340.31 3517.26" stroke="black" stroke-width="4" stroke-miterlimit="10"/>
<path d="M1295.88 3562.37L1310.85 3539.55" stroke="black" stroke-width="4" stroke-miterlimit="10"/>
<path d="M1315.87 3531.91L1329.88 3510.56" stroke="black" stroke-width="4" stroke-miterlimit="10"/>
<path d="M1285.17 3555.25L1299.82 3532.93" stroke="black" stroke-width="4" stroke-miterlimit="10"/>
<path d="M1304.83 3525.29L1319.18 3503.43" stroke="black" stroke-width="4" stroke-miterlimit="10"/>
<path d="M1275.09 3549.99L1290.11 3527.1" stroke="black" stroke-width="4" stroke-miterlimit="10"/>
<path d="M1295.13 3519.46L1309.1 3498.17" stroke="black" stroke-width="4" stroke-miterlimit="10"/>
<path d="M1265.72 3543.56L1280.36 3521.25" stroke="black" stroke-width="4" stroke-miterlimit="10"/>
<path d="M1285.38 3513.61L1299.72 3491.74" stroke="black" stroke-width="4" stroke-miterlimit="10"/>
<path d="M1255.72 3537.5L1270.33 3515.23" stroke="black" stroke-width="4" stroke-miterlimit="10"/>
<path d="M1275.34 3507.59L1289.72 3485.68" stroke="black" stroke-width="4" stroke-miterlimit="10"/>
<path d="M1247.03 3532.76L1261.87 3510.15" stroke="black" stroke-width="4" stroke-miterlimit="10"/>
<path d="M1266.88 3502.51L1281.04 3480.93" stroke="black" stroke-width="4" stroke-miterlimit="10"/>
<path d="M1237.82 3526.23L1252.18 3504.34" stroke="black" stroke-width="4" stroke-miterlimit="10"/>
<path d="M1257.2 3496.7L1271.82 3474.42" stroke="black" stroke-width="4" stroke-miterlimit="10"/>
<path d="M1227.7 3521.05L1242.49 3498.53" stroke="black" stroke-width="4" stroke-miterlimit="10"/>
<path d="M1247.5 3490.88L1261.71 3469.24" stroke="black" stroke-width="4" stroke-miterlimit="10"/>
<path d="M1217.21 3516.68L1232.9 3492.77" stroke="black" stroke-width="4" stroke-miterlimit="10"/>
<path d="M1237.92 3485.12L1251.22 3464.87" stroke="black" stroke-width="4" stroke-miterlimit="10"/>
<path d="M1208.43 3510.28L1223.59 3487.18" stroke="black" stroke-width="4" stroke-miterlimit="10"/>
<path d="M1228.6 3479.54L1242.43 3458.47" stroke="black" stroke-width="4" stroke-miterlimit="10"/>
<path d="M1199.19 3504.53L1214.26 3481.57" stroke="black" stroke-width="4" stroke-miterlimit="10"/>
<path d="M1198.88 3504.99L1198.98 3504.85" stroke="black" stroke-width="4" stroke-miterlimit="10"/>
<path d="M1219.48 3473.62L1232.9 3453.18" stroke="black" stroke-width="4" stroke-miterlimit="10"/>
<path d="M2215.73 2547.78L1888.57 2553.87" stroke="black" stroke-width="6" stroke-miterlimit="10" stroke-linecap="round"/>
<path d="M2215.5 2475.65L1888.34 2481.73" stroke="black" stroke-width="6" stroke-miterlimit="10" stroke-linecap="round"/>
<path d="M2211.93 2478.07L2212.21 2547.8" stroke="black" stroke-width="2" stroke-miterlimit="10" stroke-linecap="round"/>
<path d="M2201.82 2478.11L2202.09 2547.84" stroke="black" stroke-width="2" stroke-miterlimit="10" stroke-linecap="round"/>
<path d="M2191.71 2478.15L2191.98 2547.88" stroke="black" stroke-width="2" stroke-miterlimit="10" stroke-linecap="round"/>
<path d="M2181.6 2478.19L2181.87 2547.92" stroke="black" stroke-width="2" stroke-miterlimit="10" stroke-linecap="round"/>
<path d="M2171.49 2478.23L2171.76 2547.95" stroke="black" stroke-width="2" stroke-miterlimit="10" stroke-linecap="round"/>
<path d="M2161.38 2478.27L2161.65 2547.99" stroke="black" stroke-width="2" stroke-miterlimit="10" stroke-linecap="round"/>
<path d="M2151.27 2478.3L2151.54 2548.03" stroke="black" stroke-width="2" stroke-miterlimit="10" stroke-linecap="round"/>
<path d="M2141.15 2478.34L2141.43 2548.07" stroke="black" stroke-width="2" stroke-miterlimit="10" stroke-linecap="round"/>
<path d="M2131.04 2478.38L2131.31 2548.11" stroke="black" stroke-width="2" stroke-miterlimit="10" stroke-linecap="round"/>
<path d="M2120.93 2478.42L2121.2 2548.15" stroke="black" stroke-width="2" stroke-miterlimit="10" stroke-linecap="round"/>
<path d="M2110.82 2478.46L2111.09 2548.19" stroke="black" stroke-width="2" stroke-miterlimit="10" stroke-linecap="round"/>
<path d="M2100.71 2478.5L2100.98 2548.23" stroke="black" stroke-width="2" stroke-miterlimit="10" stroke-linecap="round"/>
<path d="M2090.6 2478.54L2090.87 2548.27" stroke="black" stroke-width="2" stroke-miterlimit="10" stroke-linecap="round"/>
<path d="M2080.49 2478.58L2080.76 2548.31" stroke="black" stroke-width="2" stroke-miterlimit="10" stroke-linecap="round"/>
<path d="M2014.39 2481.16L2014.66 2550.89" stroke="black" stroke-width="2" stroke-miterlimit="10" stroke-linecap="round"/>
<path d="M2003.87 2481.2L2004.14 2550.93" stroke="black" stroke-width="2" stroke-miterlimit="10" stroke-linecap="round"/>
<path d="M1993.34 2481.24L1993.61 2550.97" stroke="black" stroke-width="2" stroke-miterlimit="10" stroke-linecap="round"/>
<path d="M1982.82 2481.28L1983.09 2551.01" stroke="black" stroke-width="2" stroke-miterlimit="10" stroke-linecap="round"/>
<path d="M1972.29 2481.32L1972.56 2551.05" stroke="black" stroke-width="2" stroke-miterlimit="10" stroke-linecap="round"/>
<path d="M1961.76 2481.37L1962.04 2551.09" stroke="black" stroke-width="2" stroke-miterlimit="10" stroke-linecap="round"/>
<path d="M1951.24 2481.41L1951.51 2551.14" stroke="black" stroke-width="2" stroke-miterlimit="10" stroke-linecap="round"/>
<path d="M1940.71 2481.45L1940.98 2551.18" stroke="black" stroke-width="2" stroke-miterlimit="10" stroke-linecap="round"/>
<path d="M1930.19 2481.49L1930.46 2551.22" stroke="black" stroke-width="2" stroke-miterlimit="10" stroke-linecap="round"/>
<path d="M1919.66 2481.53L1919.93 2551.26" stroke="black" stroke-width="2" stroke-miterlimit="10" stroke-linecap="round"/>
<path d="M1909.14 2481.57L1909.41 2551.3" stroke="black" stroke-width="2" stroke-miterlimit="10" stroke-linecap="round"/>
<path d="M2566.67 2536.38L2279.53 2538.69" stroke="black" stroke-width="6" stroke-miterlimit="10" stroke-linecap="round"/>
<path d="M2278.66 2475.52L2565.8 2473.21" stroke="black" stroke-width="6" stroke-miterlimit="10" stroke-linecap="round"/>
<path d="M2558.8 2473.21V2536.38" stroke="black" stroke-width="2" stroke-miterlimit="10" stroke-linecap="round"/>
<path d="M2549.16 2473.21V2536.38" stroke="black" stroke-width="2" stroke-miterlimit="10" stroke-linecap="round"/>
<path d="M2539.52 2473.21V2536.38" stroke="black" stroke-width="2" stroke-miterlimit="10" stroke-linecap="round"/>
<path d="M2529.87 2473.21V2536.38" stroke="black" stroke-width="2" stroke-miterlimit="10" stroke-linecap="round"/>
<path d="M2520.23 2473.21V2536.38" stroke="black" stroke-width="2" stroke-miterlimit="10" stroke-linecap="round"/>
<path d="M2510.59 2473.21V2536.38" stroke="black" stroke-width="2" stroke-miterlimit="10" stroke-linecap="round"/>
<path d="M2500.95 2473.21V2536.38" stroke="black" stroke-width="2" stroke-miterlimit="10" stroke-linecap="round"/>
<path d="M2491.3 2473.21V2536.38" stroke="black" stroke-width="2" stroke-miterlimit="10" stroke-linecap="round"/>
<path d="M2481.66 2473.21V2536.38" stroke="black" stroke-width="2" stroke-miterlimit="10" stroke-linecap="round"/>
<path d="M2472.02 2473.21V2536.38" stroke="black" stroke-width="2" stroke-miterlimit="10" stroke-linecap="round"/>
<path d="M2462.37 2473.21V2536.38" stroke="black" stroke-width="2" stroke-miterlimit="10" stroke-linecap="round"/>
<path d="M2400.5 2474.02V2537.18" stroke="black" stroke-width="2" stroke-miterlimit="10" stroke-linecap="round"/>
<path d="M2390.46 2474.02V2537.18" stroke="black" stroke-width="2" stroke-miterlimit="10" stroke-linecap="round"/>
<path d="M2380.41 2474.02V2537.18" stroke="black" stroke-width="2" stroke-miterlimit="10" stroke-linecap="round"/>
<path d="M2370.37 2474.02V2537.18" stroke="black" stroke-width="2" stroke-miterlimit="10" stroke-linecap="round"/>
<path d="M2360.32 2474.02V2537.18" stroke="black" stroke-width="2" stroke-miterlimit="10" stroke-linecap="round"/>
<path d="M2350.28 2474.02V2537.18" stroke="black" stroke-width="2" stroke-miterlimit="10" stroke-linecap="round"/>
<path d="M2340.23 2474.02V2537.18" stroke="black" stroke-width="2" stroke-miterlimit="10" stroke-linecap="round"/>
<path d="M2330.19 2474.02V2537.18" stroke="black" stroke-width="2" stroke-miterlimit="10" stroke-linecap="round"/>
<path d="M2320.15 2474.02V2537.18" stroke="black" stroke-width="2" stroke-miterlimit="10" stroke-linecap="round"/>
<path d="M2310.1 2474.02V2537.18" stroke="black" stroke-width="2" stroke-miterlimit="10" stroke-linecap="round"/>
<path d="M2300.06 2474.02V2537.18" stroke="black" stroke-width="2" stroke-miterlimit="10" stroke-linecap="round"/>
<path d="M2290.01 2474.02V2537.18" stroke="black" stroke-width="2" stroke-miterlimit="10" stroke-linecap="round"/>
<path d="M2778.18 3433.32L2617.51 3671.31" stroke="black" stroke-width="6" stroke-miterlimit="10" stroke-linecap="round"/>
<path d="M2564.95 3636.26L2725.61 3398.27" stroke="black" stroke-width="6" stroke-miterlimit="10" stroke-linecap="round"/>
<path d="M2721.66 3404.04L2773.72 3439.8" stroke="black" stroke-width="2" stroke-miterlimit="10" stroke-linecap="round"/>
<path d="M2716.2 3411.99L2768.26 3447.75" stroke="black" stroke-width="2" stroke-miterlimit="10" stroke-linecap="round"/>
<path d="M2710.74 3419.94L2762.81 3455.7" stroke="black" stroke-width="2" stroke-miterlimit="10" stroke-linecap="round"/>
<path d="M2705.28 3427.88L2757.35 3463.65" stroke="black" stroke-width="2" stroke-miterlimit="10" stroke-linecap="round"/>
<path d="M2699.82 3435.83L2751.89 3471.59" stroke="black" stroke-width="2" stroke-miterlimit="10" stroke-linecap="round"/>
<path d="M2694.36 3443.78L2746.43 3479.54" stroke="black" stroke-width="2" stroke-miterlimit="10" stroke-linecap="round"/>
<path d="M2688.9 3451.73L2740.97 3487.49" stroke="black" stroke-width="2" stroke-miterlimit="10" stroke-linecap="round"/>
<path d="M2683.44 3459.68L2735.51 3495.44" stroke="black" stroke-width="2" stroke-miterlimit="10" stroke-linecap="round"/>
<path d="M2677.98 3467.63L2730.05 3503.39" stroke="black" stroke-width="2" stroke-miterlimit="10" stroke-linecap="round"/>
<path d="M2672.52 3475.57L2724.59 3511.34" stroke="black" stroke-width="2" stroke-miterlimit="10" stroke-linecap="round"/>
<path d="M2667.06 3483.52L2719.13 3519.28" stroke="black" stroke-width="2" stroke-miterlimit="10" stroke-linecap="round"/>
<path d="M2632.69 3534.98L2684.76 3570.74" stroke="black" stroke-width="2" stroke-miterlimit="10" stroke-linecap="round"/>
<path d="M2627.01 3543.26L2679.08 3579.02" stroke="black" stroke-width="2" stroke-miterlimit="10" stroke-linecap="round"/>
<path d="M2621.32 3551.54L2673.39 3587.3" stroke="black" stroke-width="2" stroke-miterlimit="10" stroke-linecap="round"/>
<path d="M2615.63 3559.82L2667.7 3595.58" stroke="black" stroke-width="2" stroke-miterlimit="10" stroke-linecap="round"/>
<path d="M2609.95 3568.1L2662.02 3603.86" stroke="black" stroke-width="2" stroke-miterlimit="10" stroke-linecap="round"/>
<path d="M2604.26 3576.38L2656.33 3612.14" stroke="black" stroke-width="2" stroke-miterlimit="10" stroke-linecap="round"/>
<path d="M2598.57 3584.66L2650.64 3620.42" stroke="black" stroke-width="2" stroke-miterlimit="10" stroke-linecap="round"/>
<path d="M2592.89 3592.94L2644.96 3628.7" stroke="black" stroke-width="2" stroke-miterlimit="10" stroke-linecap="round"/>
<path d="M2587.2 3601.22L2639.27 3636.98" stroke="black" stroke-width="2" stroke-miterlimit="10" stroke-linecap="round"/>
<path d="M2581.51 3609.5L2633.58 3645.26" stroke="black" stroke-width="2" stroke-miterlimit="10" stroke-linecap="round"/>
<path d="M2575.83 3617.78L2627.9 3653.54" stroke="black" stroke-width="2" stroke-miterlimit="10" stroke-linecap="round"/>
<path d="M2570.14 3626.06L2622.21 3661.82" stroke="black" stroke-width="2" stroke-miterlimit="10" stroke-linecap="round"/>
<path d="M1341.37 3197.96L1274.33 3135.19" stroke="black" stroke-width="6" stroke-miterlimit="10" stroke-linecap="round"/>
<path d="M1304.15 3100.02L1372.31 3165.33" stroke="black" stroke-width="6" stroke-miterlimit="10" stroke-linecap="round"/>
<path d="M1361.29 3155.24L1331.15 3190.81" stroke="black" stroke-width="2" stroke-miterlimit="10" stroke-linecap="round"/>
<path d="M1356.59 3150.65L1326.46 3186.21" stroke="black" stroke-width="2" stroke-miterlimit="10" stroke-linecap="round"/>
<path d="M1351.9 3146.05L1321.77 3181.62" stroke="black" stroke-width="2" stroke-miterlimit="10" stroke-linecap="round"/>
<path d="M1347.21 3141.46L1317.07 3177.03" stroke="black" stroke-width="2" stroke-miterlimit="10" stroke-linecap="round"/>
<path d="M1342.52 3136.87L1312.38 3172.44" stroke="black" stroke-width="2" stroke-miterlimit="10" stroke-linecap="round"/>
<path d="M1337.83 3132.28L1307.69 3167.84" stroke="black" stroke-width="2" stroke-miterlimit="10" stroke-linecap="round"/>
<path d="M1333.14 3127.69L1303 3163.25" stroke="black" stroke-width="2" stroke-miterlimit="10" stroke-linecap="round"/>
<path d="M1328.44 3123.09L1298.31 3158.66" stroke="black" stroke-width="2" stroke-miterlimit="10" stroke-linecap="round"/>
<path d="M1323.75 3118.5L1293.62 3154.07" stroke="black" stroke-width="2" stroke-miterlimit="10" stroke-linecap="round"/>
<path d="M1319.06 3113.91L1288.92 3149.48" stroke="black" stroke-width="2" stroke-miterlimit="10" stroke-linecap="round"/>
<path d="M1314.37 3109.32L1284.23 3144.88" stroke="black" stroke-width="2" stroke-miterlimit="10" stroke-linecap="round"/>
<path d="M1309.68 3104.72L1279.54 3140.29" stroke="black" stroke-width="2" stroke-miterlimit="10" stroke-linecap="round"/>
<path d="M1304.98 3100.13L1274.85 3135.7" stroke="black" stroke-width="2" stroke-miterlimit="10" stroke-linecap="round"/>
<path d="M2163.51 2103.92L2095.34 2103.42L2094.84 2171.59L2163.01 2172.09L2163.51 2103.92Z" fill="#4378BC" stroke="#1D1D1B" stroke-width="10" stroke-miterlimit="10"/>
<path d="M2246.1 2104.52L2163.38 2103.91L2162.89 2172.08L2245.6 2172.69L2246.1 2104.52Z" fill="#4378BC" stroke="#1D1D1B" stroke-width="10" stroke-miterlimit="10"/>
<path d="M2314.28 2105.02L2246.11 2104.52L2245.61 2172.69L2313.78 2173.19L2314.28 2105.02Z" fill="#4378BC" stroke="#1D1D1B" stroke-width="10" stroke-miterlimit="10"/>
<circle cx="1537.5" cy="3656.5" r="55" fill="#25A519" stroke="white" stroke-width="7"/>
<path d="M1566.7 3657.89L1555.25 3671.89C1554.84 3672.39 1554.29 3672.67 1553.71 3672.67C1553.13 3672.67 1552.58 3672.39 1552.17 3671.89C1551.76 3671.39 1551.53 3670.71 1551.53 3670C1551.53 3669.29 1551.76 3668.61 1552.17 3668.11L1559.89 3658.67H1534.62C1534.05 3658.67 1533.49 3658.39 1533.08 3657.89C1532.67 3657.39 1532.44 3656.71 1532.44 3656C1532.44 3655.29 1532.67 3654.61 1533.08 3654.11C1533.49 3653.61 1534.05 3653.33 1534.62 3653.33H1559.89L1552.17 3643.89C1551.76 3643.39 1551.53 3642.71 1551.53 3642C1551.53 3641.29 1551.76 3640.61 1552.17 3640.11C1552.58 3639.61 1553.13 3639.33 1553.71 3639.33C1554.29 3639.33 1554.84 3639.61 1555.25 3640.11L1566.7 3654.11C1567.11 3654.61 1567.34 3655.29 1567.34 3656C1567.34 3656.71 1567.11 3657.39 1566.7 3657.89ZM1538.98 3682.67H1519.36V3629.33H1538.98C1539.56 3629.33 1540.12 3629.05 1540.53 3628.55C1540.93 3628.05 1541.16 3627.37 1541.16 3626.67C1541.16 3625.96 1540.93 3625.28 1540.53 3624.78C1540.12 3624.28 1539.56 3624 1538.98 3624H1519.36C1518.2 3624 1517.1 3624.56 1516.28 3625.56C1515.46 3626.56 1515 3627.92 1515 3629.33V3682.67C1515 3684.08 1515.46 3685.44 1516.28 3686.44C1517.1 3687.44 1518.2 3688 1519.36 3688H1538.98C1539.56 3688 1540.12 3687.72 1540.53 3687.22C1540.93 3686.72 1541.16 3686.04 1541.16 3685.33C1541.16 3684.63 1540.93 3683.95 1540.53 3683.45C1540.12 3682.95 1539.56 3682.67 1538.98 3682.67Z" fill="#FFF8F1"/>
</svg>
