<svg width="53" height="64" viewBox="0 0 53 64" fill="none" xmlns="http://www.w3.org/2000/svg">
<path d="M43.429 0H9.14295C6.71894 0.002773 4.395 0.966935 2.68097 2.68097C0.966935 4.395 0.002773 6.71894 0 9.14295V45.7147C0.002773 48.1388 0.966935 50.4627 2.68097 52.1767C4.395 53.8908 6.71894 54.8549 9.14295 54.8577H12.5715L8.45712 60.3435C8.0934 60.8285 7.93725 61.4381 8.02302 62.0383C8.10878 62.6384 8.42943 63.1799 8.91443 63.5436C9.39944 63.9073 10.0091 64.0635 10.6092 63.9777C11.2093 63.8919 11.7508 63.5713 12.1145 63.0863L18.286 54.8577H34.286L40.4574 63.0863C40.8212 63.5713 41.3626 63.8919 41.9628 63.9777C42.5629 64.0635 43.1725 63.9073 43.6575 63.5436C44.1425 63.1799 44.4632 62.6384 44.5489 62.0383C44.6347 61.4381 44.4786 60.8285 44.1148 60.3435L40.0005 54.8577H43.429C45.853 54.8549 48.177 53.8908 49.891 52.1767C51.605 50.4627 52.5692 48.1388 52.572 45.7147V9.14295C52.5692 6.71894 51.605 4.395 49.891 2.68097C48.177 0.966935 45.853 0.002773 43.429 0ZM13.7144 45.7147C13.0363 45.7147 12.3734 45.5137 11.8096 45.1369C11.2458 44.7602 10.8063 44.2247 10.5468 43.5982C10.2873 42.9717 10.2194 42.2823 10.3517 41.6173C10.484 40.9522 10.8105 40.3413 11.29 39.8618C11.7695 39.3823 12.3805 39.0557 13.0455 38.9234C13.7106 38.7911 14.4 38.859 15.0265 39.1185C15.653 39.378 16.1885 39.8175 16.5652 40.3813C16.9419 40.9451 17.143 41.608 17.143 42.2861C17.143 43.1955 16.7818 44.0675 16.1388 44.7105C15.4958 45.3535 14.6237 45.7147 13.7144 45.7147ZM24.0002 27.4288H4.57147V16.0002H24.0002V27.4288ZM38.8575 45.7147C38.1794 45.7147 37.5165 45.5137 36.9527 45.1369C36.3889 44.7602 35.9494 44.2247 35.6899 43.5982C35.4304 42.9717 35.3625 42.2823 35.4948 41.6173C35.6271 40.9522 35.9536 40.3413 36.4331 39.8618C36.9126 39.3823 37.5236 39.0557 38.1886 38.9234C38.8537 38.7911 39.5431 38.859 40.1696 39.1185C40.7961 39.378 41.3316 39.8175 41.7083 40.3813C42.0851 40.9451 42.2861 41.608 42.2861 42.2861C42.2861 43.1955 41.9249 44.0675 41.2819 44.7105C40.6389 45.3535 39.7669 45.7147 38.8575 45.7147ZM48.0005 27.4288H28.5717V16.0002H48.0005V27.4288Z" fill="#FFF8F1"/>
</svg>
