<svg width="53" height="64" viewBox="0 0 53 64" fill="none" xmlns="http://www.w3.org/2000/svg">
<path d="M51.6986 33.8857L40.2516 47.8857C39.8427 48.3858 39.288 48.6668 38.7098 48.6667C38.1315 48.6667 37.5769 48.3857 37.168 47.8856C36.7591 47.3855 36.5294 46.7071 36.5294 45.9999C36.5294 45.2926 36.7592 44.6143 37.1681 44.1143L44.8929 34.6667H19.6234C19.0451 34.6667 18.4906 34.3857 18.0817 33.8856C17.6728 33.3855 17.443 32.7072 17.443 32C17.443 31.2928 17.6728 30.6145 18.0817 30.1144C18.4906 29.6143 19.0451 29.3333 19.6234 29.3333H44.8929L37.1681 19.8857C36.7592 19.3857 36.5294 18.7074 36.5294 18.0001C36.5294 17.2929 36.7591 16.6146 37.168 16.1144C37.5769 15.6143 38.1315 15.3333 38.7098 15.3333C39.288 15.3332 39.8427 15.6142 40.2516 16.1143L51.6986 30.1143C52.1075 30.6144 52.3372 31.2927 52.3372 32C52.3372 32.7073 52.1075 33.3856 51.6986 33.8857ZM23.9842 58.6667H4.36076V5.33333H23.9842C24.5624 5.33333 25.117 5.05238 25.5259 4.55228C25.9348 4.05219 26.1646 3.37391 26.1646 2.66667C26.1646 1.95942 25.9348 1.28115 25.5259 0.781049C25.117 0.280952 24.5624 0 23.9842 0H4.36076C3.20462 0.00161713 2.09621 0.56404 1.2787 1.56388C0.461183 2.56373 0.00132223 3.91934 0 5.33333V58.6667C0.00132223 60.0807 0.461183 61.4363 1.2787 62.4361C2.09621 63.436 3.20462 63.9984 4.36076 64H23.9842C24.5624 64 25.117 63.7191 25.5259 63.219C25.9348 62.7189 26.1646 62.0406 26.1646 61.3333C26.1646 60.6261 25.9348 59.9478 25.5259 59.4477C25.117 58.9476 24.5624 58.6667 23.9842 58.6667Z" fill="#FFF8F1"/>
</svg>
